SplineFontDB: 3.0
FontName: Exo-MediumItalic
FullName: Exo Medium Italic
FamilyName: Exo
Weight: Medium
Copyright: Copyright (c) 2011 Natanael Gama (exo@ndiscovered.com), with Reserved Font Name "Exo"
Version: 1.00
ItalicAngle: 0
UnderlinePosition: -50
UnderlineWidth: 50
Ascent: 800
Descent: 200
sfntRevision: 0x00010000
LayerCount: 2
Layer: 0 1 "Back"  1
Layer: 1 1 "Fore"  0
XUID: [1021 663 220499060 1471193]
FSType: 0
OS2Version: 4
OS2_WeightWidthSlopeOnly: 0
OS2_UseTypoMetrics: 1
CreationTime: 1317847902
ModificationTime: 1328305026
PfmFamily: 17
TTFWeight: 500
TTFWidth: 5
LineGap: 0
VLineGap: 0
Panose: 2 0 6 3 0 0 0 0 0 0
OS2TypoAscent: 202
OS2TypoAOffset: 1
OS2TypoDescent: -127
OS2TypoDOffset: 1
OS2TypoLinegap: 0
OS2WinAscent: 1
OS2WinAOffset: 1
OS2WinDescent: 51
OS2WinDOffset: 1
HheadAscent: 1
HheadAOffset: 1
HheadDescent: -51
HheadDOffset: 1
OS2SubXSize: 650
OS2SubYSize: 700
OS2SubXOff: 0
OS2SubYOff: 140
OS2SupXSize: 650
OS2SupYSize: 700
OS2SupXOff: 0
OS2SupYOff: 480
OS2StrikeYSize: 49
OS2StrikeYPos: 258
OS2Vendor: 'PfEd'
OS2CodePages: 20000093.00000000
OS2UnicodeRanges: a00000ef.4000204b.00000000.00000000
Lookup: 4 0 0 "'ordn' Ordinals lookup 0"  {"'ordn' Ordinals lookup 0 subtable"  } ['ordn' ('DFLT' <'dflt' > 'grek' <'dflt' > 'latn' <'dflt' > ) ]
Lookup: 1 0 0 "'smcp' Lowercase to Small Capitals lookup 1"  {"'smcp' Lowercase to Small Capitals lookup 1 subtable"  } ['smcp' ('DFLT' <'dflt' > 'grek' <'dflt' > 'latn' <'FRA ' 'dflt' > ) ]
Lookup: 1 0 0 "'c2sc' Capitals to Small Capitals in Latin lookup 2"  {"'c2sc' Capitals to Small Capitals in Latin lookup 2 subtable"  } ['c2sc' ('latn' <'dflt' > ) ]
Lookup: 4 0 0 "'dlig' Discretionary Ligatures lookup 3"  {"'dlig' Discretionary Ligatures lookup 3 subtable"  } ['dlig' ('DFLT' <'dflt' > 'grek' <'dflt' > 'latn' <'dflt' > ) ]
Lookup: 4 0 1 "'liga' Standard Ligatures lookup 4"  {"'liga' Standard Ligatures lookup 4 subtable"  } ['liga' ('DFLT' <'dflt' > 'grek' <'dflt' > 'latn' <'FRA ' 'dflt' > ) ]

StartChar: .notdef
Encoding: 0 -1 0
AltUni2: 000000.ffffffff.0
Width: 758
Flags: W
LayerCount: 2
Fore
SplineSet
100 0 m 1,0,-1
 100 531 l 1,1,-1
 658 531 l 1,2,-1
 658 0 l 1,3,-1
 100 0 l 1,0,-1
114 22 m 1,4,-1
 370 266 l 1,5,-1
 114 507 l 1,6,-1
 114 22 l 1,4,-1
124 518 m 1,7,-1
 381 276 l 1,8,-1
 635 518 l 1,9,-1
 124 518 l 1,7,-1
127 13 m 1,10,-1
 634 13 l 1,11,-1
 381 256 l 1,12,-1
 127 13 l 1,10,-1
392 266 m 1,13,-1
 644 25 l 1,14,-1
 644 506 l 1,15,-1
 392 266 l 1,13,-1
EndSplineSet
EndChar

StartChar: exclam
Encoding: 33 33 4
Width: 266
GlyphClass: 2
Flags: W
LayerCount: 2
Fore
SplineSet
119 114 m 2,0,-1
 183 114 l 2,1,2
 206 114 206 114 202 89 c 2,3,-1
 192 23 l 2,4,5
 189 0 189 0 166 0 c 2,6,-1
 102 0 l 2,7,8
 91 0 91 0 85 6.5 c 128,-1,9
 79 13 79 13 81 23 c 2,10,-1
 91 89 l 2,11,12
 95 114 95 114 119 114 c 2,0,-1
118 199 m 1,13,-1
 193 731 l 1,14,-1
 297 731 l 1,15,-1
 203 199 l 1,16,-1
 118 199 l 1,13,-1
EndSplineSet
Substitution2: "'smcp' Lowercase to Small Capitals lookup 1 subtable" exclam.smcp
EndChar

StartChar: quotedbl
Encoding: 34 34 5
Width: 398
GlyphClass: 2
Flags: W
LayerCount: 2
Fore
SplineSet
175 531 m 1,0,-1
 184 665 l 1,1,-1
 195 732 l 1,2,-1
 287 732 l 1,3,-1
 276 665 l 1,4,-1
 245 531 l 1,5,-1
 175 531 l 1,0,-1
322 531 m 1,6,-1
 332 665 l 1,7,-1
 343 732 l 1,8,-1
 434 732 l 1,9,-1
 423 665 l 1,10,-1
 392 531 l 1,11,-1
 322 531 l 1,6,-1
EndSplineSet
Substitution2: "'smcp' Lowercase to Small Capitals lookup 1 subtable" quotedbl.smcp
EndChar

StartChar: numbersign
Encoding: 35 35 6
Width: 696
GlyphClass: 2
Flags: W
LayerCount: 2
Fore
SplineSet
54 226 m 1,0,-1
 74 290 l 1,1,-1
 231 290 l 1,2,-1
 279 443 l 1,3,-1
 122 443 l 1,4,-1
 143 507 l 1,5,-1
 301 507 l 1,6,-1
 373 732 l 1,7,-1
 437 732 l 1,8,-1
 365 507 l 1,9,-1
 519 507 l 1,10,-1
 590 732 l 1,11,-1
 654 732 l 1,12,-1
 583 507 l 1,13,-1
 759 507 l 1,14,-1
 737 443 l 1,15,-1
 562 443 l 1,16,-1
 513 289 l 1,17,-1
 689 289 l 1,18,-1
 669 225 l 1,19,-1
 492 225 l 1,20,-1
 419 0 l 1,21,-1
 355 0 l 1,22,-1
 428 225 l 1,23,-1
 273 226 l 1,24,-1
 200 0 l 1,25,-1
 136 0 l 1,26,-1
 209 226 l 1,27,-1
 54 226 l 1,0,-1
295 290 m 1,28,-1
 449 289 l 1,29,-1
 498 443 l 1,30,-1
 343 443 l 1,31,-1
 295 290 l 1,28,-1
EndSplineSet
Substitution2: "'smcp' Lowercase to Small Capitals lookup 1 subtable" numbersign.smcp
EndChar

StartChar: dollar
Encoding: 36 36 7
Width: 572
GlyphClass: 2
Flags: W
LayerCount: 2
Fore
SplineSet
596 641 m 1,0,-1
 363 650 l 2,1,2
 357 650 357 650 353 650 c 0,3,4
 304 650 304 650 272 630 c 128,-1,5
 240 610 240 610 231 554 c 2,6,-1
 222 496 l 2,7,8
 220 482 220 482 220 461.5 c 128,-1,9
 220 441 220 441 234 423.5 c 128,-1,10
 248 406 248 406 304 406 c 2,11,-1
 425 406 l 2,12,13
 562 406 562 406 562 275 c 0,14,15
 562 251 562 251 558 224 c 2,16,-1
 548 161 l 2,17,18
 531 57 531 57 457 20 c 0,19,20
 399 -8 399 -8 326 -8 c 0,21,22
 316 -8 316 -8 306 -8 c 1,23,-1
 293 -90 l 1,24,-1
 228 -90 l 1,25,-1
 241 -4 l 1,26,27
 141 6 141 6 77 18 c 1,28,-1
 89 86 l 1,29,30
 94 86 94 86 182 82.5 c 128,-1,31
 270 79 270 79 306.5 79 c 128,-1,32
 343 79 343 79 362 83 c 128,-1,33
 381 87 381 87 401.5 95 c 128,-1,34
 422 103 422 103 437 121 c 128,-1,35
 452 139 452 139 456 164 c 2,36,-1
 465 224 l 2,37,38
 475 285 475 285 460 298 c 0,39,40
 442 314 442 314 401 314 c 2,41,-1
 281 314 l 2,42,43
 197 314 197 314 161 356 c 0,44,45
 126 398 126 398 126 445 c 0,46,47
 126 465 126 465 129 496 c 1,48,-1
 139 561 l 2,49,50
 158 678 158 678 241 715 c 0,51,52
 288 737 288 737 359 738 c 1,53,-1
 372 824 l 1,54,-1
 438 824 l 1,55,-1
 424 735 l 1,56,57
 492 730 492 730 607 713 c 1,58,-1
 596 641 l 1,0,-1
EndSplineSet
Substitution2: "'smcp' Lowercase to Small Capitals lookup 1 subtable" dollar.smcp
EndChar

StartChar: percent
Encoding: 37 37 8
Width: 962
GlyphClass: 2
Flags: W
LayerCount: 2
Fore
SplineSet
284 732 m 2,0,-1
 385 732 l 2,1,2
 451 732 451 732 477 701 c 1,3,4
 496 680 496 680 496 639 c 0,5,6
 496 623 496 623 493 604 c 2,7,-1
 473 474 l 1,8,9
 461 403 461 403 430 376 c 128,-1,10
 399 349 399 349 323 349 c 2,11,-1
 222 349 l 2,12,13
 162 349 162 349 136 378.5 c 128,-1,14
 110 408 110 408 110 449 c 0,15,16
 110 463 110 463 113 478 c 2,17,-1
 133 608 l 2,18,19
 144 675 144 675 175 703.5 c 128,-1,20
 206 732 206 732 284 732 c 2,0,-1
187 480 m 2,21,22
 185 469 185 469 185 460 c 128,-1,23
 185 451 185 451 188 442 c 0,24,25
 194 423 194 423 237 423 c 2,26,-1
 331 423 l 2,27,28
 368 423 368 423 381 434.5 c 128,-1,29
 394 446 394 446 399 480 c 2,30,-1
 419 601 l 2,31,32
 422 615 422 615 422 623.5 c 128,-1,33
 422 632 422 632 420 641 c 0,34,35
 416 658 416 658 370 658 c 2,36,-1
 276 658 l 2,37,38
 238 658 238 658 225 646.5 c 128,-1,39
 212 635 212 635 207 601 c 2,40,-1
 187 480 l 2,21,22
220 0 m 1,41,-1
 776 732 l 1,42,-1
 855 732 l 1,43,-1
 300 0 l 1,44,-1
 220 0 l 1,41,-1
755 383 m 2,45,-1
 856 383 l 2,46,47
 922 383 922 383 948 353 c 0,48,49
 967 331 967 331 967 290 c 0,50,51
 967 274 967 274 964 255 c 2,52,-1
 944 125 l 2,53,54
 933 55 933 55 901.5 27.5 c 128,-1,55
 870 0 870 0 793 0 c 2,56,-1
 692 0 l 2,57,58
 632 0 632 0 607 29 c 128,-1,59
 582 58 582 58 582 99 c 0,60,61
 582 113 582 113 584 128 c 2,62,-1
 604 258 l 2,63,64
 614 323 614 323 643 352 c 0,65,66
 675 383 675 383 755 383 c 2,45,-1
659 131 m 1,67,68
 656 120 656 120 656 111.5 c 128,-1,69
 656 103 656 103 659 93 c 0,70,71
 665 74 665 74 707 74 c 2,72,-1
 801 74 l 2,73,74
 839 74 839 74 852 85.5 c 128,-1,75
 865 97 865 97 871 131 c 2,76,-1
 890 252 l 2,77,78
 892 267 892 267 892 279.5 c 128,-1,79
 892 292 892 292 885 300.5 c 128,-1,80
 878 309 878 309 840 309 c 2,81,-1
 747 309 l 2,82,83
 709 309 709 309 696 297.5 c 128,-1,84
 683 286 683 286 678 252 c 2,85,-1
 659 131 l 1,67,68
EndSplineSet
Substitution2: "'smcp' Lowercase to Small Capitals lookup 1 subtable" percent.smcp
EndChar

StartChar: ampersand
Encoding: 38 38 9
Width: 638
GlyphClass: 2
Flags: W
LayerCount: 2
Fore
SplineSet
385 648 m 2,0,1
 282 648 282 648 282 594 c 0,2,3
 282 569 282 569 303 532 c 2,4,-1
 475 233 l 1,5,-1
 609 352 l 1,6,-1
 638 322 l 1,7,-1
 567 203 l 1,8,-1
 519 157 l 1,9,-1
 612 0 l 1,10,-1
 515 0 l 1,11,-1
 453 106 l 1,12,-1
 378 41 l 2,13,14
 325 -6 325 -6 251 -6 c 0,15,16
 215 -6 215 -6 178 8 c 0,17,18
 124 29 124 29 92 80 c 128,-1,19
 60 131 60 131 60 182 c 0,20,21
 60 285 60 285 167 366 c 2,22,-1
 261 438 l 1,23,-1
 214 518 l 1,24,25
 191 560 191 560 191 596 c 0,26,27
 191 609 191 609 194 620 c 0,28,29
 205 665 205 665 240 694 c 128,-1,30
 275 723 275 723 324 727.5 c 128,-1,31
 373 732 373 732 406 732 c 128,-1,32
 439 732 439 732 476.5 729.5 c 128,-1,33
 514 727 514 727 587 710 c 1,34,-1
 577 648 l 1,35,-1
 385 648 l 2,0,1
257 80 m 0,36,37
 297 80 297 80 332 110 c 2,38,-1
 410 179 l 1,39,-1
 301 361 l 1,40,-1
 221 300 l 1,41,42
 147 245 147 245 147 186 c 0,43,44
 147 157 147 157 167 128 c 0,45,46
 200 80 200 80 257 80 c 0,36,37
EndSplineSet
AlternateSubs2: "'salt' Stylistic Alternatives in Latin lookup 16 subtable" ampersand.salt
Substitution2: "'smcp' Lowercase to Small Capitals lookup 1 subtable" ampersand.smcp
EndChar

StartChar: quotesingle
Encoding: 39 39 10
Width: 196
GlyphClass: 2
Flags: W
LayerCount: 2
Fore
SplineSet
146 531 m 1,0,-1
 156 665 l 1,1,-1
 167 732 l 1,2,-1
 260 732 l 1,3,-1
 249 665 l 1,4,-1
 218 531 l 1,5,-1
 146 531 l 1,0,-1
EndSplineSet
Substitution2: "'smcp' Lowercase to Small Capitals lookup 1 subtable" quotesingle.smcp
EndChar

StartChar: parenleft
Encoding: 40 40 11
Width: 346
GlyphClass: 2
Flags: W
LayerCount: 2
Fore
SplineSet
199 158 m 0,0,1
 199 13 199 13 249 -122 c 0,2,3
 267 -169 267 -169 281 -194 c 2,4,-1
 295 -219 l 1,5,-1
 200 -219 l 1,6,7
 158 -149 158 -149 130 -26 c 0,8,9
 109 67 109 67 109 164 c 0,10,11
 109 330 109 330 167 496 c 0,12,13
 212 624 212 624 294 754 c 0,14,15
 325 803 325 803 345 827 c 2,16,-1
 364 851 l 1,17,-1
 465 851 l 1,18,19
 438 819 438 819 397.5 756.5 c 128,-1,20
 357 694 357 694 326 635 c 128,-1,21
 295 576 295 576 262.5 488.5 c 128,-1,22
 230 401 230 401 214.5 316.5 c 128,-1,23
 199 232 199 232 199 158 c 0,0,1
EndSplineSet
Substitution2: "'case' Case-Sensitive Forms lookup 18 subtable" parenleft.alt
Substitution2: "'c2sc' Capitals to Small Capitals in Latin lookup 2 subtable" parenleft.smcp
Substitution2: "'smcp' Lowercase to Small Capitals lookup 1 subtable" parenleft.smcp
EndChar

StartChar: parenright
Encoding: 41 41 12
Width: 348
GlyphClass: 2
Flags: W
LayerCount: 2
Fore
SplineSet
251 472 m 0,0,1
 251 617 251 617 201 753 c 0,2,3
 184 800 184 800 170 825 c 2,4,-1
 156 851 l 1,5,-1
 250 851 l 1,6,7
 292 780 292 780 320 656 c 0,8,9
 341 563 341 563 341 466 c 0,10,11
 341 261 341 261 258 66 c 1,12,13
 211 -41 211 -41 178 -93 c 0,14,15
 121 -180 121 -180 99 -207 c 2,16,-1
 89 -219 l 1,17,-1
 -14 -219 l 1,18,19
 13 -187 13 -187 53.5 -125 c 128,-1,20
 94 -63 94 -63 124.5 -4 c 128,-1,21
 155 55 155 55 188 142.5 c 128,-1,22
 221 230 221 230 236 314.5 c 128,-1,23
 251 399 251 399 251 472 c 0,0,1
EndSplineSet
Substitution2: "'case' Case-Sensitive Forms lookup 18 subtable" parenright.alt
Substitution2: "'c2sc' Capitals to Small Capitals in Latin lookup 2 subtable" parenright.smcp
Substitution2: "'smcp' Lowercase to Small Capitals lookup 1 subtable" parenright.smcp
EndChar

StartChar: asterisk
Encoding: 42 42 13
Width: 436
GlyphClass: 2
Flags: W
LayerCount: 2
Fore
SplineSet
136 566 m 1,0,-1
 142 610 l 1,1,-1
 286 638 l 1,2,-1
 279 561 l 1,3,-1
 136 566 l 1,0,-1
177 415 m 1,4,-1
 222 550 l 1,5,-1
 295 532 l 1,6,-1
 216 401 l 1,7,-1
 177 415 l 1,4,-1
278 473 m 1,8,-1
 331 538 l 1,9,-1
 426 447 l 1,10,-1
 397 412 l 1,11,-1
 278 473 l 1,8,-1
286 718 m 1,12,-1
 332 735 l 1,13,-1
 386 615 l 1,14,-1
 310 584 l 1,15,-1
 286 718 l 1,12,-1
338 571 m 1,16,-1
 470 648 l 1,17,-1
 486 609 l 1,18,-1
 378 512 l 1,19,-1
 338 571 l 1,16,-1
EndSplineSet
Substitution2: "'smcp' Lowercase to Small Capitals lookup 1 subtable" asterisk.smcp
EndChar

StartChar: plus
Encoding: 43 43 14
Width: 507
GlyphClass: 2
Flags: W
LayerCount: 2
Fore
SplineSet
95 313 m 1,0,-1
 108 399 l 1,1,-1
 272 399 l 1,2,-1
 298 564 l 1,3,-1
 384 564 l 1,4,-1
 358 399 l 1,5,-1
 524 399 l 1,6,-1
 511 313 l 1,7,-1
 345 313 l 1,8,-1
 318 148 l 1,9,-1
 232 148 l 1,10,-1
 259 313 l 1,11,-1
 95 313 l 1,0,-1
EndSplineSet
EndChar

StartChar: comma
Encoding: 44 44 15
Width: 265
GlyphClass: 2
Flags: W
LayerCount: 2
Fore
SplineSet
104 0 m 2,0,1
 93 0 93 0 87 6.5 c 128,-1,2
 81 13 81 13 83 25 c 2,3,-1
 93 88 l 2,4,5
 97 115 97 115 123 115 c 2,6,-1
 183 115 l 2,7,8
 202 115 202 115 202 95 c 0,9,10
 202 92 202 92 202 88 c 2,11,-1
 186 -11 l 2,12,13
 182 -39 182 -39 168 -57 c 0,14,15
 143 -90 143 -90 91 -90 c 0,16,17
 86 -90 86 -90 81 -90 c 2,18,-1
 70 -88 l 1,19,-1
 76 -52 l 1,20,21
 90 -52 90 -52 98.5 -46 c 128,-1,22
 107 -40 107 -40 108.5 -35 c 128,-1,23
 110 -30 110 -30 112 -22 c 2,24,-1
 115 0 l 1,25,-1
 104 0 l 2,0,1
EndSplineSet
EndChar

StartChar: hyphen
Encoding: 45 45 16
Width: 354
GlyphClass: 2
Flags: W
LayerCount: 2
Fore
SplineSet
60 247 m 1,0,-1
 74 333 l 1,1,-1
 388 333 l 1,2,-1
 374 247 l 1,3,-1
 60 247 l 1,0,-1
EndSplineSet
Substitution2: "'case' Case-Sensitive Forms lookup 18 subtable" hyphen.alt
Substitution2: "'c2sc' Capitals to Small Capitals in Latin lookup 2 subtable" hyphen.smcp
Substitution2: "'smcp' Lowercase to Small Capitals lookup 1 subtable" hyphen.smcp
EndChar

StartChar: period
Encoding: 46 46 17
Width: 268
GlyphClass: 2
Flags: W
LayerCount: 2
Fore
SplineSet
121 114 m 2,0,-1
 183 114 l 2,1,2
 205 114 205 114 205 96 c 0,3,4
 205 93 205 93 204 89 c 2,5,-1
 193 23 l 2,6,7
 190 0 190 0 165 0 c 2,8,-1
 103 0 l 2,9,10
 93 0 93 0 87 6.5 c 128,-1,11
 81 13 81 13 82 23 c 2,12,-1
 93 89 l 1,13,14
 96 114 96 114 121 114 c 2,0,-1
EndSplineSet
EndChar

StartChar: slash
Encoding: 47 47 18
Width: 415
GlyphClass: 2
Flags: W
LayerCount: 2
Fore
SplineSet
7 -72 m 1,0,-1
 421 770 l 1,1,-1
 518 770 l 1,2,-1
 104 -72 l 1,3,-1
 7 -72 l 1,0,-1
EndSplineSet
Substitution2: "'numr' Numerators in Latin lookup 13 subtable" fraction
Substitution2: "'frac' Diagonal Fractions lookup 6 subtable" fraction
EndChar

StartChar: zero
Encoding: 48 48 19
Width: 638
GlyphClass: 2
Flags: W
LayerCount: 2
Fore
SplineSet
353 732 m 2,0,-1
 517 732 l 2,1,2
 562 732 562 732 594.5 717.5 c 128,-1,3
 627 703 627 703 642 680 c 0,4,5
 667 641 667 641 667 597 c 0,6,7
 667 581 667 581 663 566 c 1,8,-1
 600 166 l 2,9,10
 586 79 586 79 538.5 39.5 c 128,-1,11
 491 0 491 0 406 0 c 2,12,-1
 242 0 l 2,13,14
 164 0 164 0 121 41 c 0,15,16
 88 72 88 72 88 129 c 0,17,18
 88 146 88 146 91 166 c 2,19,-1
 154 564 l 2,20,21
 181 732 181 732 353 732 c 2,0,-1
184 173 m 2,22,23
 182 160 182 160 182 148.5 c 128,-1,24
 182 137 182 137 183 128 c 128,-1,25
 184 119 184 119 189 113 c 128,-1,26
 194 107 194 107 196.5 102.5 c 128,-1,27
 199 98 199 98 207.5 95.5 c 128,-1,28
 216 93 216 93 219.5 91.5 c 128,-1,29
 223 90 223 90 234 90 c 0,30,31
 245 89 245 89 262 89 c 2,32,-1
 408 89 l 2,33,34
 495 89 495 89 509 172 c 2,35,-1
 571 560 l 2,36,37
 573 573 573 573 573 591 c 128,-1,38
 573 609 573 609 559.5 626 c 128,-1,39
 546 643 546 643 498 643 c 2,40,-1
 350 643 l 2,41,42
 258 643 258 643 246 560 c 1,43,-1
 184 173 l 2,22,23
EndSplineSet
Substitution2: "'dnom' Denominators in Latin lookup 19 subtable" zero.denominator
Substitution2: "'sups' Superscript lookup 17 subtable" zerosuperior
Substitution2: "'onum' Oldstyle Figures in Latin lookup 15 subtable" zero.oldstyle
Substitution2: "'tnum' Tabular Numbers in Latin lookup 14 subtable" zero.tnum
Substitution2: "'numr' Numerators in Latin lookup 13 subtable" zero.numerator
Substitution2: "'zero' Slashed Zero lookup 12 subtable" uni0338
Substitution2: "'sinf' Scientific Inferiors lookup 11 subtable" zeroinferior
Substitution2: "'frac' Diagonal Fractions lookup 5 subtable" zero.numerator
Substitution2: "'smcp' Lowercase to Small Capitals lookup 1 subtable" zero.smcp
EndChar

StartChar: one
Encoding: 49 49 20
Width: 363
GlyphClass: 2
Flags: W
LayerCount: 2
Fore
SplineSet
130 584 m 1,0,-1
 139 648 l 1,1,2
 177 648 177 648 220 668 c 0,3,4
 285 699 285 699 314 732 c 1,5,-1
 404 732 l 1,6,-1
 290 0 l 1,7,-1
 198 0 l 1,8,-1
 297 624 l 1,9,10
 276 608 276 608 231 596 c 128,-1,11
 186 584 186 584 130 584 c 1,0,-1
EndSplineSet
Substitution2: "'dnom' Denominators in Latin lookup 19 subtable" one.denominator
Substitution2: "'sups' Superscript lookup 17 subtable" onesuperior
Substitution2: "'onum' Oldstyle Figures in Latin lookup 15 subtable" one.oldstyle
Substitution2: "'tnum' Tabular Numbers in Latin lookup 14 subtable" one.tnum
Substitution2: "'numr' Numerators in Latin lookup 13 subtable" one.numerator
Substitution2: "'sinf' Scientific Inferiors lookup 11 subtable" oneinferior
Substitution2: "'frac' Diagonal Fractions lookup 5 subtable" one.numerator
Substitution2: "'smcp' Lowercase to Small Capitals lookup 1 subtable" one.smcp
EndChar

StartChar: two
Encoding: 50 50 21
Width: 592
GlyphClass: 2
Flags: W
LayerCount: 2
Fore
SplineSet
542 558 m 0,0,1
 542 652 542 652 431 652 c 2,2,-1
 140 652 l 1,3,-1
 151 720 l 1,4,5
 309 742 309 742 458 742 c 0,6,7
 508 742 508 742 545 724 c 0,8,9
 611 691 611 691 628 605 c 0,10,11
 633 581 633 581 633 560.5 c 128,-1,12
 633 540 633 540 630.5 513.5 c 128,-1,13
 628 487 628 487 608 446 c 128,-1,14
 588 405 588 405 561 369.5 c 128,-1,15
 534 334 534 334 495.5 295 c 128,-1,16
 457 256 457 256 423.5 227.5 c 128,-1,17
 390 199 390 199 350 168 c 0,18,19
 294 126 294 126 238 89 c 1,20,-1
 558 89 l 1,21,-1
 544 0 l 1,22,-1
 44 0 l 1,23,-1
 58 83 l 1,24,25
 376 277 376 277 492 431 c 0,26,27
 542 498 542 498 542 558 c 0,0,1
EndSplineSet
Substitution2: "'dnom' Denominators in Latin lookup 19 subtable" two.denominator
Substitution2: "'sups' Superscript lookup 17 subtable" twosuperior
Substitution2: "'onum' Oldstyle Figures in Latin lookup 15 subtable" two.oldstyle
Substitution2: "'tnum' Tabular Numbers in Latin lookup 14 subtable" two.tnum
Substitution2: "'numr' Numerators in Latin lookup 13 subtable" two.numerator
Substitution2: "'sinf' Scientific Inferiors lookup 11 subtable" twoinferior
Substitution2: "'frac' Diagonal Fractions lookup 5 subtable" two.numerator
Substitution2: "'smcp' Lowercase to Small Capitals lookup 1 subtable" two.smcp
EndChar

StartChar: three
Encoding: 51 51 22
Width: 591
GlyphClass: 2
Flags: W
LayerCount: 2
Fore
SplineSet
340 -7 m 2,0,-1
 281 -7 l 2,1,2
 268 -7 268 -7 262.5 -7 c 128,-1,3
 257 -7 257 -7 230 -6.5 c 128,-1,4
 203 -6 203 -6 193 -5.5 c 128,-1,5
 183 -5 183 -5 160.5 -3.5 c 128,-1,6
 138 -2 138 -2 126 0 c 128,-1,7
 114 2 114 2 96 5 c 0,8,9
 67 10 67 10 37 21 c 1,10,-1
 47 83 l 1,11,-1
 333 83 l 2,12,13
 378 83 378 83 412.5 104 c 128,-1,14
 447 125 447 125 454 169 c 2,15,-1
 463 221 l 1,16,17
 468 257 468 257 464 270.5 c 128,-1,18
 460 284 460 284 456.5 291.5 c 128,-1,19
 453 299 453 299 445.5 303.5 c 128,-1,20
 438 308 438 308 432 311 c 128,-1,21
 426 314 426 314 415 315 c 1,22,23
 399 318 399 318 377 319 c 2,24,-1
 147 326 l 1,25,-1
 159 399 l 1,26,-1
 391 409 l 2,27,28
 494 413 494 413 509 500 c 1,29,-1
 518 560 l 2,30,31
 520 572 520 572 520 582 c 0,32,33
 520 645 520 645 429 645 c 2,34,-1
 130 645 l 1,35,-1
 139 706 l 1,36,37
 225 735 225 735 359 735 c 0,38,39
 408 735 408 735 473 733.5 c 128,-1,40
 538 732 538 732 580 684 c 0,41,42
 613 647 613 647 613 593 c 0,43,44
 613 579 613 579 611 563 c 2,45,-1
 600 498 l 2,46,47
 591 440 591 440 567 406 c 128,-1,48
 543 372 543 372 510 364 c 1,49,50
 560 339 560 339 560 263 c 0,51,52
 560 241 560 241 556 216 c 2,53,-1
 547 161 l 2,54,55
 520 -7 520 -7 340 -7 c 2,0,-1
EndSplineSet
Substitution2: "'dnom' Denominators in Latin lookup 19 subtable" three.denominator
Substitution2: "'sups' Superscript lookup 17 subtable" threesuperior
Substitution2: "'onum' Oldstyle Figures in Latin lookup 15 subtable" three.oldstyle
Substitution2: "'tnum' Tabular Numbers in Latin lookup 14 subtable" three.tnum
Substitution2: "'numr' Numerators in Latin lookup 13 subtable" three.numerator
Substitution2: "'sinf' Scientific Inferiors lookup 11 subtable" threeinferior
Substitution2: "'frac' Diagonal Fractions lookup 5 subtable" three.numerator
Substitution2: "'smcp' Lowercase to Small Capitals lookup 1 subtable" three.smcp
EndChar

StartChar: four
Encoding: 52 52 23
Width: 607
GlyphClass: 2
Flags: W
LayerCount: 2
Fore
SplineSet
54 224 m 1,0,-1
 438 732 l 1,1,-1
 548 732 l 1,2,-1
 202 272 l 1,3,-1
 451 272 l 1,4,-1
 483 469 l 1,5,-1
 533 544 l 1,6,-1
 589 544 l 1,7,-1
 546 272 l 1,8,-1
 631 272 l 1,9,-1
 620 200 l 1,10,-1
 531 180 l 1,11,-1
 504 2 l 1,12,-1
 409 2 l 1,13,-1
 437 180 l 1,14,-1
 80 180 l 1,15,-1
 54 224 l 1,0,-1
EndSplineSet
Substitution2: "'dnom' Denominators in Latin lookup 19 subtable" four.denominator
Substitution2: "'sups' Superscript lookup 17 subtable" foursuperior
Substitution2: "'onum' Oldstyle Figures in Latin lookup 15 subtable" four.oldstyle
Substitution2: "'tnum' Tabular Numbers in Latin lookup 14 subtable" four.tnum
Substitution2: "'numr' Numerators in Latin lookup 13 subtable" four.numerator
Substitution2: "'sinf' Scientific Inferiors lookup 11 subtable" fourinferior
Substitution2: "'frac' Diagonal Fractions lookup 5 subtable" four.numerator
Substitution2: "'smcp' Lowercase to Small Capitals lookup 1 subtable" four.smcp
EndChar

StartChar: five
Encoding: 53 53 24
Width: 601
GlyphClass: 2
Flags: W
LayerCount: 2
Fore
SplineSet
238 422 m 1,0,1
 271 453 271 453 371 453 c 0,2,3
 388 453 388 453 416.5 452 c 128,-1,4
 445 451 445 451 453 450 c 0,5,6
 523 449 523 449 562 400 c 1,7,8
 591 361 591 361 591 307 c 0,9,10
 591 291 591 291 589 274 c 2,11,-1
 572 164 l 2,12,13
 556 65 556 65 500 28 c 0,14,15
 450 -4 450 -4 376 -5 c 0,16,17
 361 -5 361 -5 315 -5 c 0,18,19
 210 -5 210 -5 74 19 c 1,20,-1
 85 89 l 1,21,-1
 383 89 l 2,22,23
 416 89 416 89 432 100 c 128,-1,24
 448 111 448 111 455.5 119.5 c 128,-1,25
 463 128 463 128 468 138 c 0,26,27
 478 157 478 157 481 176 c 2,28,-1
 496 271 l 2,29,30
 499 285 499 285 499 298 c 0,31,32
 499 363 499 363 428 363 c 2,33,-1
 293 363 l 2,34,35
 261 363 261 363 236 345.5 c 128,-1,36
 211 328 211 328 205 293 c 1,37,-1
 118 293 l 1,38,-1
 210 732 l 1,39,-1
 639 732 l 1,40,-1
 625 643 l 1,41,-1
 284 643 l 1,42,-1
 238 422 l 1,0,1
EndSplineSet
Substitution2: "'dnom' Denominators in Latin lookup 19 subtable" five.denominator
Substitution2: "'sups' Superscript lookup 17 subtable" fivesuperior
Substitution2: "'onum' Oldstyle Figures in Latin lookup 15 subtable" five.oldstyle
Substitution2: "'tnum' Tabular Numbers in Latin lookup 14 subtable" five.tnum
Substitution2: "'numr' Numerators in Latin lookup 13 subtable" five.numerator
Substitution2: "'sinf' Scientific Inferiors lookup 11 subtable" fiveinferior
Substitution2: "'frac' Diagonal Fractions lookup 5 subtable" five.numerator
Substitution2: "'smcp' Lowercase to Small Capitals lookup 1 subtable" five.smcp
EndChar

StartChar: six
Encoding: 54 54 25
Width: 617
GlyphClass: 2
Flags: W
LayerCount: 2
Fore
SplineSet
217 412 m 1,0,1
 365 433 365 433 470 433 c 0,2,3
 534 433 534 433 566 407 c 0,4,5
 599 379 599 379 604 344 c 1,6,7
 609 318 609 318 609 302.5 c 128,-1,8
 609 287 609 287 606 274 c 2,9,-1
 586 148 l 2,10,11
 573 67 573 67 524.5 33.5 c 128,-1,12
 476 0 476 0 396 0 c 2,13,-1
 251 0 l 2,14,15
 219 0 219 0 194 9.5 c 128,-1,16
 169 19 169 19 148 46 c 1,17,18
 105 98 105 98 105 222 c 0,19,20
 105 293 105 293 120 387.5 c 128,-1,21
 135 482 135 482 161 552.5 c 128,-1,22
 187 623 187 623 219 661 c 0,23,24
 280 736 280 736 348 737 c 0,25,26
 371 738 371 738 394 738 c 0,27,28
 530 738 530 738 652 718 c 1,29,-1
 640 649 l 1,30,-1
 362 649 l 2,31,32
 331 649 331 649 305 624.5 c 128,-1,33
 279 600 279 600 262 560 c 0,34,35
 230 488 230 488 217 412 c 1,0,1
195 222 m 0,36,37
 195 86 195 86 273 86 c 2,38,-1
 403 86 l 2,39,40
 486 86 486 86 498 164 c 2,41,-1
 515 273 l 2,42,43
 517 286 517 286 517 303 c 128,-1,44
 517 320 517 320 504 332.5 c 128,-1,45
 491 345 491 345 445 345 c 2,46,-1
 206 345 l 1,47,48
 195 274 195 274 195 222 c 0,36,37
EndSplineSet
Substitution2: "'dnom' Denominators in Latin lookup 19 subtable" six.denominator
Substitution2: "'sups' Superscript lookup 17 subtable" sixsuperior
Substitution2: "'onum' Oldstyle Figures in Latin lookup 15 subtable" six.oldstyle
Substitution2: "'tnum' Tabular Numbers in Latin lookup 14 subtable" six.tnum
Substitution2: "'numr' Numerators in Latin lookup 13 subtable" six.numerator
Substitution2: "'sinf' Scientific Inferiors lookup 11 subtable" sixinferior
Substitution2: "'frac' Diagonal Fractions lookup 5 subtable" six.numerator
Substitution2: "'smcp' Lowercase to Small Capitals lookup 1 subtable" six.smcp
EndChar

StartChar: seven
Encoding: 55 55 26
Width: 548
GlyphClass: 2
Flags: W
LayerCount: 2
Fore
SplineSet
130 643 m 1,0,-1
 144 732 l 1,1,-1
 606 732 l 1,2,-1
 628 680 l 1,3,-1
 261 0 l 1,4,-1
 155 0 l 1,5,-1
 506 643 l 1,6,-1
 130 643 l 1,0,-1
EndSplineSet
Substitution2: "'dnom' Denominators in Latin lookup 19 subtable" seven.denominator
Substitution2: "'sups' Superscript lookup 17 subtable" sevensuperior
Substitution2: "'onum' Oldstyle Figures in Latin lookup 15 subtable" seven.oldstyle
Substitution2: "'tnum' Tabular Numbers in Latin lookup 14 subtable" seven.tnum
Substitution2: "'numr' Numerators in Latin lookup 13 subtable" seven.numerator
Substitution2: "'sinf' Scientific Inferiors lookup 11 subtable" seveninferior
Substitution2: "'frac' Diagonal Fractions lookup 5 subtable" seven.numerator
Substitution2: "'smcp' Lowercase to Small Capitals lookup 1 subtable" seven.smcp
EndChar

StartChar: eight
Encoding: 56 56 27
Width: 629
GlyphClass: 2
Flags: W
LayerCount: 2
Fore
SplineSet
218 362 m 1,0,1
 147 388 147 388 147 473 c 0,2,3
 147 488 147 488 148 502 c 1,4,-1
 159 567 l 1,5,6
 174 663 174 663 224.5 700 c 128,-1,7
 275 737 275 737 365 737 c 2,8,-1
 513 737 l 2,9,10
 590 737 590 737 627 691 c 0,11,12
 654 657 654 657 654 602 c 0,13,14
 654 583 654 583 651 561 c 2,15,-1
 640 499 l 1,16,17
 636 461 636 461 608 424 c 0,18,19
 583 392 583 392 543 384 c 1,20,21
 581 373 581 373 594 331 c 0,22,23
 603 304 603 304 603 284 c 128,-1,24
 603 264 603 264 601 250 c 2,25,-1
 586 156 l 2,26,27
 568 40 568 40 489 13 c 0,28,29
 452 0 452 0 395 0 c 2,30,-1
 248 0 l 2,31,32
 200 0 200 0 166.5 13.5 c 128,-1,33
 133 27 133 27 118 44.5 c 128,-1,34
 103 62 103 62 97 86 c 128,-1,35
 91 110 91 110 91 124.5 c 128,-1,36
 91 139 91 139 95 161 c 2,37,-1
 109 252 l 2,38,39
 117 302 117 302 147 329.5 c 128,-1,40
 177 357 177 357 218 362 c 1,0,1
187 160 m 2,41,42
 185 150 185 150 185 132.5 c 128,-1,43
 185 115 185 115 201.5 101.5 c 128,-1,44
 218 88 218 88 269 88 c 2,45,-1
 400 88 l 2,46,47
 435 88 435 88 461.5 105 c 128,-1,48
 488 122 488 122 494 160 c 2,49,-1
 509 255 l 2,50,51
 511 264 511 264 511 272 c 0,52,53
 511 297 511 297 493.5 314 c 128,-1,54
 476 331 476 331 442 331 c 2,55,-1
 299 331 l 2,56,57
 248 331 248 331 221 300 c 0,58,59
 206 282 206 282 202 255 c 2,60,-1
 187 160 l 2,41,42
238 476 m 0,61,62
 238 448 238 448 258.5 432 c 128,-1,63
 279 416 279 416 312 416 c 2,64,-1
 454 416 l 2,65,66
 534 416 534 416 547 494 c 2,67,-1
 557 556 l 2,68,69
 560 576 560 576 560 597 c 128,-1,70
 560 618 560 618 550 630 c 0,71,72
 535 650 535 650 490 650 c 2,73,-1
 358 650 l 2,74,75
 303 650 303 650 280 629 c 128,-1,76
 257 608 257 608 249 556 c 2,77,-1
 239 494 l 2,78,79
 238 484 238 484 238 476 c 0,61,62
EndSplineSet
Substitution2: "'dnom' Denominators in Latin lookup 19 subtable" eight.denominator
Substitution2: "'sups' Superscript lookup 17 subtable" eightsuperior
Substitution2: "'onum' Oldstyle Figures in Latin lookup 15 subtable" eight.oldstyle
Substitution2: "'tnum' Tabular Numbers in Latin lookup 14 subtable" eight.tnum
Substitution2: "'numr' Numerators in Latin lookup 13 subtable" eight.numerator
Substitution2: "'sinf' Scientific Inferiors lookup 11 subtable" eightinferior
Substitution2: "'frac' Diagonal Fractions lookup 5 subtable" eight.numerator
Substitution2: "'smcp' Lowercase to Small Capitals lookup 1 subtable" eight.smcp
EndChar

StartChar: nine
Encoding: 57 57 28
Width: 616
GlyphClass: 2
Flags: W
LayerCount: 2
Fore
SplineSet
517 326 m 1,0,1
 369 305 369 305 264 305 c 0,2,3
 188 305 188 305 157 342 c 0,4,5
 126 378 126 378 126 419 c 0,6,7
 126 432 126 432 129 464 c 1,8,-1
 148 588 l 2,9,10
 160 669 160 669 209 703 c 128,-1,11
 258 737 258 737 337 737 c 2,12,-1
 483 737 l 2,13,14
 629 737 629 737 629 514 c 0,15,16
 629 442 629 442 614 347 c 128,-1,17
 599 252 599 252 573 182 c 128,-1,18
 547 112 547 112 515 74 c 0,19,20
 454 2 454 2 386 0 c 0,21,22
 358 -1 358 -1 331 -1 c 0,23,24
 185 -1 185 -1 82 19 c 1,25,-1
 93 88 l 1,26,-1
 372 88 l 2,27,28
 402 88 402 88 428.5 112.5 c 128,-1,29
 455 137 455 137 472 177 c 0,30,31
 504 249 504 249 517 326 c 1,0,1
219 464 m 2,32,33
 217 451 217 451 217 439.5 c 128,-1,34
 217 428 217 428 222 416 c 0,35,36
 230 392 230 392 288 392 c 2,37,-1
 528 392 l 1,38,39
 539 463 539 463 539 515 c 0,40,41
 539 651 539 651 461 651 c 2,42,-1
 331 651 l 2,43,44
 248 651 248 651 236 573 c 2,45,-1
 219 464 l 2,32,33
EndSplineSet
Substitution2: "'dnom' Denominators in Latin lookup 19 subtable" nine.denominator
Substitution2: "'sups' Superscript lookup 17 subtable" ninesuperior
Substitution2: "'onum' Oldstyle Figures in Latin lookup 15 subtable" nine.oldstyle
Substitution2: "'tnum' Tabular Numbers in Latin lookup 14 subtable" nine.tnum
Substitution2: "'numr' Numerators in Latin lookup 13 subtable" nine.numerator
Substitution2: "'sinf' Scientific Inferiors lookup 11 subtable" nineinferior
Substitution2: "'frac' Diagonal Fractions lookup 5 subtable" nine.numerator
Substitution2: "'smcp' Lowercase to Small Capitals lookup 1 subtable" nine.smcp
EndChar

StartChar: colon
Encoding: 58 58 29
Width: 269
GlyphClass: 2
Flags: W
LayerCount: 2
Fore
SplineSet
121 114 m 2,0,-1
 183 114 l 2,1,2
 205 114 205 114 205 96 c 0,3,4
 205 93 205 93 204 89 c 2,5,-1
 193 23 l 2,6,7
 190 0 190 0 165 0 c 2,8,-1
 103 0 l 2,9,10
 93 0 93 0 87 6.5 c 128,-1,11
 81 13 81 13 82 23 c 2,12,-1
 93 89 l 1,13,14
 96 114 96 114 121 114 c 2,0,-1
187 532 m 2,16,-1
 249 532 l 2,17,18
 271 532 271 532 271 514 c 0,19,20
 271 511 271 511 270 507 c 2,21,-1
 260 441 l 2,22,23
 256 418 256 418 231 418 c 2,24,-1
 169 418 l 2,25,26
 159 418 159 418 153 424 c 128,-1,27
 147 430 147 430 149 441 c 2,28,-1
 159 507 l 2,29,15
 163 532 163 532 187 532 c 2,16,-1
EndSplineSet
EndChar

StartChar: semicolon
Encoding: 59 59 30
Width: 269
GlyphClass: 2
Flags: W
LayerCount: 2
Fore
SplineSet
104 0 m 2,0,1
 94 0 94 0 88 7.5 c 128,-1,2
 82 15 82 15 83 25 c 2,3,-1
 93 88 l 2,4,5
 95 99 95 99 103.5 107 c 128,-1,6
 112 115 112 115 123 115 c 2,7,-1
 183 115 l 2,8,9
 202 115 202 115 202 95 c 0,10,11
 202 92 202 92 202 88 c 2,12,-1
 186 -11 l 2,13,14
 182 -39 182 -39 168 -57 c 0,15,16
 143 -90 143 -90 91 -90 c 0,17,18
 86 -90 86 -90 81 -90 c 2,19,-1
 70 -88 l 1,20,-1
 76 -52 l 1,21,22
 90 -52 90 -52 98.5 -46 c 128,-1,23
 107 -40 107 -40 108.5 -35 c 128,-1,24
 110 -30 110 -30 112 -22 c 2,25,-1
 115 0 l 1,26,-1
 104 0 l 2,0,1
189 533 m 2,27,-1
 251 533 l 2,28,29
 273 533 273 533 273 515 c 0,30,31
 273 512 273 512 272 508 c 2,32,-1
 262 442 l 2,33,34
 258 419 258 419 234 419 c 2,35,-1
 172 419 l 2,36,37
 161 419 161 419 155 425 c 128,-1,38
 149 431 149 431 151 442 c 2,39,-1
 161 508 l 2,40,41
 164 533 164 533 189 533 c 2,27,-1
EndSplineSet
EndChar

StartChar: less
Encoding: 60 60 31
Width: 467
GlyphClass: 2
Flags: W
LayerCount: 2
Fore
SplineSet
95 307 m 1,0,-1
 110 400 l 1,1,-1
 509 558 l 1,2,-1
 495 464 l 1,3,-1
 203 350 l 1,4,-1
 458 228 l 1,5,-1
 443 138 l 1,6,-1
 95 307 l 1,0,-1
EndSplineSet
EndChar

StartChar: equal
Encoding: 61 61 32
Width: 467
GlyphClass: 2
Flags: W
LayerCount: 2
Fore
SplineSet
52 204 m 1,0,-1
 66 290 l 1,1,-1
 493 290 l 1,2,-1
 479 204 l 1,3,-1
 52 204 l 1,0,-1
84 415 m 1,4,-1
 99 501 l 1,5,-1
 526 501 l 1,6,-1
 511 415 l 1,7,-1
 84 415 l 1,4,-1
EndSplineSet
EndChar

StartChar: greater
Encoding: 62 62 33
Width: 468
GlyphClass: 2
Flags: W
LayerCount: 2
Fore
SplineSet
68 138 m 1,0,-1
 84 234 l 1,1,-1
 381 355 l 1,2,-1
 120 472 l 1,3,-1
 135 558 l 1,4,-1
 485 400 l 1,5,-1
 470 307 l 1,6,-1
 68 138 l 1,0,-1
EndSplineSet
EndChar

StartChar: question
Encoding: 63 63 34
Width: 540
GlyphClass: 2
Flags: W
LayerCount: 2
Fore
SplineSet
312 293 m 1,0,-1
 297 195 l 1,1,-1
 211 195 l 1,2,-1
 238 366 l 1,3,4
 282 365 282 365 316 365 c 128,-1,5
 350 365 350 365 382 366.5 c 128,-1,6
 414 368 414 368 446.5 390.5 c 128,-1,7
 479 413 479 413 486 458 c 2,8,-1
 500 546 l 2,9,10
 502 562 502 562 502 574 c 0,11,12
 502 611 502 611 480 631.5 c 128,-1,13
 458 652 458 652 386 652 c 2,14,-1
 121 652 l 1,15,-1
 132 717 l 1,16,17
 139 718 139 718 164.5 722 c 128,-1,18
 190 726 190 726 197 727 c 128,-1,19
 204 728 204 728 226 730.5 c 128,-1,20
 248 733 248 733 256.5 734 c 128,-1,21
 265 735 265 735 284.5 737 c 128,-1,22
 304 739 304 739 316.5 739 c 128,-1,23
 329 739 329 739 343.5 739.5 c 128,-1,24
 358 740 358 740 373.5 740 c 128,-1,25
 389 740 389 740 418 739 c 1,26,27
 515 739 515 739 560 684 c 0,28,29
 595 641 595 641 595 584 c 0,30,31
 595 567 595 567 592 549 c 2,32,-1
 577 453 l 2,33,34
 560 344 560 344 487 310 c 1,35,36
 440 287 440 287 376 287 c 0,37,38
 345 287 345 287 312 293 c 1,0,-1
211 114 m 2,39,-1
 273 114 l 2,40,41
 295 114 295 114 295 96 c 0,42,43
 295 93 295 93 294 89 c 2,44,-1
 283 23 l 2,45,46
 279 0 279 0 255 0 c 2,47,-1
 193 0 l 2,48,49
 183 0 183 0 177 6.5 c 128,-1,50
 171 13 171 13 172 23 c 2,51,-1
 183 89 l 1,52,53
 186 114 186 114 211 114 c 2,39,-1
EndSplineSet
Substitution2: "'smcp' Lowercase to Small Capitals lookup 1 subtable" question.smcp
EndChar

StartChar: at
Encoding: 64 64 35
Width: 875
GlyphClass: 2
Flags: W
LayerCount: 2
Fore
SplineSet
562 61 m 1,0,1
 504 -4 504 -4 409 -4 c 0,2,3
 366 -4 366 -4 335 9 c 128,-1,4
 304 22 304 22 281 54 c 0,5,6
 253 94 253 94 253 175 c 0,7,8
 253 219 253 219 261.5 280 c 128,-1,9
 270 341 270 341 288.5 390 c 128,-1,10
 307 439 307 439 329 467.5 c 128,-1,11
 351 496 351 496 378 514 c 0,12,13
 424 544 424 544 479 544 c 0,14,15
 641 544 641 544 706 481 c 1,16,-1
 649 88 l 1,17,18
 690 88 690 88 711.5 104.5 c 128,-1,19
 733 121 733 121 742 178 c 2,20,-1
 792 515 l 2,21,22
 798 556 798 556 794.5 571.5 c 128,-1,23
 791 587 791 587 788 594.5 c 128,-1,24
 785 602 785 602 778 606.5 c 128,-1,25
 771 611 771 611 766.5 614 c 128,-1,26
 762 617 762 617 752 618 c 0,27,28
 738 620 738 620 720 620 c 2,29,-1
 344 620 l 2,30,31
 241 620 241 620 225 515 c 2,32,-1
 145 14 l 2,33,34
 143 -4 143 -4 143 -17 c 128,-1,35
 143 -30 143 -30 144 -41 c 0,36,37
 147 -65 147 -65 168.5 -81.5 c 128,-1,38
 190 -98 190 -98 231 -98 c 2,39,-1
 617 -98 l 1,40,-1
 607 -155 l 1,41,42
 472 -182 472 -182 315 -182 c 2,43,-1
 218 -182 l 2,44,45
 131 -182 131 -182 89 -125 c 0,46,47
 57 -83 57 -83 57 -23 c 0,48,49
 57 -4 57 -4 60 16 c 2,50,-1
 140 521 l 2,51,52
 170 705 170 705 359 705 c 2,53,-1
 731 705 l 2,54,55
 818 705 818 705 854 654 c 0,56,57
 880 618 880 618 880 559 c 0,58,59
 880 537 880 537 877 512 c 2,60,-1
 825 165 l 2,61,62
 813 82 813 82 771 43 c 0,63,64
 754 27 754 27 722.5 15 c 128,-1,65
 691 3 691 3 649 3 c 2,66,-1
 585 3 l 1,67,-1
 562 61 l 1,0,1
342 257 m 0,68,69
 336 213 336 213 336 177 c 128,-1,70
 336 141 336 141 345 119 c 0,71,72
 361 80 361 80 421 80 c 0,73,74
 475 80 475 80 508.5 99 c 128,-1,75
 542 118 542 118 570 142 c 1,76,-1
 618 446 l 1,77,78
 562 461 562 461 479 461 c 0,79,80
 368 461 368 461 342 257 c 0,68,69
EndSplineSet
Substitution2: "'case' Case-Sensitive Forms lookup 18 subtable" at.alt
Substitution2: "'smcp' Lowercase to Small Capitals lookup 1 subtable" at.smcp
EndChar

StartChar: A
Encoding: 65 65 36
Width: 667
GlyphClass: 2
Flags: W
LayerCount: 2
Fore
SplineSet
42 0 m 1,0,-1
 421 732 l 1,1,-1
 518 732 l 1,2,-1
 654 0 l 1,3,-1
 560 0 l 1,4,-1
 524 193 l 1,5,-1
 243 193 l 1,6,-1
 143 0 l 1,7,-1
 42 0 l 1,0,-1
287 280 m 1,8,-1
 510 280 l 1,9,-1
 453 607 l 1,10,-1
 287 280 l 1,8,-1
EndSplineSet
Substitution2: "'c2sc' Capitals to Small Capitals in Latin lookup 2 subtable" a.smcp
EndChar

StartChar: B
Encoding: 66 66 37
Width: 597
GlyphClass: 2
Flags: W
LayerCount: 2
Fore
SplineSet
478 732 m 2,0,1
 563 732 563 732 603 689 c 1,2,3
 644 643 644 643 644 576 c 0,4,5
 644 556 644 556 643 535 c 1,6,7
 634 468 634 468 602 430 c 128,-1,8
 570 392 570 392 522 380 c 1,9,10
 552 375 552 375 577 330 c 0,11,12
 598 294 598 294 598 237 c 0,13,14
 598 219 598 219 595 200 c 0,15,16
 583 102 583 102 528 51 c 128,-1,17
 473 0 473 0 362 0 c 2,18,-1
 75 0 l 1,19,-1
 191 732 l 1,20,-1
 478 732 l 2,0,1
503 210 m 0,21,22
 506 227 506 227 506 252 c 128,-1,23
 506 277 506 277 491 303 c 0,24,25
 469 341 469 341 415 341 c 2,26,-1
 222 341 l 1,27,-1
 182 88 l 1,28,-1
 375 87 l 2,29,30
 483 87 483 87 503 210 c 0,21,22
553 570 m 0,31,32
 553 606 553 606 532.5 625 c 128,-1,33
 512 644 512 644 463 644 c 2,34,-1
 270 644 l 1,35,-1
 236 427 l 1,36,-1
 427 427 l 2,37,38
 532 427 532 427 550 537 c 0,39,40
 553 555 553 555 553 570 c 0,31,32
EndSplineSet
Substitution2: "'c2sc' Capitals to Small Capitals in Latin lookup 2 subtable" b.smcp
EndChar

StartChar: C
Encoding: 67 67 38
Width: 576
GlyphClass: 2
Flags: W
LayerCount: 2
Fore
SplineSet
309.5 723.5 m 128,-1,1
 355 740 355 740 436 740 c 128,-1,2
 517 740 517 740 656 708 c 1,3,-1
 645 636 l 1,4,5
 531 651 531 651 432 651 c 0,6,7
 422 651 422 651 416 651 c 128,-1,8
 410 651 410 651 402.5 651 c 128,-1,9
 395 651 395 651 388 650.5 c 128,-1,10
 381 650 381 650 367.5 648.5 c 128,-1,11
 354 647 354 647 345 642.5 c 128,-1,12
 336 638 336 638 322.5 631.5 c 128,-1,13
 309 625 309 625 299 614 c 128,-1,14
 289 603 289 603 277 588.5 c 128,-1,15
 265 574 265 574 255.5 552.5 c 128,-1,16
 246 531 246 531 236 504 c 0,17,18
 217 453 217 453 204.5 378.5 c 128,-1,19
 192 304 192 304 192 256 c 0,20,21
 192 91 192 91 316 83 c 0,22,23
 334 82 334 82 383.5 82 c 128,-1,24
 433 82 433 82 561 91 c 1,25,-1
 551 18 l 1,26,27
 466 -6 466 -6 311 -6 c 0,28,29
 191 -6 191 -6 143 75 c 0,30,31
 101 145 101 145 101 256 c 0,32,33
 101 366 101 366 138 501 c 0,34,35
 172 624 172 624 232 679 c 0,36,0
 264 707 264 707 309.5 723.5 c 128,-1,1
EndSplineSet
Substitution2: "'c2sc' Capitals to Small Capitals in Latin lookup 2 subtable" c.smcp
EndChar

StartChar: D
Encoding: 68 68 39
Width: 664
GlyphClass: 2
Flags: W
LayerCount: 2
Fore
SplineSet
470 732 m 0,0,1
 578 732 578 732 626 665 c 1,2,3
 674 600 674 600 679 516 c 0,4,5
 681 490 681 490 681 470 c 0,6,7
 681 413 681 413 671 358 c 0,8,9
 642 184 642 184 566.5 92 c 128,-1,10
 491 0 491 0 357 0 c 2,11,-1
 75 0 l 1,12,-1
 191 731 l 2,13,14
 191 732 191 732 470 732 c 0,0,1
366 90 m 2,15,16
 423 90 423 90 469 129 c 0,17,18
 553 200 553 200 580 364 c 0,19,20
 590 427 590 427 590 483 c 0,21,22
 590 645 590 645 452 645 c 2,23,-1
 269 645 l 1,24,-1
 181 90 l 1,25,-1
 366 90 l 2,15,16
EndSplineSet
Substitution2: "'c2sc' Capitals to Small Capitals in Latin lookup 2 subtable" d.smcp
EndChar

StartChar: E
Encoding: 69 69 40
Width: 565
GlyphClass: 2
Flags: W
LayerCount: 2
Fore
SplineSet
313 732 m 0,0,1
 318 732 318 732 468.5 725 c 128,-1,2
 619 718 619 718 636 716 c 1,3,-1
 625 642 l 1,4,-1
 318 642 l 2,5,6
 274 642 274 642 262 607 c 0,7,8
 259 598 259 598 257 586 c 2,9,-1
 229 410 l 1,10,-1
 545 400 l 1,11,-1
 533 326 l 1,12,-1
 215 316 l 1,13,-1
 186 139 l 1,14,15
 181 101 181 101 201 93 c 0,16,17
 216 87 216 87 241 87 c 2,18,-1
 538 87 l 1,19,-1
 525 14 l 1,20,-1
 217 -3 l 2,21,22
 212 -3 212 -3 199 -3 c 128,-1,23
 186 -3 186 -3 164 3 c 0,24,25
 91 23 91 23 91 102 c 0,26,27
 91 116 91 116 93 130 c 2,28,-1
 167 598 l 2,29,30
 189 732 189 732 313 732 c 0,0,1
EndSplineSet
Substitution2: "'c2sc' Capitals to Small Capitals in Latin lookup 2 subtable" e.smcp
EndChar

StartChar: F
Encoding: 70 70 41
Width: 566
GlyphClass: 2
Flags: W
LayerCount: 2
Fore
SplineSet
315 732 m 0,0,1
 320 732 320 732 470 725 c 128,-1,2
 620 718 620 718 638 716 c 1,3,-1
 626 642 l 1,4,-1
 320 642 l 2,5,6
 275 642 275 642 263 607 c 0,7,8
 260 598 260 598 259 586 c 2,9,-1
 231 410 l 1,10,-1
 546 399 l 1,11,-1
 535 325 l 1,12,-1
 216 315 l 1,13,-1
 166 0 l 1,14,-1
 74 0 l 1,15,-1
 168 594 l 2,16,17
 190 732 190 732 315 732 c 0,0,1
EndSplineSet
Substitution2: "'c2sc' Capitals to Small Capitals in Latin lookup 2 subtable" f.smcp
EndChar

StartChar: G
Encoding: 71 71 42
Width: 610
GlyphClass: 2
Flags: W
LayerCount: 2
Fore
SplineSet
422 739 m 0,0,1
 514 739 514 739 656 709 c 1,2,-1
 646 636 l 1,3,4
 557 650 557 650 413 652 c 0,5,6
 350 652 350 652 318 629 c 1,7,8
 279 599 279 599 255 547 c 1,9,10
 224 476 224 476 211.5 389.5 c 128,-1,11
 199 303 199 303 199 269 c 128,-1,12
 199 235 199 235 200 219 c 0,13,14
 204 157 204 157 234 120 c 128,-1,15
 264 83 264 83 317 83 c 0,16,17
 318 83 318 83 319 83 c 0,18,19
 352 83 352 83 396.5 96.5 c 128,-1,20
 441 110 441 110 468 123 c 2,21,-1
 495 137 l 1,22,-1
 526 311 l 1,23,-1
 375 311 l 1,24,-1
 385 372 l 1,25,26
 468 396 468 396 564 396 c 0,27,28
 595 396 595 396 631 394 c 1,29,-1
 568 0 l 1,30,-1
 499 0 l 1,31,-1
 484 56 l 1,32,33
 447 22 447 22 374 3 c 0,34,35
 273 -23 273 -23 205 16 c 0,36,37
 133 57 133 57 112 164 c 0,38,39
 103 209 103 209 103 235 c 128,-1,40
 103 261 103 261 103.5 289.5 c 128,-1,41
 104 318 104 318 115 383 c 128,-1,42
 126 448 126 448 141 502 c 128,-1,43
 156 556 156 556 179.5 603 c 128,-1,44
 203 650 203 650 235 678 c 0,45,46
 302 739 302 739 415 739 c 0,47,48
 419 739 419 739 422 739 c 0,0,1
EndSplineSet
Substitution2: "'c2sc' Capitals to Small Capitals in Latin lookup 2 subtable" g.smcp
EndChar

StartChar: H
Encoding: 72 72 43
Width: 638
GlyphClass: 2
Flags: W
LayerCount: 2
Fore
SplineSet
79 0 m 1,0,-1
 195 732 l 1,1,-1
 287 732 l 1,2,-1
 233 398 l 1,3,-1
 556 398 l 1,4,-1
 610 732 l 1,5,-1
 702 732 l 1,6,-1
 586 0 l 1,7,-1
 494 0 l 1,8,-1
 544 310 l 1,9,-1
 221 310 l 1,10,-1
 171 0 l 1,11,-1
 79 0 l 1,0,-1
EndSplineSet
Substitution2: "'c2sc' Capitals to Small Capitals in Latin lookup 2 subtable" h.smcp
EndChar

StartChar: I
Encoding: 73 73 44
Width: 233
GlyphClass: 2
Flags: W
LayerCount: 2
Fore
SplineSet
83 0 m 1,0,-1
 199 732 l 1,1,-1
 291 732 l 1,2,-1
 175 0 l 1,3,-1
 83 0 l 1,0,-1
EndSplineSet
Substitution2: "'c2sc' Capitals to Small Capitals in Latin lookup 2 subtable" i.smcp
EndChar

StartChar: J
Encoding: 74 74 45
Width: 359
GlyphClass: 2
Flags: W
LayerCount: 2
Fore
SplineSet
50 91 m 1,0,1
 107 79 107 79 125.5 79 c 128,-1,2
 144 79 144 79 153.5 80.5 c 128,-1,3
 163 82 163 82 180 88 c 128,-1,4
 197 94 197 94 207 106 c 0,5,6
 232 134 232 134 239 182 c 2,7,-1
 326 732 l 1,8,-1
 418 732 l 1,9,-1
 328 165 l 2,10,11
 316 84 316 84 287 47 c 0,12,13
 244 -6 244 -6 148 -6 c 0,14,15
 74 -6 74 -6 36 22 c 1,16,-1
 50 91 l 1,0,1
EndSplineSet
Substitution2: "'c2sc' Capitals to Small Capitals in Latin lookup 2 subtable" j.smcp
EndChar

StartChar: K
Encoding: 75 75 46
Width: 585
GlyphClass: 2
Flags: W
LayerCount: 2
Fore
SplineSet
75 0 m 1,0,-1
 191 732 l 1,1,-1
 281 732 l 1,2,-1
 230 410 l 1,3,-1
 309 410 l 1,4,-1
 572 732 l 1,5,-1
 685 732 l 1,6,-1
 388 360 l 1,7,-1
 569 0 l 1,8,-1
 460 0 l 1,9,-1
 302 322 l 1,10,-1
 217 322 l 1,11,-1
 166 0 l 1,12,-1
 75 0 l 1,0,-1
EndSplineSet
Substitution2: "'c2sc' Capitals to Small Capitals in Latin lookup 2 subtable" k.smcp
EndChar

StartChar: L
Encoding: 76 76 47
Width: 533
GlyphClass: 2
Flags: W
LayerCount: 2
Fore
SplineSet
243 89 m 2,0,-1
 534 89 l 1,1,-1
 520 0 l 1,2,-1
 214 0 l 2,3,4
 155 0 155 0 123.5 28 c 128,-1,5
 92 56 92 56 92 101 c 0,6,7
 92 115 92 115 94 130 c 2,8,-1
 191 732 l 1,9,-1
 283 732 l 1,10,-1
 188 141 l 2,11,12
 182 103 182 103 202 95 c 0,13,14
 217 89 217 89 243 89 c 2,0,-1
EndSplineSet
Substitution2: "'c2sc' Capitals to Small Capitals in Latin lookup 2 subtable" l.smcp
EndChar

StartChar: M
Encoding: 77 77 48
Width: 809
GlyphClass: 2
Flags: W
LayerCount: 2
Fore
SplineSet
65 0 m 1,0,-1
 234 732 l 1,1,-1
 356 732 l 1,2,-1
 442 153 l 1,3,-1
 706 732 l 1,4,-1
 833 732 l 1,5,-1
 776 0 l 1,6,-1
 685 0 l 1,7,-1
 732 569 l 1,8,-1
 471 0 l 1,9,-1
 372 0 l 1,10,-1
 288 568 l 1,11,-1
 157 0 l 1,12,-1
 65 0 l 1,0,-1
EndSplineSet
AlternateSubs2: "'salt' Stylistic Alternatives in Latin lookup 16 subtable" M.salt
Substitution2: "'c2sc' Capitals to Small Capitals in Latin lookup 2 subtable" m.smcp
EndChar

StartChar: N
Encoding: 78 78 49
Width: 662
GlyphClass: 2
Flags: W
LayerCount: 2
Fore
SplineSet
75 0 m 1,0,-1
 191 732 l 1,1,-1
 281 732 l 1,2,-1
 541 170 l 1,3,-1
 630 732 l 1,4,-1
 722 732 l 1,5,-1
 606 0 l 1,6,-1
 517 0 l 1,7,-1
 256 560 l 1,8,-1
 168 0 l 1,9,-1
 75 0 l 1,0,-1
EndSplineSet
AlternateSubs2: "'salt' Stylistic Alternatives in Latin lookup 16 subtable" N.salt
Substitution2: "'c2sc' Capitals to Small Capitals in Latin lookup 2 subtable" n.smcp
EndChar

StartChar: O
Encoding: 79 79 50
Width: 666
GlyphClass: 2
Flags: W
LayerCount: 2
Fore
SplineSet
387 735 m 128,-1,1
 413 737 413 737 451.5 737 c 128,-1,2
 490 737 490 737 520 733.5 c 128,-1,3
 550 730 550 730 580.5 720 c 128,-1,4
 611 710 611 710 631 692 c 0,5,6
 678 652 678 652 690 578 c 0,7,8
 696 544 696 544 696 517.5 c 128,-1,9
 696 491 696 491 695.5 459 c 128,-1,10
 695 427 695 427 684 358 c 128,-1,11
 673 289 673 289 658.5 235.5 c 128,-1,12
 644 182 644 182 626.5 144 c 128,-1,13
 609 106 609 106 585.5 79.5 c 128,-1,14
 562 53 562 53 538 36.5 c 128,-1,15
 514 20 514 20 482 11 c 0,16,17
 397 -13 397 -13 280 -1 c 0,18,19
 208 6 208 6 169 36 c 0,20,21
 120 75 120 75 106 146 c 0,22,23
 100 181 100 181 100 207.5 c 128,-1,24
 100 234 100 234 100.5 264.5 c 128,-1,25
 101 295 101 295 111.5 361.5 c 128,-1,26
 122 428 122 428 134.5 479 c 128,-1,27
 147 530 147 530 163 567.5 c 128,-1,28
 179 605 179 605 196 633 c 128,-1,29
 213 661 213 661 236 679.5 c 128,-1,30
 259 698 259 698 280 709.5 c 128,-1,31
 301 721 301 721 331 727 c 128,-1,0
 361 733 361 733 387 735 c 128,-1,1
218 437 m 0,32,33
 191 308 191 308 191 223 c 0,34,35
 191 129 191 129 244 103 c 0,36,37
 280 85 280 85 344 85 c 128,-1,38
 408 85 408 85 443 95 c 128,-1,39
 478 105 478 105 509 135 c 0,40,41
 565 189 565 189 592 361 c 0,42,43
 605 444 605 444 605 491 c 128,-1,44
 605 538 605 538 599.5 559.5 c 128,-1,45
 594 581 594 581 588 595.5 c 128,-1,46
 582 610 582 610 569 620 c 128,-1,47
 556 630 556 630 545 635.5 c 128,-1,48
 534 641 534 641 515 644 c 0,49,50
 487 648 487 648 454 648 c 128,-1,51
 421 648 421 648 407.5 647.5 c 128,-1,52
 394 647 394 647 375 645 c 128,-1,53
 356 643 356 643 344.5 639 c 128,-1,54
 333 635 333 635 317.5 628 c 128,-1,55
 302 621 302 621 292.5 610 c 128,-1,56
 283 599 283 599 271 583.5 c 128,-1,57
 259 568 259 568 251 547 c 0,58,59
 229 490 229 490 218 437 c 0,32,33
EndSplineSet
Substitution2: "'c2sc' Capitals to Small Capitals in Latin lookup 2 subtable" o.smcp
EndChar

StartChar: P
Encoding: 80 80 51
Width: 595
GlyphClass: 2
Flags: W
LayerCount: 2
Fore
SplineSet
492 732 m 2,0,1
 536 732 536 732 564 717.5 c 128,-1,2
 592 703 592 703 607 686 c 0,3,4
 645 641 645 641 645 568 c 0,5,6
 645 542 645 542 640 506 c 128,-1,7
 635 470 635 470 625.5 437 c 128,-1,8
 616 404 616 404 604.5 381.5 c 128,-1,9
 593 359 593 359 578.5 342 c 128,-1,10
 564 325 564 325 549 316 c 128,-1,11
 534 307 534 307 517.5 300.5 c 128,-1,12
 501 294 501 294 485 293 c 128,-1,13
 469 292 469 292 453 290.5 c 128,-1,14
 437 289 437 289 415.5 290 c 128,-1,15
 394 291 394 291 305 298.5 c 128,-1,16
 216 306 216 306 212 308 c 1,17,-1
 162 0 l 1,18,-1
 70 0 l 1,19,-1
 186 732 l 1,20,-1
 492 732 l 2,0,1
548 516 m 1,21,22
 552 556 552 556 552 572.5 c 128,-1,23
 552 589 552 589 545.5 602.5 c 128,-1,24
 539 616 539 616 532.5 624.5 c 128,-1,25
 526 633 526 633 515 637 c 0,26,27
 497 644 497 644 475 644 c 2,28,-1
 264 644 l 1,29,-1
 222 378 l 1,30,-1
 432 378 l 2,31,32
 503 378 503 378 530 444 c 0,33,34
 541 472 541 472 548 516 c 1,21,22
EndSplineSet
Substitution2: "'c2sc' Capitals to Small Capitals in Latin lookup 2 subtable" p.smcp
EndChar

StartChar: Q
Encoding: 81 81 52
Width: 670
GlyphClass: 2
Flags: W
LayerCount: 2
Fore
SplineSet
452 737 m 0,0,1
 488 737 488 737 515 734 c 128,-1,2
 542 731 542 731 569.5 724 c 128,-1,3
 597 717 597 717 616.5 704 c 128,-1,4
 636 691 636 691 654 672 c 1,5,6
 685 636 685 636 696 556 c 0,7,8
 700 531 700 531 700 507 c 0,9,10
 700 439 700 439 688.5 363.5 c 128,-1,11
 677 288 677 288 662 235 c 128,-1,12
 647 182 647 182 630 144 c 128,-1,13
 613 106 613 106 589 79 c 128,-1,14
 565 52 565 52 541.5 36 c 128,-1,15
 518 20 518 20 485 11 c 0,16,17
 409 -10 409 -10 298 -2 c 0,18,19
 241 2 241 2 213.5 14 c 128,-1,20
 186 26 186 26 168 40.5 c 128,-1,21
 150 55 150 55 138 74 c 0,22,23
 103 131 103 131 103 226 c 0,24,25
 103 339 103 339 138 480 c 0,26,27
 160 568 160 568 200 634 c 0,28,29
 228 680 228 680 283 710 c 0,30,31
 334 737 334 737 452 737 c 0,0,1
221 437 m 0,32,33
 194 308 194 308 194 223 c 0,34,35
 194 129 194 129 247 103 c 0,36,37
 284 85 284 85 347.5 85 c 128,-1,38
 411 85 411 85 446.5 95 c 128,-1,39
 482 105 482 105 512 135 c 0,40,41
 568 189 568 189 595 361 c 0,42,43
 608 444 608 444 608 491 c 128,-1,44
 608 538 608 538 602.5 559.5 c 128,-1,45
 597 581 597 581 591 595.5 c 128,-1,46
 585 610 585 610 572 620 c 128,-1,47
 559 630 559 630 548.5 635.5 c 128,-1,48
 538 641 538 641 518 644 c 0,49,50
 491 648 491 648 457.5 648 c 128,-1,51
 424 648 424 648 410.5 647.5 c 128,-1,52
 397 647 397 647 378 645 c 128,-1,53
 359 643 359 643 347.5 639 c 128,-1,54
 336 635 336 635 321 628 c 128,-1,55
 306 621 306 621 296 610 c 128,-1,56
 286 599 286 599 274.5 583.5 c 128,-1,57
 263 568 263 568 254 547 c 0,58,59
 232 490 232 490 221 437 c 0,32,33
364 -33 m 1,60,61
 400 -70 400 -70 454 -70 c 0,62,63
 483 -70 483 -70 527 -55 c 1,64,-1
 513 -144 l 1,65,66
 488 -153 488 -153 470 -153 c 128,-1,67
 452 -153 452 -153 430 -151.5 c 128,-1,68
 408 -150 408 -150 376.5 -138.5 c 128,-1,69
 345 -127 345 -127 324 -99 c 128,-1,70
 303 -71 303 -71 305 -33 c 1,71,-1
 364 -33 l 1,60,61
EndSplineSet
Substitution2: "'c2sc' Capitals to Small Capitals in Latin lookup 2 subtable" q.smcp
EndChar

StartChar: R
Encoding: 82 82 53
Width: 608
GlyphClass: 2
Flags: W
LayerCount: 2
Fore
SplineSet
498 732 m 2,0,1
 573 732 573 732 613 679 c 0,2,3
 643 638 643 638 643 561 c 0,4,5
 643 453 643 453 605 383 c 1,6,7
 569 314 569 314 501 301 c 0,8,9
 493 300 493 300 483 298 c 1,10,-1
 588 0 l 1,11,-1
 486 0 l 1,12,-1
 391 290 l 1,13,-1
 210 303 l 1,14,-1
 162 0 l 1,15,-1
 70 0 l 1,16,-1
 186 732 l 1,17,-1
 498 732 l 2,0,1
533 448 m 0,18,19
 543 474 543 474 546 503.5 c 128,-1,20
 549 533 549 533 549 556.5 c 128,-1,21
 549 580 549 580 543 603.5 c 128,-1,22
 537 627 537 627 522.5 635.5 c 128,-1,23
 508 644 508 644 480 644 c 2,24,-1
 265 644 l 1,25,-1
 223 379 l 1,26,-1
 434 379 l 2,27,28
 506 379 506 379 533 448 c 0,18,19
EndSplineSet
Substitution2: "'c2sc' Capitals to Small Capitals in Latin lookup 2 subtable" r.smcp
EndChar

StartChar: S
Encoding: 83 83 54
Width: 573
GlyphClass: 2
Flags: W
LayerCount: 2
Fore
SplineSet
607 640 m 1,0,-1
 362 649 l 2,1,2
 353 649 353 649 346 649 c 0,3,4
 297 649 297 649 268.5 632 c 128,-1,5
 240 615 240 615 231 554 c 2,6,-1
 222 496 l 2,7,8
 216 460 216 460 219.5 447 c 128,-1,9
 223 434 223 434 226 427.5 c 128,-1,10
 229 421 229 421 235.5 417 c 128,-1,11
 242 413 242 413 247 410.5 c 128,-1,12
 252 408 252 408 262 407 c 0,13,14
 277 406 277 406 289.5 406 c 128,-1,15
 302 406 302 406 304 406 c 2,16,-1
 434 406 l 2,17,18
 479 406 479 406 510 389.5 c 128,-1,19
 541 373 541 373 553 347 c 0,20,21
 572 308 572 308 572 277 c 128,-1,22
 572 246 572 246 568 228 c 1,23,-1
 559 160 l 1,24,25
 537 3 537 3 365 -7 c 0,26,27
 348 -8 348 -8 307 -8 c 128,-1,28
 266 -8 266 -8 189 0.5 c 128,-1,29
 112 9 112 9 77 18 c 1,30,-1
 88 91 l 1,31,32
 164 81 164 81 335 81 c 0,33,34
 454 81 454 81 466 164 c 1,35,-1
 476 224 l 1,36,37
 480 241 480 241 480 258 c 128,-1,38
 480 275 480 275 474 288 c 0,39,40
 462 314 462 314 411 314 c 2,41,-1
 283 314 l 2,42,43
 125 314 125 314 125 448 c 0,44,45
 125 469 125 469 129 492 c 2,46,-1
 139 561 l 2,47,48
 156 673 156 673 221 709 c 0,49,50
 274 738 274 738 351 738 c 0,51,52
 405 738 405 738 490 729.5 c 128,-1,53
 575 721 575 721 618 713 c 1,54,-1
 607 640 l 1,0,-1
EndSplineSet
Substitution2: "'c2sc' Capitals to Small Capitals in Latin lookup 2 subtable" s.smcp
EndChar

StartChar: T
Encoding: 84 84 55
Width: 581
GlyphClass: 2
Flags: W
LayerCount: 2
Fore
SplineSet
134 643 m 1,0,-1
 149 732 l 1,1,-1
 666 732 l 1,2,-1
 651 643 l 1,3,-1
 436 643 l 1,4,-1
 334 0 l 1,5,-1
 242 0 l 1,6,-1
 344 643 l 1,7,-1
 134 643 l 1,0,-1
EndSplineSet
Substitution2: "'c2sc' Capitals to Small Capitals in Latin lookup 2 subtable" t.smcp
EndChar

StartChar: U
Encoding: 85 85 56
Width: 655
GlyphClass: 2
Flags: W
LayerCount: 2
Fore
SplineSet
215 305 m 1,0,1
 207 246 207 246 207 223.5 c 128,-1,2
 207 201 207 201 207 196 c 0,3,4
 209 116 209 116 273 94 c 0,5,6
 301 84 301 84 346 84 c 0,7,8
 440 84 440 84 488 133.5 c 128,-1,9
 536 183 536 183 555 305 c 2,10,-1
 622 732 l 1,11,-1
 715 732 l 1,12,-1
 649 300 l 1,13,14
 620 120 620 120 536 53 c 0,15,16
 464 -5 464 -5 337 -5 c 0,17,18
 179 -5 179 -5 136 96 c 0,19,20
 113 148 113 148 113 203.5 c 128,-1,21
 113 259 113 259 122 309 c 1,22,-1
 189 732 l 1,23,-1
 282 732 l 1,24,-1
 215 305 l 1,0,1
EndSplineSet
Substitution2: "'c2sc' Capitals to Small Capitals in Latin lookup 2 subtable" u.smcp
EndChar

StartChar: V
Encoding: 86 86 57
Width: 674
GlyphClass: 2
Flags: W
LayerCount: 2
Fore
SplineSet
147 732 m 1,0,-1
 244 732 l 1,1,-1
 348 137 l 1,2,-1
 652 732 l 1,3,-1
 756 732 l 1,4,-1
 378 0 l 1,5,-1
 280 0 l 1,6,-1
 147 732 l 1,0,-1
EndSplineSet
Substitution2: "'c2sc' Capitals to Small Capitals in Latin lookup 2 subtable" v.smcp
EndChar

StartChar: W
Encoding: 87 87 58
Width: 1004
GlyphClass: 2
Flags: W
LayerCount: 2
Fore
SplineSet
147 732 m 1,0,-1
 241 732 l 1,1,-1
 347 140 l 1,2,-1
 647 732 l 1,3,-1
 749 732 l 1,4,-1
 629 494 l 1,5,-1
 686 135 l 1,6,-1
 987 732 l 1,7,-1
 1086 732 l 1,8,-1
 715 0 l 1,9,-1
 618 0 l 1,10,-1
 561 354 l 1,11,-1
 380 0 l 1,12,-1
 280 0 l 1,13,-1
 147 732 l 1,0,-1
EndSplineSet
Substitution2: "'c2sc' Capitals to Small Capitals in Latin lookup 2 subtable" w.smcp
EndChar

StartChar: X
Encoding: 88 88 59
Width: 612
GlyphClass: 2
Flags: W
LayerCount: 2
Fore
SplineSet
36 0 m 1,0,-1
 311 367 l 1,1,-1
 150 732 l 1,2,-1
 248 732 l 1,3,-1
 373 444 l 1,4,-1
 588 732 l 1,5,-1
 696 732 l 1,6,-1
 413 353 l 1,7,-1
 569 0 l 1,8,-1
 470 0 l 1,9,-1
 351 276 l 1,10,-1
 144 0 l 1,11,-1
 36 0 l 1,0,-1
EndSplineSet
AlternateSubs2: "'salt' Stylistic Alternatives in Latin lookup 16 subtable" X.salt
Substitution2: "'c2sc' Capitals to Small Capitals in Latin lookup 2 subtable" x.smcp
EndChar

StartChar: Y
Encoding: 89 89 60
Width: 637
GlyphClass: 2
Flags: W
LayerCount: 2
Fore
SplineSet
147 732 m 1,0,-1
 245 732 l 1,1,-1
 361 360 l 1,2,-1
 611 732 l 1,3,-1
 719 732 l 1,4,-1
 393 251 l 1,5,-1
 353 0 l 1,6,-1
 261 0 l 1,7,-1
 301 251 l 1,8,-1
 147 732 l 1,0,-1
EndSplineSet
Substitution2: "'c2sc' Capitals to Small Capitals in Latin lookup 2 subtable" y.smcp
EndChar

StartChar: Z
Encoding: 90 90 61
Width: 562
GlyphClass: 2
Flags: W
LayerCount: 2
Fore
SplineSet
33 0 m 1,0,-1
 47 89 l 1,1,-1
 513 643 l 1,2,-1
 134 643 l 1,3,-1
 149 732 l 1,4,-1
 645 732 l 1,5,-1
 630 643 l 1,6,-1
 167 89 l 1,7,-1
 543 89 l 1,8,-1
 529 0 l 1,9,-1
 33 0 l 1,0,-1
EndSplineSet
Substitution2: "'c2sc' Capitals to Small Capitals in Latin lookup 2 subtable" z.smcp
EndChar

StartChar: bracketleft
Encoding: 91 91 62
Width: 324
GlyphClass: 2
Flags: W
LayerCount: 2
Fore
SplineSet
359 833 m 2,0,-1
 439 833 l 1,1,-1
 425 747 l 1,2,-1
 353 747 l 2,3,4
 322 747 322 747 304 730 c 128,-1,5
 286 713 286 713 278 667 c 2,6,-1
 166 -38 l 2,7,8
 162 -68 162 -68 161 -86.5 c 128,-1,9
 160 -105 160 -105 167 -116 c 0,10,11
 178 -133 178 -133 213 -133 c 2,12,-1
 286 -133 l 1,13,-1
 272 -219 l 1,14,-1
 190 -219 l 2,15,16
 153 -219 153 -219 127.5 -205.5 c 128,-1,17
 102 -192 102 -192 91 -173 c 1,18,19
 69 -139 69 -139 69 -85 c 0,20,21
 69 -63 69 -63 74 -35 c 2,22,-1
 187 676 l 2,23,24
 199 750 199 750 231 789 c 0,25,26
 268 833 268 833 359 833 c 2,0,-1
EndSplineSet
EndChar

StartChar: backslash
Encoding: 92 92 63
Width: 406
GlyphClass: 2
Flags: W
LayerCount: 2
Fore
SplineSet
140 770 m 1,0,-1
 229 770 l 1,1,-1
 377 -72 l 1,2,-1
 288 -72 l 1,3,-1
 140 770 l 1,0,-1
EndSplineSet
EndChar

StartChar: bracketright
Encoding: 93 93 64
Width: 324
GlyphClass: 2
Flags: W
LayerCount: 2
Fore
SplineSet
233 833 m 2,0,1
 354 833 354 833 354 697 c 0,2,3
 354 676 354 676 351 652 c 2,4,-1
 240 -62 l 2,5,6
 228 -133 228 -133 197 -173 c 0,7,8
 161 -219 161 -219 69 -219 c 2,9,-1
 -14 -219 l 1,10,-1
 -1 -133 l 1,11,-1
 72 -133 l 2,12,13
 103 -133 103 -133 121 -116 c 128,-1,14
 139 -99 139 -99 147 -53 c 2,15,-1
 259 652 l 2,16,17
 263 681 263 681 263 700.5 c 128,-1,18
 263 720 263 720 258 729 c 0,19,20
 248 747 248 747 211 747 c 2,21,-1
 139 747 l 1,22,-1
 153 833 l 1,23,-1
 233 833 l 2,0,1
EndSplineSet
EndChar

StartChar: asciicircum
Encoding: 94 94 65
Width: 389
GlyphClass: 2
Flags: W
LayerCount: 2
Fore
SplineSet
131 531 m 1,0,-1
 266 663 l 1,1,-1
 346 663 l 1,2,-1
 427 531 l 1,3,-1
 352 531 l 1,4,-1
 303 607 l 1,5,-1
 222 531 l 1,6,-1
 131 531 l 1,0,-1
EndSplineSet
EndChar

StartChar: underscore
Encoding: 95 95 66
Width: 673
GlyphClass: 2
Flags: W
LayerCount: 2
Fore
SplineSet
20 -1 m 1,0,-1
 34 85 l 1,1,-1
 668 85 l 1,2,-1
 654 -1 l 1,3,-1
 20 -1 l 1,0,-1
EndSplineSet
EndChar

StartChar: grave
Encoding: 96 96 67
Width: 252
GlyphClass: 2
Flags: W
LayerCount: 2
Fore
SplineSet
124 666 m 1,0,-1
 220 666 l 1,1,-1
 318 531 l 1,2,-1
 243 531 l 1,3,-1
 124 666 l 1,0,-1
EndSplineSet
Substitution2: "'smcp' Lowercase to Small Capitals lookup 1 subtable" grave.smcp
EndChar

StartChar: a
Encoding: 97 97 68
Width: 540
GlyphClass: 2
Flags: W
LayerCount: 2
Fore
SplineSet
258 532 m 128,-1,1
 281 538 281 538 304 540.5 c 128,-1,2
 327 543 327 543 359.5 543 c 128,-1,3
 392 543 392 543 461 528 c 128,-1,4
 530 513 530 513 566 479 c 1,5,-1
 496 0 l 1,6,-1
 428 0 l 1,7,-1
 414 59 l 1,8,9
 386 36 386 36 335 14.5 c 128,-1,10
 284 -7 284 -7 241.5 -7 c 128,-1,11
 199 -7 199 -7 172.5 0.5 c 128,-1,12
 146 8 146 8 122.5 27.5 c 128,-1,13
 99 47 99 47 88 80 c 0,14,15
 74 124 74 124 74 175 c 128,-1,16
 74 226 74 226 85 286 c 128,-1,17
 96 346 96 346 115.5 392.5 c 128,-1,18
 135 439 135 439 156 465.5 c 128,-1,19
 177 492 177 492 206 509 c 128,-1,0
 235 526 235 526 258 532 c 128,-1,1
194 343.5 m 128,-1,21
 182 307 182 307 174.5 259 c 128,-1,22
 167 211 167 211 167 176.5 c 128,-1,23
 167 142 167 142 176 120 c 0,24,25
 193 79 193 79 245.5 79 c 128,-1,26
 298 79 298 79 334 90.5 c 128,-1,27
 370 102 370 102 421 128 c 1,28,-1
 469 443 l 1,29,30
 405 461 405 461 369.5 461 c 128,-1,31
 334 461 334 461 313 457 c 128,-1,32
 292 453 292 453 279.5 449 c 128,-1,33
 267 445 267 445 248.5 432.5 c 128,-1,34
 230 420 230 420 218 400 c 128,-1,20
 206 380 206 380 194 343.5 c 128,-1,21
EndSplineSet
AlternateSubs2: "'salt' Stylistic Alternatives in Latin lookup 16 subtable" a.salt
Substitution2: "'smcp' Lowercase to Small Capitals lookup 1 subtable" a.smcp
EndChar

StartChar: b
Encoding: 98 98 69
Width: 554
GlyphClass: 2
Flags: W
LayerCount: 2
Fore
SplineSet
414 539 m 0,0,1
 560 539 560 539 560 360 c 0,2,3
 560 280 560 280 534 177 c 0,4,5
 512 88 512 88 470 44 c 0,6,7
 423 -6 423 -6 345 -6 c 0,8,9
 294 -6 294 -6 236 16.5 c 128,-1,10
 178 39 178 39 156 58 c 1,11,-1
 126 0 l 1,12,-1
 56 0 l 1,13,-1
 180 785 l 1,14,-1
 270 785 l 1,15,-1
 226 500 l 1,16,17
 271 518 271 518 324 528.5 c 128,-1,18
 377 539 377 539 414 539 c 0,0,1
468 371 m 0,19,20
 468 455 468 455 395 455 c 0,21,22
 307 455 307 455 216 431 c 1,23,-1
 167 123 l 1,24,25
 255 80 255 80 337 80 c 0,26,27
 387 80 387 80 415.5 125 c 128,-1,28
 444 170 444 170 456 250 c 128,-1,29
 468 330 468 330 468 371 c 0,19,20
EndSplineSet
AlternateSubs2: "'salt' Stylistic Alternatives in Latin lookup 16 subtable" b.salt
Substitution2: "'smcp' Lowercase to Small Capitals lookup 1 subtable" b.smcp
EndChar

StartChar: c
Encoding: 99 99 70
Width: 494
GlyphClass: 2
Flags: W
LayerCount: 2
Fore
SplineSet
248.5 534 m 128,-1,1
 271 538 271 538 307 538 c 128,-1,2
 343 538 343 538 411.5 529.5 c 128,-1,3
 480 521 480 521 531 509 c 1,4,-1
 522 446 l 1,5,6
 396 454 396 454 340.5 454 c 128,-1,7
 285 454 285 454 273 452 c 128,-1,8
 261 450 261 450 245.5 440 c 128,-1,9
 230 430 230 430 220 409 c 1,10,11
 195 362 195 362 177 262 c 1,12,13
 168 203 168 203 168 169 c 128,-1,14
 168 135 168 135 178 115 c 0,15,16
 197 78 197 78 242 78 c 0,17,18
 329 78 329 78 436 86 c 1,19,-1
 472 88 l 1,20,-1
 462 24 l 1,21,22
 361 -6 361 -6 239 -6 c 0,23,24
 232 -6 232 -6 226 -6 c 0,25,26
 143 -5 143 -5 102 61 c 0,27,28
 77 103 77 103 77 160 c 128,-1,29
 77 217 77 217 87.5 279.5 c 128,-1,30
 98 342 98 342 116 392.5 c 128,-1,31
 134 443 134 443 153 471 c 128,-1,32
 172 499 172 499 199 514.5 c 128,-1,0
 226 530 226 530 248.5 534 c 128,-1,1
EndSplineSet
Substitution2: "'smcp' Lowercase to Small Capitals lookup 1 subtable" c.smcp
EndChar

StartChar: d
Encoding: 100 100 71
Width: 551
GlyphClass: 2
Flags: W
LayerCount: 2
Fore
SplineSet
253 533.5 m 128,-1,1
 277 539 277 539 309 539 c 128,-1,2
 341 539 341 539 393.5 528.5 c 128,-1,3
 446 518 446 518 485 500 c 1,4,-1
 531 785 l 1,5,-1
 621 785 l 1,6,-1
 496 0 l 1,7,-1
 426 0 l 1,8,-1
 414 58 l 1,9,10
 384 37 384 37 328.5 15.5 c 128,-1,11
 273 -6 273 -6 226 -6 c 128,-1,12
 179 -6 179 -6 145 18.5 c 128,-1,13
 111 43 111 43 97 83 c 0,14,15
 79 137 79 137 79 185.5 c 128,-1,16
 79 234 79 234 85 266 c 128,-1,17
 91 298 91 298 96 322 c 128,-1,18
 101 346 101 346 108.5 371.5 c 128,-1,19
 116 397 116 397 126 417.5 c 128,-1,20
 136 438 136 438 148 457.5 c 128,-1,21
 160 477 160 477 175.5 491.5 c 128,-1,22
 191 506 191 506 210 517 c 128,-1,0
 229 528 229 528 253 533.5 c 128,-1,1
171 189 m 0,23,24
 171 80 171 80 243 80 c 0,25,26
 325 80 325 80 425 123 c 1,27,-1
 474 431 l 1,28,29
 391 455 391 455 301 455 c 0,30,31
 271 455 271 455 250 441 c 0,32,33
 202 408 202 408 178 264 c 0,34,35
 171 222 171 222 171 189 c 0,23,24
EndSplineSet
AlternateSubs2: "'salt' Stylistic Alternatives in Latin lookup 16 subtable" d.salt
Substitution2: "'smcp' Lowercase to Small Capitals lookup 1 subtable" d.smcp
EndChar

StartChar: e
Encoding: 101 101 72
Width: 525
GlyphClass: 2
Flags: W
LayerCount: 2
Fore
SplineSet
353 541 m 2,0,1
 508 541 508 541 538 466 c 0,2,3
 549 440 549 440 549 420 c 0,4,5
 549 344 549 344 517.5 301.5 c 128,-1,6
 486 259 486 259 447 241 c 0,7,8
 371 208 371 208 292 208 c 0,9,10
 252 208 252 208 216.5 212.5 c 128,-1,11
 181 217 181 217 170 222 c 1,12,13
 164 182 164 182 164 153 c 128,-1,14
 164 124 164 124 172 107 c 0,15,16
 188 76 188 76 241 75 c 0,17,18
 264 74 264 74 317.5 74 c 128,-1,19
 371 74 371 74 482 90 c 1,20,-1
 471 22 l 1,21,22
 367 -7 367 -7 237 -7 c 0,23,24
 226 -7 226 -7 214 -7 c 0,25,26
 119 -6 119 -6 89 65 c 0,27,28
 73 103 73 103 73 158.5 c 128,-1,29
 73 214 73 214 84 271.5 c 128,-1,30
 95 329 95 329 103.5 360 c 128,-1,31
 112 391 112 391 125.5 422.5 c 128,-1,32
 139 454 139 454 157.5 474 c 128,-1,33
 176 494 176 494 203 510 c 0,34,35
 254 541 254 541 352 541 c 2,36,-1
 353 541 l 2,0,1
179 286 m 1,37,38
 207 283 207 283 226 283 c 128,-1,39
 245 283 245 283 254 283 c 128,-1,40
 263 283 263 283 286.5 285 c 128,-1,41
 310 287 310 287 331 290.5 c 128,-1,42
 352 294 352 294 373.5 301.5 c 128,-1,43
 395 309 395 309 411 319 c 0,44,45
 456 349 456 349 456 403 c 0,46,47
 456 433 456 433 438 442 c 0,48,49
 409 456 409 456 348 456 c 0,50,51
 264 456 264 456 231 420 c 0,52,53
 207 394 207 394 200 370 c 1,54,55
 190 341 190 341 185.5 319.5 c 128,-1,56
 181 298 181 298 181 296 c 0,57,58
 180 290 180 290 179 286 c 1,37,38
EndSplineSet
Substitution2: "'smcp' Lowercase to Small Capitals lookup 1 subtable" e.smcp
EndChar

StartChar: f
Encoding: 102 102 73
Width: 403
GlyphClass: 2
Flags: W
LayerCount: 2
Fore
SplineSet
382 785 m 0,0,1
 404 785 404 785 430 780 c 0,2,3
 476 772 476 772 505 761 c 1,4,-1
 496 703 l 1,5,-1
 390 703 l 1,6,-1
 390 703 l 1,7,8
 365 703 365 703 350 697.5 c 128,-1,9
 335 692 335 692 325 674 c 0,10,11
 309 648 309 648 297 567 c 1,12,-1
 291 531 l 1,13,-1
 446 531 l 1,14,-1
 433 448 l 1,15,-1
 277 448 l 1,16,-1
 203 0 l 1,17,-1
 111 0 l 1,18,-1
 184 448 l 1,19,-1
 89 448 l 1,20,-1
 100 512 l 1,21,-1
 199 531 l 1,22,-1
 207 576 l 1,23,24
 223 680 223 680 250 722 c 0,25,26
 290 785 290 785 382 785 c 0,0,1
EndSplineSet
AlternateSubs2: "'salt' Stylistic Alternatives in Latin lookup 16 subtable" f.salt
Substitution2: "'smcp' Lowercase to Small Capitals lookup 1 subtable" f.smcp
EndChar

StartChar: g
Encoding: 103 103 74
Width: 554
GlyphClass: 2
Flags: W
LayerCount: 2
Fore
SplineSet
291 -187 m 2,0,1
 343 -187 343 -187 371 -145 c 0,2,3
 386 -123 386 -123 391 -92 c 2,4,-1
 410 31 l 1,5,6
 321 -7 321 -7 252 -7 c 128,-1,7
 183 -7 183 -7 146.5 15 c 128,-1,8
 110 37 110 37 95 76 c 0,9,10
 78 121 78 121 78 175 c 128,-1,11
 78 229 78 229 88 281 c 1,12,13
 108 407 108 407 166.5 472.5 c 128,-1,14
 225 538 225 538 315 538 c 128,-1,15
 405 538 405 538 579 513 c 1,16,-1
 483 -96 l 2,17,18
 468 -189 468 -189 416.5 -231 c 128,-1,19
 365 -273 365 -273 303 -273 c 0,20,21
 293 -273 293 -273 282 -272 c 2,22,-1
 32 -248 l 1,23,-1
 42 -187 l 1,24,-1
 291 -187 l 2,0,1
170 183 m 128,-1,26
 170 162 170 162 171 152 c 128,-1,27
 172 142 172 142 177 125 c 128,-1,28
 182 108 182 108 191 99 c 0,29,30
 213 76 213 76 256.5 76 c 128,-1,31
 300 76 300 76 332.5 80.5 c 128,-1,32
 365 85 365 85 421 100 c 1,33,-1
 478 455 l 1,34,-1
 316 455 l 2,35,36
 268 455 268 455 238 417 c 0,37,38
 209 380 209 380 199 349 c 0,39,40
 185 301 185 301 177.5 252.5 c 128,-1,25
 170 204 170 204 170 183 c 128,-1,26
EndSplineSet
AlternateSubs2: "'salt' Stylistic Alternatives in Latin lookup 16 subtable" g.salt
Substitution2: "'smcp' Lowercase to Small Capitals lookup 1 subtable" g.smcp
EndChar

StartChar: h
Encoding: 104 104 75
Width: 545
GlyphClass: 2
Flags: W
LayerCount: 2
Fore
SplineSet
535 490 m 0,0,1
 560 452 560 452 560 402 c 0,2,3
 560 385 560 385 557 366 c 2,4,-1
 499 0 l 1,5,-1
 407 0 l 1,6,-1
 465 366 l 2,7,8
 467 378 467 378 467 397.5 c 128,-1,9
 467 417 467 417 451 436.5 c 128,-1,10
 435 456 435 456 391 456 c 128,-1,11
 347 456 347 456 311 444 c 128,-1,12
 275 432 275 432 212 402 c 1,13,-1
 148 0 l 1,14,-1
 56 0 l 1,15,-1
 180 784 l 1,16,-1
 272 784 l 1,17,-1
 222 470 l 1,18,19
 227 473 227 473 250.5 486 c 128,-1,20
 274 499 274 499 295 509 c 0,21,22
 358 540 358 540 429.5 540 c 128,-1,23
 501 540 501 540 535 490 c 0,0,1
EndSplineSet
Substitution2: "'smcp' Lowercase to Small Capitals lookup 1 subtable" h.smcp
EndChar

StartChar: i
Encoding: 105 105 76
Width: 203
GlyphClass: 2
Flags: W
LayerCount: 2
Fore
SplineSet
55 0 m 1,0,-1
 139 531 l 1,1,-1
 231 531 l 1,2,-1
 147 0 l 1,3,-1
 55 0 l 1,0,-1
180 703 m 2,4,-1
 245 703 l 2,5,6
 265 703 265 703 265 684 c 0,7,8
 265 681 265 681 264 678 c 2,9,-1
 255 614 l 2,10,11
 251 591 251 591 228 591 c 2,12,-1
 163 591 l 2,13,14
 152 591 152 591 146.5 597.5 c 128,-1,15
 141 604 141 604 143 614 c 2,16,-1
 152 678 l 2,17,18
 156 703 156 703 180 703 c 2,4,-1
EndSplineSet
Substitution2: "'smcp' Lowercase to Small Capitals lookup 1 subtable" i.smcp
EndChar

StartChar: j
Encoding: 106 106 77
Width: 224
GlyphClass: 2
Flags: W
LayerCount: 2
Fore
SplineSet
23 -270 m 1,0,-1
 150 531 l 1,1,-1
 242 531 l 1,2,-1
 157 -4 l 1,3,4
 133 -165 133 -165 86 -270 c 1,5,-1
 23 -270 l 1,0,-1
256 703 m 2,6,7
 276 703 276 703 276 683 c 0,8,9
 276 680 276 680 275 678 c 2,10,-1
 265 614 l 2,11,12
 262 591 262 591 238 591 c 2,13,-1
 173 591 l 2,14,15
 163 591 163 591 157 597.5 c 128,-1,16
 151 604 151 604 153 614 c 2,17,-1
 163 678 l 2,18,19
 167 703 167 703 191 703 c 2,20,-1
 256 703 l 2,6,7
EndSplineSet
Substitution2: "'smcp' Lowercase to Small Capitals lookup 1 subtable" j.smcp
EndChar

StartChar: k
Encoding: 107 107 78
Width: 501
GlyphClass: 2
Flags: W
LayerCount: 2
Fore
SplineSet
56 0 m 1,0,-1
 180 782 l 1,1,-1
 272 782 l 1,2,-1
 199 322 l 1,3,4
 267 343 267 343 346.5 409 c 128,-1,5
 426 475 426 475 439 531 c 1,6,-1
 540 531 l 1,7,8
 518 454 518 454 448 385 c 128,-1,9
 378 316 378 316 318 288 c 1,10,-1
 508 0 l 1,11,-1
 400 0 l 1,12,-1
 228 261 l 1,13,-1
 190 260 l 1,14,-1
 148 0 l 1,15,-1
 56 0 l 1,0,-1
EndSplineSet
Substitution2: "'smcp' Lowercase to Small Capitals lookup 1 subtable" k.smcp
EndChar

StartChar: l
Encoding: 108 108 79
Width: 294
GlyphClass: 2
Flags: W
LayerCount: 2
Fore
SplineSet
202 0 m 2,0,1
 80 0 80 0 80 131 c 0,2,3
 80 158 80 158 85 189 c 2,4,-1
 179 783 l 1,5,-1
 271 783 l 1,6,-1
 178 195 l 2,7,8
 165 117 165 117 183 99 c 0,9,10
 193 89 193 89 239 77 c 128,-1,11
 285 65 285 65 286 65 c 2,12,-1
 276 0 l 1,13,-1
 202 0 l 2,0,1
EndSplineSet
Substitution2: "'smcp' Lowercase to Small Capitals lookup 1 subtable" l.smcp
EndChar

StartChar: m
Encoding: 109 109 80
Width: 891
GlyphClass: 2
Flags: W
LayerCount: 2
Fore
SplineSet
496.5 514 m 128,-1,1
 532 491 532 491 543 455 c 1,2,3
 659 537 659 537 768 537 c 0,4,5
 838 537 838 537 877 488 c 0,6,7
 906 451 906 451 906 398 c 0,8,9
 906 381 906 381 903 362 c 2,10,-1
 845 0 l 1,11,-1
 753 0 l 1,12,-1
 811 363 l 2,13,14
 812 373 812 373 812 391.5 c 128,-1,15
 812 410 812 410 795 431.5 c 128,-1,16
 778 453 778 453 743 453 c 0,17,18
 686 453 686 453 645.5 441.5 c 128,-1,19
 605 430 605 430 557 401 c 0,20,21
 557 400 557 400 554 380.5 c 128,-1,22
 551 361 551 361 551 360 c 2,23,-1
 494 0 l 1,24,-1
 402 0 l 1,25,-1
 459 363 l 2,26,27
 461 373 461 373 461 381 c 0,28,29
 461 410 461 410 443.5 431.5 c 128,-1,30
 426 453 426 453 391 453 c 128,-1,31
 356 453 356 453 325.5 446 c 128,-1,32
 295 439 295 439 276.5 430.5 c 128,-1,33
 258 422 258 422 211 400 c 1,34,-1
 148 0 l 1,35,-1
 56 0 l 1,36,-1
 140 531 l 1,37,-1
 209 531 l 1,38,-1
 222 469 l 1,39,40
 231 473 231 473 248.5 483 c 128,-1,41
 266 493 266 493 274.5 497.5 c 128,-1,42
 283 502 283 502 298.5 510 c 128,-1,43
 314 518 314 518 325.5 521.5 c 128,-1,44
 337 525 337 525 352 530 c 1,45,46
 379 537 379 537 420 537 c 128,-1,0
 461 537 461 537 496.5 514 c 128,-1,1
EndSplineSet
AlternateSubs2: "'salt' Stylistic Alternatives in Latin lookup 16 subtable" m.salt
Substitution2: "'smcp' Lowercase to Small Capitals lookup 1 subtable" m.smcp
EndChar

StartChar: n
Encoding: 110 110 81
Width: 545
GlyphClass: 2
Flags: W
LayerCount: 2
Fore
SplineSet
423 540 m 0,0,1
 501 540 501 540 535 490 c 0,2,3
 560 452 560 452 560 402 c 0,4,5
 560 385 560 385 557 366 c 2,6,-1
 499 0 l 1,7,-1
 407 0 l 1,8,-1
 465 366 l 2,9,10
 467 378 467 378 467 397.5 c 128,-1,11
 467 417 467 417 451 436.5 c 128,-1,12
 435 456 435 456 391 456 c 128,-1,13
 347 456 347 456 311 444 c 128,-1,14
 275 432 275 432 212 402 c 1,15,-1
 148 0 l 1,16,-1
 56 0 l 1,17,-1
 140 531 l 1,18,-1
 209 531 l 1,19,-1
 222 470 l 1,20,21
 226 473 226 473 240.5 481 c 128,-1,22
 255 489 255 489 259.5 491 c 128,-1,23
 264 493 264 493 277.5 500.5 c 128,-1,24
 291 508 291 508 297 510 c 128,-1,25
 303 512 303 512 315.5 517.5 c 128,-1,26
 328 523 328 523 335.5 525.5 c 128,-1,27
 343 528 343 528 355 531.5 c 128,-1,28
 367 535 367 535 377 536 c 0,29,30
 404 540 404 540 423 540 c 0,0,1
EndSplineSet
AlternateSubs2: "'salt' Stylistic Alternatives in Latin lookup 16 subtable" n.salt
Substitution2: "'smcp' Lowercase to Small Capitals lookup 1 subtable" n.smcp
EndChar

StartChar: o
Encoding: 111 111 82
Width: 562
GlyphClass: 2
Flags: W
LayerCount: 2
Fore
SplineSet
364 536 m 0,0,1
 490 536 490 536 536 468 c 0,2,3
 566 422 566 422 566 344 c 0,4,5
 566 304 566 304 558 254 c 0,6,7
 534 105 534 105 477.5 50 c 128,-1,8
 421 -5 421 -5 290 -5 c 128,-1,9
 159 -5 159 -5 111 57 c 0,10,11
 79 99 79 99 79 179 c 0,12,13
 79 216 79 216 89 280 c 128,-1,14
 99 344 99 344 118.5 396.5 c 128,-1,15
 138 449 138 449 172 480.5 c 128,-1,16
 206 512 206 512 250.5 524 c 128,-1,17
 295 536 295 536 364 536 c 0,0,1
198 345 m 0,18,19
 170 258 170 258 170 170 c 0,20,21
 170 135 170 135 190 108 c 0,22,23
 211 79 211 79 294 80 c 0,24,25
 355 80 355 80 382 92 c 128,-1,26
 409 104 409 104 422 123.5 c 128,-1,27
 435 143 435 143 446.5 176 c 128,-1,28
 458 209 458 209 466 258 c 0,29,30
 475 311 475 311 475 343.5 c 128,-1,31
 475 376 475 376 469.5 397.5 c 128,-1,32
 464 419 464 419 447.5 431 c 128,-1,33
 431 443 431 443 409 447.5 c 128,-1,34
 387 452 387 452 353 452 c 128,-1,35
 319 452 319 452 297.5 448.5 c 128,-1,36
 276 445 276 445 255.5 434 c 128,-1,37
 235 423 235 423 222 401.5 c 128,-1,38
 209 380 209 380 198 345 c 0,18,19
EndSplineSet
Substitution2: "'smcp' Lowercase to Small Capitals lookup 1 subtable" o.smcp
EndChar

StartChar: p
Encoding: 112 112 83
Width: 558
GlyphClass: 2
Flags: W
LayerCount: 2
Fore
SplineSet
404 534 m 0,0,1
 450 534 450 534 482.5 517 c 128,-1,2
 515 500 515 500 532 472 c 0,3,4
 562 422 562 422 562 337 c 0,5,6
 562 194 562 194 509 97 c 0,7,8
 451 -8 451 -8 335 -8 c 0,9,10
 295 -8 295 -8 242.5 1.5 c 128,-1,11
 190 11 190 11 153 29 c 1,12,-1
 104 -270 l 1,13,-1
 13 -270 l 1,14,-1
 145 518 l 1,15,16
 257 534 257 534 404 534 c 0,0,1
366.5 84.5 m 128,-1,18
 390 95 390 95 408 113 c 0,19,20
 445 150 445 150 464 265 c 0,21,22
 471 307 471 307 471 339 c 0,23,24
 471 451 471 451 390 451 c 2,25,-1
 224 451 l 1,26,-1
 165 99 l 1,27,28
 232 74 232 74 287.5 74 c 128,-1,17
 343 74 343 74 366.5 84.5 c 128,-1,18
EndSplineSet
AlternateSubs2: "'salt' Stylistic Alternatives in Latin lookup 16 subtable" p.salt
Substitution2: "'smcp' Lowercase to Small Capitals lookup 1 subtable" p.smcp
EndChar

StartChar: q
Encoding: 113 113 84
Width: 553
GlyphClass: 2
Flags: W
LayerCount: 2
Fore
SplineSet
318 538 m 0,0,1
 405 538 405 538 579 513 c 1,2,-1
 455 -270 l 1,3,-1
 363 -270 l 1,4,-1
 410 29 l 1,5,6
 319 -10 319 -10 251 -10 c 128,-1,7
 183 -10 183 -10 147 11 c 128,-1,8
 111 32 111 32 96 70 c 0,9,10
 79 115 79 115 79 168.5 c 128,-1,11
 79 222 79 222 88 272 c 1,12,13
 130 538 130 538 318 538 c 0,0,1
169 178 m 128,-1,15
 169 160 169 160 170.5 142.5 c 128,-1,16
 172 125 172 125 176 117 c 128,-1,17
 180 109 180 109 186 99 c 128,-1,18
 192 89 192 89 201 85 c 0,19,20
 223 74 223 74 254.5 74 c 128,-1,21
 286 74 286 74 309 76 c 0,22,23
 352 79 352 79 422 98 c 1,24,-1
 478 455 l 1,25,-1
 312 455 l 2,26,27
 285 455 285 455 263 441 c 128,-1,28
 241 427 241 427 227.5 407.5 c 128,-1,29
 214 388 214 388 203 361 c 0,30,31
 187 319 187 319 178 257.5 c 128,-1,14
 169 196 169 196 169 178 c 128,-1,15
EndSplineSet
Substitution2: "'smcp' Lowercase to Small Capitals lookup 1 subtable" q.smcp
EndChar

StartChar: r
Encoding: 114 114 85
Width: 424
GlyphClass: 2
Flags: W
LayerCount: 2
Fore
SplineSet
349 526 m 128,-1,1
 385 537 385 537 429 537 c 128,-1,2
 473 537 473 537 488 529 c 1,3,-1
 473 439 l 1,4,5
 448 444 448 444 397 444 c 128,-1,6
 346 444 346 444 306.5 431.5 c 128,-1,7
 267 419 267 419 209 386 c 1,8,-1
 148 0 l 1,9,-1
 56 0 l 1,10,-1
 140 531 l 1,11,-1
 210 531 l 1,12,-1
 221 464 l 1,13,14
 225 466 225 466 247.5 479 c 128,-1,15
 270 492 270 492 291.5 503.5 c 128,-1,0
 313 515 313 515 349 526 c 128,-1,1
EndSplineSet
AlternateSubs2: "'salt' Stylistic Alternatives in Latin lookup 16 subtable" r.salt
Substitution2: "'smcp' Lowercase to Small Capitals lookup 1 subtable" r.smcp
EndChar

StartChar: s
Encoding: 115 115 86
Width: 508
GlyphClass: 2
Flags: W
LayerCount: 2
Fore
SplineSet
340 76 m 2,0,1
 389 76 389 76 397 125 c 2,2,-1
 405 171 l 2,3,4
 407 179 407 179 407 189.5 c 128,-1,5
 407 200 407 200 399 210.5 c 128,-1,6
 391 221 391 221 363 221 c 2,7,-1
 223 221 l 2,8,9
 149 221 149 221 115 253 c 1,10,11
 91 277 91 277 91 323 c 0,12,13
 91 339 91 339 94 358 c 2,14,-1
 102 408 l 2,15,16
 113 475 113 475 149.5 507.5 c 128,-1,17
 186 540 186 540 250.5 540 c 128,-1,18
 315 540 315 540 403.5 534 c 128,-1,19
 492 528 492 528 526 521 c 1,20,-1
 515 456 l 1,21,-1
 260 456 l 2,22,23
 210 456 210 456 197 420 c 0,24,25
 195 413 195 413 193 403 c 2,26,-1
 186 359 l 2,27,28
 180 321 180 321 195 313 c 0,29,30
 206 307 206 307 219.5 307.5 c 128,-1,31
 233 308 233 308 236 308 c 2,32,-1
 379 308 l 2,33,34
 445 308 445 308 476 270 c 0,35,36
 500 241 500 241 500 200 c 0,37,38
 500 187 500 187 498 174 c 2,39,-1
 489 111 l 2,40,41
 481 58 481 58 455 31 c 0,42,43
 429 5 429 5 405 -1 c 0,44,45
 370 -9 370 -9 328.5 -9 c 128,-1,46
 287 -9 287 -9 187 -1.5 c 128,-1,47
 87 6 87 6 62 12 c 1,48,-1
 72 76 l 1,49,-1
 340 76 l 2,0,1
EndSplineSet
Substitution2: "'smcp' Lowercase to Small Capitals lookup 1 subtable" s.smcp
EndChar

StartChar: t
Encoding: 116 116 87
Width: 377
GlyphClass: 2
Flags: W
LayerCount: 2
Fore
SplineSet
259 0 m 2,0,1
 138 0 138 0 138 131 c 0,2,3
 138 158 138 158 143 189 c 2,4,-1
 183 449 l 1,5,-1
 88 449 l 1,6,-1
 98 511 l 1,7,-1
 197 532 l 1,8,-1
 239 680 l 1,9,-1
 312 680 l 1,10,-1
 289 532 l 1,11,-1
 434 532 l 1,12,-1
 420 449 l 1,13,-1
 275 449 l 1,14,-1
 235 195 l 1,15,16
 224 117 224 117 241 99 c 0,17,18
 250 89 250 89 296 76.5 c 128,-1,19
 342 64 342 64 344 64 c 1,20,-1
 335 0 l 1,21,-1
 259 0 l 2,0,1
EndSplineSet
AlternateSubs2: "'salt' Stylistic Alternatives in Latin lookup 16 subtable" t.salt
Substitution2: "'smcp' Lowercase to Small Capitals lookup 1 subtable" t.smcp
EndChar

StartChar: u
Encoding: 117 117 88
Width: 544
GlyphClass: 2
Flags: W
LayerCount: 2
Fore
SplineSet
165 165 m 2,0,1
 163 150 163 150 163 129.5 c 128,-1,2
 163 109 163 109 178.5 92.5 c 128,-1,3
 194 76 194 76 238.5 76 c 128,-1,4
 283 76 283 76 319 87.5 c 128,-1,5
 355 99 355 99 419 130 c 1,6,-1
 482 531 l 1,7,-1
 574 531 l 1,8,-1
 490 0 l 1,9,-1
 421 0 l 1,10,-1
 407 60 l 1,11,12
 404 58 404 58 381 45.5 c 128,-1,13
 358 33 358 33 337 22 c 0,14,15
 274 -9 274 -9 201 -9 c 128,-1,16
 128 -9 128 -9 95 40 c 1,17,18
 70 75 70 75 70 126 c 0,19,20
 70 145 70 145 73 166 c 2,21,-1
 131 531 l 1,22,-1
 223 531 l 1,23,-1
 165 165 l 2,0,1
EndSplineSet
AlternateSubs2: "'salt' Stylistic Alternatives in Latin lookup 16 subtable" u.salt
Substitution2: "'smcp' Lowercase to Small Capitals lookup 1 subtable" u.smcp
EndChar

StartChar: v
Encoding: 118 118 89
Width: 520
GlyphClass: 2
Flags: W
LayerCount: 2
Fore
SplineSet
554 531 m 1,0,1
 560 511 560 511 560 484 c 128,-1,2
 560 457 560 457 543 422 c 1,3,-1
 324 0 l 1,4,-1
 210 0 l 1,5,-1
 91 531 l 1,6,-1
 188 531 l 1,7,-1
 279 109 l 1,8,-1
 449 443 l 1,9,10
 470 487 470 487 476 531 c 1,11,-1
 554 531 l 1,0,1
EndSplineSet
Substitution2: "'smcp' Lowercase to Small Capitals lookup 1 subtable" v.smcp
EndChar

StartChar: w
Encoding: 119 119 90
Width: 806
GlyphClass: 2
Flags: W
LayerCount: 2
Fore
SplineSet
546 529 m 1,0,1
 552 508 552 508 552 483 c 128,-1,2
 552 458 552 458 539 429 c 2,3,-1
 513 371 l 1,4,-1
 563 118 l 1,5,-1
 740 443 l 1,6,7
 761 487 761 487 767 531 c 1,8,-1
 842 531 l 1,9,10
 848 509 848 509 848 481.5 c 128,-1,11
 848 454 848 454 831 422 c 2,12,-1
 596 0 l 1,13,-1
 501 0 l 1,14,-1
 448 259 l 1,15,-1
 314 0 l 1,16,-1
 210 0 l 1,17,-1
 91 531 l 1,18,-1
 185 531 l 1,19,-1
 274 113 l 1,20,-1
 444 440 l 2,21,22
 466 484 466 484 472 529 c 1,23,-1
 546 529 l 1,0,1
EndSplineSet
Substitution2: "'smcp' Lowercase to Small Capitals lookup 1 subtable" w.smcp
EndChar

StartChar: x
Encoding: 120 120 91
Width: 537
GlyphClass: 2
Flags: W
LayerCount: 2
Fore
SplineSet
22 0 m 1,0,-1
 255 270 l 1,1,-1
 106 531 l 1,2,-1
 214 531 l 1,3,-1
 319 339 l 1,4,-1
 483 531 l 1,5,-1
 599 531 l 1,6,-1
 366 257 l 1,7,-1
 511 0 l 1,8,-1
 405 0 l 1,9,-1
 301 187 l 1,10,-1
 142 0 l 1,11,-1
 22 0 l 1,0,-1
EndSplineSet
AlternateSubs2: "'salt' Stylistic Alternatives in Latin lookup 16 subtable" x.salt
Substitution2: "'smcp' Lowercase to Small Capitals lookup 1 subtable" x.smcp
EndChar

StartChar: y
Encoding: 121 121 92
Width: 552
GlyphClass: 2
Flags: W
LayerCount: 2
Fore
SplineSet
588 533 m 1,0,1
 593 514 593 514 593 486 c 128,-1,2
 593 458 593 458 575 420 c 2,3,-1
 367 1 l 2,4,5
 303 -130 303 -130 238.5 -194.5 c 128,-1,6
 174 -259 174 -259 96 -274 c 1,7,-1
 96 -209 l 1,8,9
 152 -174 152 -174 190 -122.5 c 128,-1,10
 228 -71 228 -71 265 0 c 1,11,12
 230 0 230 0 198 21 c 0,13,14
 158 47 158 47 148 117 c 2,15,-1
 91 531 l 1,16,-1
 187 531 l 1,17,-1
 242 128 l 1,18,19
 249 86 249 86 304 89 c 0,20,21
 306 89 306 89 306 89 c 1,22,-1
 483 444 l 2,23,24
 500 480 500 480 508 533 c 1,25,-1
 588 533 l 1,0,1
EndSplineSet
Substitution2: "'smcp' Lowercase to Small Capitals lookup 1 subtable" y.smcp
EndChar

StartChar: z
Encoding: 122 122 93
Width: 460
GlyphClass: 2
Flags: W
LayerCount: 2
Fore
SplineSet
43 1 m 1,0,-1
 54 87 l 1,1,-1
 382 445 l 1,2,-1
 100 445 l 1,3,-1
 112 531 l 1,4,-1
 517 531 l 1,5,-1
 505 445 l 1,6,-1
 184 87 l 1,7,-1
 446 87 l 1,8,-1
 433 1 l 1,9,-1
 43 1 l 1,0,-1
EndSplineSet
Substitution2: "'smcp' Lowercase to Small Capitals lookup 1 subtable" z.smcp
EndChar

StartChar: braceleft
Encoding: 123 123 94
Width: 320
GlyphClass: 2
Flags: W
LayerCount: 2
Fore
SplineSet
191 -49 m 0,0,1
 191 -135 191 -135 273 -135 c 0,2,3
 277 -135 277 -135 281 -134 c 1,4,-1
 268 -219 l 1,5,6
 214 -219 214 -219 176.5 -201 c 128,-1,7
 139 -183 139 -183 123 -153 c 0,8,9
 97 -107 97 -107 97 -53 c 0,10,11
 97 -30 97 -30 102 -8 c 1,12,-1
 141 233 l 2,13,14
 142 237 142 237 142 242 c 0,15,16
 142 265 142 265 121 280 c 128,-1,17
 100 295 100 295 72 295 c 0,18,19
 69 295 69 295 65 294 c 1,20,-1
 77 372 l 1,21,22
 81 372 81 372 90.5 372 c 128,-1,23
 100 372 100 372 105.5 372.5 c 128,-1,24
 111 373 111 373 120 373.5 c 128,-1,25
 129 374 129 374 134.5 376 c 128,-1,26
 140 378 140 378 147 381 c 128,-1,27
 154 384 154 384 158 389 c 0,28,29
 168 400 168 400 171 416 c 2,30,-1
 208 652 l 2,31,32
 237 833 237 833 434 833 c 1,33,-1
 421 747 l 1,34,35
 419 747 419 747 418 747 c 0,36,37
 368 747 368 747 337.5 722 c 128,-1,38
 307 697 307 697 297 635 c 2,39,-1
 263 414 l 1,40,41
 256 377 256 377 228.5 355 c 128,-1,42
 201 333 201 333 160 327 c 1,43,44
 212 318 212 318 229 279 c 0,45,46
 235 266 235 266 235 256 c 128,-1,47
 235 246 235 246 234 239 c 2,48,-1
 195 -2 l 2,49,50
 191 -28 191 -28 191 -49 c 0,0,1
EndSplineSet
EndChar

StartChar: bar
Encoding: 124 124 95
Width: 245
GlyphClass: 2
Flags: W
LayerCount: 2
Fore
SplineSet
68 -72 m 1,0,-1
 201 770 l 1,1,-1
 287 770 l 1,2,-1
 154 -72 l 1,3,-1
 68 -72 l 1,0,-1
EndSplineSet
EndChar

StartChar: braceright
Encoding: 125 125 96
Width: 316
GlyphClass: 2
Flags: W
LayerCount: 2
Fore
SplineSet
229 661 m 0,0,1
 229 747 229 747 147 747 c 0,2,3
 143 747 143 747 139 747 c 1,4,-1
 153 833 l 1,5,6
 238 833 238 833 278 788 c 0,7,8
 320 742 320 742 320 677 c 0,9,10
 320 649 320 649 317 620 c 1,11,-1
 280 387 l 2,12,13
 275 356 275 356 301 339 c 0,14,15
 325 323 325 323 356 325 c 1,16,-1
 344 248 l 1,17,18
 342 247 342 247 332 247 c 128,-1,19
 322 247 322 247 318.5 247 c 128,-1,20
 315 247 315 247 306 246.5 c 128,-1,21
 297 246 297 246 293 244.5 c 128,-1,22
 289 243 289 243 281.5 241 c 128,-1,23
 274 239 274 239 270 236 c 128,-1,24
 266 233 266 233 261 228 c 0,25,26
 253 220 253 220 250 203 c 2,27,-1
 211 -37 l 2,28,29
 196 -128 196 -128 141.5 -173.5 c 128,-1,30
 87 -219 87 -219 -14 -219 c 1,31,-1
 -1 -134 l 1,32,33
 1 -135 1 -135 2 -135 c 0,34,35
 51 -135 51 -135 81.5 -110 c 128,-1,36
 112 -85 112 -85 122 -25 c 2,37,-1
 159 206 l 2,38,39
 165 241 165 241 192 263 c 128,-1,40
 219 285 219 285 260 293 c 1,41,42
 222 298 222 298 204 319.5 c 128,-1,43
 186 341 186 341 186 366 c 0,44,45
 186 373 186 373 187 381 c 2,46,-1
 224 612 l 2,47,48
 229 640 229 640 229 661 c 0,0,1
EndSplineSet
EndChar

StartChar: asciitilde
Encoding: 126 126 97
Width: 432
GlyphClass: 2
Flags: W
LayerCount: 2
Fore
SplineSet
237.5 641.5 m 128,-1,1
 251 645 251 645 270 645 c 128,-1,2
 289 645 289 645 318 627.5 c 128,-1,3
 347 610 347 610 361.5 610 c 128,-1,4
 376 610 376 610 386 612 c 128,-1,5
 396 614 396 614 403 616 c 128,-1,6
 410 618 410 618 421 623.5 c 128,-1,7
 432 629 432 629 436 631.5 c 128,-1,8
 440 634 440 634 452 641 c 128,-1,9
 464 648 464 648 466 650 c 1,10,-1
 481 603 l 1,11,12
 480 602 480 602 462.5 586.5 c 128,-1,13
 445 571 445 571 438 565.5 c 128,-1,14
 431 560 431 560 415 550 c 0,15,16
 387 531 387 531 359.5 531 c 128,-1,17
 332 531 332 531 300.5 548.5 c 128,-1,18
 269 566 269 566 251 566 c 128,-1,19
 233 566 233 566 218.5 561.5 c 128,-1,20
 204 557 204 557 183.5 546.5 c 128,-1,21
 163 536 163 536 152 531 c 1,22,-1
 137 576 l 1,23,24
 144 581 144 581 161.5 595.5 c 128,-1,25
 179 610 179 610 187 615.5 c 128,-1,26
 195 621 195 621 209.5 629.5 c 128,-1,0
 224 638 224 638 237.5 641.5 c 128,-1,1
EndSplineSet
EndChar

StartChar: exclamdown
Encoding: 161 161 98
Width: 272
GlyphClass: 2
Flags: W
LayerCount: 2
Fore
SplineSet
39 -269 m 1,0,-1
 135 262 l 1,1,-1
 221 262 l 1,2,-1
 149 -269 l 1,3,-1
 39 -269 l 1,0,-1
141 376 m 1,4,-1
 151 439 l 2,5,6
 154 460 154 460 179 462 c 1,7,-1
 238 462 l 1,8,9
 247 461 247 461 253 453.5 c 128,-1,10
 259 446 259 446 258 436 c 2,11,-1
 248 376 l 1,12,13
 243 355 243 355 224 350 c 1,14,-1
 159 350 l 1,15,16
 139 352 139 352 141 376 c 1,4,-1
EndSplineSet
Substitution2: "'case' Case-Sensitive Forms lookup 18 subtable" exclamdown.alt
Substitution2: "'smcp' Lowercase to Small Capitals lookup 1 subtable" exclamdown.smcp
EndChar

StartChar: cent
Encoding: 162 162 99
Width: 488
GlyphClass: 2
Flags: W
LayerCount: 2
Fore
SplineSet
210.5 526.5 m 128,-1,1
 235 535 235 535 252.5 536.5 c 128,-1,2
 270 538 270 538 283.5 538 c 128,-1,3
 297 538 297 538 308 538 c 1,4,-1
 324 634 l 1,5,-1
 391 634 l 1,6,-1
 375 533 l 1,7,8
 459 523 459 523 524 508 c 1,9,-1
 513 446 l 1,10,11
 387 453 387 453 332 453 c 128,-1,12
 277 453 277 453 264.5 451 c 128,-1,13
 252 449 252 449 236.5 439 c 128,-1,14
 221 429 221 429 211 409 c 0,15,16
 187 362 187 362 169 262 c 0,17,18
 159 203 159 203 159 169 c 128,-1,19
 159 135 159 135 169 115 c 0,20,21
 188 78 188 78 234 78 c 0,22,23
 320 78 320 78 428 86 c 1,24,-1
 464 88 l 1,25,-1
 453 24 l 1,26,27
 377 -1 377 -1 289 -5 c 1,28,-1
 276 -96 l 1,29,-1
 208 -96 l 1,30,-1
 222 -6 l 1,31,32
 138 -5 138 -5 97 56 c 0,33,34
 69 96 69 96 69 171 c 0,35,36
 69 214 69 214 78.5 273 c 128,-1,37
 88 332 88 332 101.5 377.5 c 128,-1,38
 115 423 115 423 132.5 452.5 c 128,-1,39
 150 482 150 482 168 500 c 128,-1,0
 186 518 186 518 210.5 526.5 c 128,-1,1
EndSplineSet
EndChar

StartChar: sterling
Encoding: 163 163 100
Width: 592
GlyphClass: 2
Flags: W
LayerCount: 2
Fore
SplineSet
624 720 m 2,0,-1
 659 716 l 1,1,-1
 647 644 l 1,2,-1
 461 644 l 2,3,4
 413 644 413 644 385.5 639 c 128,-1,5
 358 634 358 634 337.5 618 c 128,-1,6
 317 602 317 602 306.5 575.5 c 128,-1,7
 296 549 296 549 289 502 c 2,8,-1
 272 396 l 1,9,-1
 526 380 l 1,10,-1
 518 326 l 1,11,-1
 261 326 l 1,12,-1
 224 89 l 1,13,-1
 559 89 l 1,14,-1
 545 0 l 1,15,-1
 47 0 l 1,16,-1
 58 72 l 1,17,-1
 132 89 l 1,18,-1
 169 325 l 1,19,-1
 98 325 l 1,20,-1
 106 378 l 1,21,-1
 180 396 l 1,22,-1
 197 503 l 2,23,24
 219 640 219 640 278 687 c 1,25,26
 300 703 300 703 318 712 c 128,-1,27
 336 721 336 721 364 725 c 0,28,29
 405 732 405 732 462 732 c 128,-1,30
 519 732 519 732 624 720 c 2,0,-1
EndSplineSet
Substitution2: "'smcp' Lowercase to Small Capitals lookup 1 subtable" sterling.smcp
EndChar

StartChar: currency
Encoding: 164 164 101
Width: 460
GlyphClass: 2
Flags: W
LayerCount: 2
Fore
SplineSet
440 332 m 0,0,1
 440 263 440 263 398 213 c 1,2,-1
 441 161 l 1,3,-1
 391 120 l 1,4,-1
 350 170 l 1,5,6
 312 145 312 145 257.5 145 c 128,-1,7
 203 145 203 145 167 174 c 1,8,-1
 114 129 l 1,9,-1
 76 178 l 1,10,-1
 129 223 l 1,11,12
 111 258 111 258 111 293 c 0,13,14
 111 304 111 304 113 314 c 0,15,16
 121 369 121 369 148 402 c 1,17,-1
 110 447 l 1,18,-1
 159 486 l 1,19,-1
 195 444 l 1,20,21
 241 473 241 473 297 473 c 128,-1,22
 353 473 353 473 389 442 c 1,23,-1
 445 489 l 1,24,-1
 481 442 l 1,25,-1
 426 394 l 1,26,27
 440 364 440 364 440 332 c 0,0,1
177 295 m 0,28,29
 177 265 177 265 198 238 c 0,30,31
 220 211 220 211 261 211 c 0,32,33
 330 211 330 211 360 271 c 0,34,35
 376 301 376 301 376 329 c 128,-1,36
 376 357 376 357 355.5 383 c 128,-1,37
 335 409 335 409 292 409 c 0,38,39
 245 409 245 409 215 381 c 0,40,41
 177 346 177 346 177 295 c 0,28,29
EndSplineSet
EndChar

StartChar: yen
Encoding: 165 165 102
Width: 610
GlyphClass: 2
Flags: W
LayerCount: 2
Fore
SplineSet
110 149 m 1,0,-1
 120 214 l 1,1,-1
 277 214 l 1,2,-1
 284 260 l 1,3,-1
 127 260 l 1,4,-1
 138 326 l 1,5,-1
 281 326 l 1,6,-1
 134 732 l 1,7,-1
 232 732 l 1,8,-1
 348 400 l 1,9,-1
 596 732 l 1,10,-1
 706 732 l 1,11,-1
 397 326 l 1,12,-1
 565 326 l 1,13,-1
 554 260 l 1,14,-1
 376 260 l 1,15,-1
 369 214 l 1,16,-1
 547 214 l 1,17,-1
 537 149 l 1,18,-1
 361 149 l 1,19,-1
 341 0 l 1,20,-1
 249 0 l 1,21,-1
 269 149 l 1,22,-1
 110 149 l 1,0,-1
EndSplineSet
Substitution2: "'smcp' Lowercase to Small Capitals lookup 1 subtable" yen.smcp
EndChar

StartChar: brokenbar
Encoding: 166 166 103
Width: 246
GlyphClass: 2
Flags: W
LayerCount: 2
Fore
SplineSet
68 -72 m 1,0,-1
 120 256 l 1,1,-1
 206 256 l 1,2,-1
 154 -72 l 1,3,-1
 68 -72 l 1,0,-1
147 429 m 1,4,-1
 201 770 l 1,5,-1
 287 770 l 1,6,-1
 233 429 l 1,7,-1
 147 429 l 1,4,-1
EndSplineSet
EndChar

StartChar: section
Encoding: 167 167 104
Width: 548
GlyphClass: 2
Flags: W
LayerCount: 2
Fore
SplineSet
236 582 m 0,0,1
 236 548 236 548 281 548 c 2,2,-1
 445 548 l 2,3,4
 510 548 510 548 537.5 516.5 c 128,-1,5
 565 485 565 485 565 444 c 0,6,7
 565 432 565 432 563 420 c 2,8,-1
 554 365 l 1,9,10
 542 281 542 281 494 272 c 1,11,12
 528 261 528 261 528 211 c 0,13,14
 528 199 528 199 525 183 c 2,15,-1
 515 114 l 1,16,17
 503 40 503 40 468.5 16 c 128,-1,18
 434 -8 434 -8 357 -8 c 0,19,20
 315 -8 315 -8 218 -1 c 128,-1,21
 121 6 121 6 89 11 c 1,22,-1
 100 78 l 1,23,-1
 358 78 l 2,24,25
 387 78 387 78 403 86 c 128,-1,26
 419 94 419 94 423 119 c 2,27,-1
 433 182 l 2,28,29
 434 190 434 190 434 201 c 128,-1,30
 434 212 434 212 425.5 219 c 128,-1,31
 417 226 417 226 387 226 c 2,32,-1
 228 226 l 2,33,34
 165 226 165 226 134.5 254 c 128,-1,35
 104 282 104 282 104 325 c 0,36,37
 104 337 104 337 107 352 c 2,38,-1
 115 406 l 1,39,40
 122 446 122 446 135.5 469.5 c 128,-1,41
 149 493 149 493 180 502 c 1,42,43
 143 526 143 526 143 571 c 0,44,45
 143 582 143 582 145 593 c 2,46,-1
 154 657 l 1,47,48
 174 784 174 784 307 784 c 0,49,50
 348 784 348 784 448 777 c 128,-1,51
 548 770 548 770 580 765 c 1,52,-1
 570 698 l 1,53,-1
 305 698 l 2,54,55
 279 698 279 698 265 688 c 128,-1,56
 251 678 251 678 246 652 c 1,57,-1
 237 592 l 2,58,59
 236 586 236 586 236 582 c 0,0,1
199 357 m 2,60,61
 198 347 198 347 198 335.5 c 128,-1,62
 198 324 198 324 206.5 317 c 128,-1,63
 215 310 215 310 244 310 c 2,64,-1
 398 310 l 2,65,66
 424 310 424 310 437.5 317 c 128,-1,67
 451 324 451 324 454.5 332 c 128,-1,68
 458 340 458 340 461 358 c 2,69,-1
 470 413 l 2,70,71
 472 428 472 428 472 435.5 c 128,-1,72
 472 443 472 443 468 450 c 0,73,74
 461 464 461 464 423 464 c 2,75,-1
 269 464 l 2,76,77
 237 464 237 464 225 454 c 128,-1,78
 213 444 213 444 208 411 c 2,79,-1
 199 357 l 2,60,61
EndSplineSet
EndChar

StartChar: dieresis
Encoding: 168 168 105
Width: 453
GlyphClass: 2
Flags: W
LayerCount: 2
Fore
SplineSet
172.5 627 m 128,-1,1
 186 634 186 634 204 634 c 128,-1,2
 222 634 222 634 233.5 620.5 c 128,-1,3
 245 607 245 607 245 597 c 0,4,5
 245 563 245 563 225 546 c 128,-1,6
 205 529 205 529 183.5 529 c 128,-1,7
 162 529 162 529 150 543 c 128,-1,8
 138 557 138 557 138 567.5 c 128,-1,9
 138 578 138 578 139.5 587 c 128,-1,10
 141 596 141 596 150 608 c 128,-1,0
 159 620 159 620 172.5 627 c 128,-1,1
455 634 m 128,-1,12
 477 634 477 634 488.5 620.5 c 128,-1,13
 500 607 500 607 500 597 c 0,14,15
 500 563 500 563 480 546 c 128,-1,16
 460 529 460 529 438.5 529 c 128,-1,17
 417 529 417 529 405 543 c 128,-1,18
 393 557 393 557 393 567 c 0,19,20
 393 601 393 601 413 617.5 c 128,-1,11
 433 634 433 634 455 634 c 128,-1,12
EndSplineSet
Substitution2: "'smcp' Lowercase to Small Capitals lookup 1 subtable" dieresis.smcp
EndChar

StartChar: copyright
Encoding: 169 169 106
Width: 802
GlyphClass: 2
Flags: W
LayerCount: 2
Fore
SplineSet
399 732 m 2,0,-1
 650 732 l 2,1,2
 744 732 744 732 783 667 c 0,3,4
 823 599 823 599 823 500 c 0,5,6
 823 353 823 353 777 221 c 0,7,8
 701 0 701 0 543 0 c 2,9,-1
 292 0 l 2,10,11
 237 0 237 0 197.5 27 c 128,-1,12
 158 54 158 54 138 95 c 0,13,14
 100 173 100 173 100 280 c 0,15,16
 100 398 100 398 142 521 c 0,17,18
 214 732 214 732 399 732 c 2,0,-1
178 368 m 0,19,20
 170 325 170 325 170 298.5 c 128,-1,21
 170 272 170 272 172 239.5 c 128,-1,22
 174 207 174 207 185.5 164.5 c 128,-1,23
 197 122 197 122 226 96 c 128,-1,24
 255 70 255 70 296 70 c 2,25,-1
 550 70 l 2,26,27
 614 70 614 70 666 146 c 0,28,29
 725 232 725 232 749 422 c 0,30,31
 754 469 754 469 754 496 c 128,-1,32
 754 523 754 523 753 540.5 c 128,-1,33
 752 558 752 558 745.5 583.5 c 128,-1,34
 739 609 739 609 727 625 c 0,35,36
 700 662 700 662 648 662 c 2,37,-1
 388 662 l 2,38,39
 269 662 269 662 214 514 c 0,40,41
 192 454 192 454 178 368 c 0,19,20
349 293 m 0,42,43
 349 217 349 217 411 217 c 0,44,45
 485 217 485 217 593 233 c 1,46,-1
 584 175 l 1,47,48
 490 147 490 147 395 147 c 0,49,50
 330 147 330 147 298 201 c 0,51,52
 278 236 278 236 278 281.5 c 128,-1,53
 278 327 278 327 286.5 379 c 128,-1,54
 295 431 295 431 312.5 474.5 c 128,-1,55
 330 518 330 518 353 541 c 0,56,57
 397 583 397 583 462.5 583 c 128,-1,58
 528 583 528 583 638 559 c 1,59,-1
 629 501 l 1,60,61
 546 513 546 513 457 513 c 0,62,63
 417 513 417 513 392 476.5 c 128,-1,64
 367 440 367 440 358 381.5 c 128,-1,65
 349 323 349 323 349 293 c 0,42,43
EndSplineSet
EndChar

StartChar: ordfeminine
Encoding: 170 170 107
Width: 368
GlyphClass: 3
Flags: W
LayerCount: 2
Fore
SplineSet
70 266 m 1,0,-1
 79 328 l 1,1,-1
 388 328 l 1,2,-1
 378 266 l 1,3,-1
 70 266 l 1,0,-1
231 726.5 m 128,-1,5
 246 730 246 730 259.5 731.5 c 128,-1,6
 273 733 273 733 294 733 c 128,-1,7
 315 733 315 733 366.5 721.5 c 128,-1,8
 418 710 418 710 441 688 c 1,9,-1
 395 379 l 1,10,-1
 351 379 l 1,11,-1
 340 433 l 1,12,13
 322 412 322 412 285.5 393.5 c 128,-1,14
 249 375 249 375 220 375 c 128,-1,15
 191 375 191 375 170.5 384 c 128,-1,16
 150 393 150 393 131 415 c 0,17,18
 104 445 104 445 104 508 c 0,19,20
 104 533 104 533 109.5 569 c 128,-1,21
 115 605 115 605 129 636 c 128,-1,22
 143 667 143 667 158.5 684 c 128,-1,23
 174 701 174 701 195 712 c 128,-1,4
 216 723 216 723 231 726.5 c 128,-1,5
175 513 m 0,24,25
 175 446 175 446 230 446 c 0,26,27
 259 446 259 446 285 458 c 128,-1,28
 311 470 311 470 345 495 c 1,29,-1
 367 655 l 1,30,31
 322 667 322 667 298 667 c 128,-1,32
 274 667 274 667 262 664 c 128,-1,33
 250 661 250 661 242 658 c 128,-1,34
 234 655 234 655 223 647 c 128,-1,35
 212 639 212 639 204 627 c 0,36,37
 186 599 186 599 180.5 564 c 128,-1,38
 175 529 175 529 175 513 c 0,24,25
EndSplineSet
Substitution2: "'smcp' Lowercase to Small Capitals lookup 1 subtable" ordfeminine.smcp
Ligature2: "'ordn' Ordinals lookup 0 subtable" a
EndChar

StartChar: guillemotleft
Encoding: 171 171 108
Width: 562
GlyphClass: 2
Flags: W
LayerCount: 2
Fore
SplineSet
103 354 m 1,0,-1
 341 557 l 1,1,-1
 392 497 l 1,2,-1
 216 347 l 1,3,-1
 343 198 l 1,4,-1
 281 146 l 1,5,-1
 103 354 l 1,0,-1
300 354 m 1,6,-1
 538 557 l 1,7,-1
 589 497 l 1,8,-1
 413 347 l 1,9,-1
 540 198 l 1,10,-1
 478 146 l 1,11,-1
 300 354 l 1,6,-1
EndSplineSet
EndChar

StartChar: logicalnot
Encoding: 172 172 109
Width: 517
GlyphClass: 2
Flags: W
LayerCount: 2
Fore
SplineSet
525 336 m 1,0,-1
 497 159 l 1,1,-1
 413 159 l 1,2,-1
 427 252 l 1,3,-1
 85 252 l 1,4,-1
 98 336 l 1,5,-1
 525 336 l 1,0,-1
EndSplineSet
EndChar

StartChar: uni00AD
Encoding: 173 173 110
Width: 354
GlyphClass: 2
Flags: W
LayerCount: 2
Fore
SplineSet
59 247 m 1,0,-1
 73 333 l 1,1,-1
 387 333 l 1,2,-1
 373 247 l 1,3,-1
 59 247 l 1,0,-1
EndSplineSet
Substitution2: "'case' Case-Sensitive Forms lookup 18 subtable" uni00AD.alt
Substitution2: "'c2sc' Capitals to Small Capitals in Latin lookup 2 subtable" uni00AD.smcp
Substitution2: "'smcp' Lowercase to Small Capitals lookup 1 subtable" uni00AD.smcp
EndChar

StartChar: registered
Encoding: 174 174 111
Width: 802
GlyphClass: 2
Flags: W
LayerCount: 2
Fore
SplineSet
399 732 m 2,0,-1
 650 732 l 2,1,2
 744 732 744 732 783 667 c 0,3,4
 823 599 823 599 823 500 c 0,5,6
 823 353 823 353 777 221 c 0,7,8
 701 0 701 0 543 0 c 2,9,-1
 292 0 l 2,10,11
 237 0 237 0 197.5 27 c 128,-1,12
 158 54 158 54 138 95 c 0,13,14
 100 173 100 173 100 280 c 0,15,16
 100 398 100 398 142 521 c 0,17,18
 214 732 214 732 399 732 c 2,0,-1
178 368 m 0,19,20
 170 325 170 325 170 298.5 c 128,-1,21
 170 272 170 272 172 239.5 c 128,-1,22
 174 207 174 207 185.5 164.5 c 128,-1,23
 197 122 197 122 226 96 c 128,-1,24
 255 70 255 70 296 70 c 2,25,-1
 550 70 l 2,26,27
 614 70 614 70 666 146 c 0,28,29
 725 232 725 232 749 422 c 0,30,31
 754 469 754 469 754 496 c 128,-1,32
 754 523 754 523 753 540.5 c 128,-1,33
 752 558 752 558 745.5 583.5 c 128,-1,34
 739 609 739 609 727 625 c 0,35,36
 700 662 700 662 648 662 c 2,37,-1
 388 662 l 2,38,39
 269 662 269 662 214 514 c 0,40,41
 192 454 192 454 178 368 c 0,19,20
525 580 m 2,42,43
 572 580 572 580 607 554 c 0,44,45
 640 530 640 530 640 472 c 0,46,47
 640 422 640 422 620 377 c 0,48,49
 613 360 613 360 599.5 348 c 128,-1,50
 586 336 586 336 574.5 331.5 c 128,-1,51
 563 327 563 327 558 326 c 128,-1,52
 553 325 553 325 541 322.5 c 128,-1,53
 529 320 529 320 527 320 c 1,54,-1
 590 153 l 1,55,-1
 510 153 l 1,56,-1
 448 320 l 1,57,-1
 379 332 l 1,58,-1
 350 153 l 1,59,-1
 279 153 l 1,60,-1
 347 580 l 1,61,-1
 525 580 l 2,42,43
494 382 m 2,62,63
 532 382 532 382 546 395 c 128,-1,64
 560 408 560 408 566 450 c 0,65,66
 568 460 568 460 568 468.5 c 128,-1,67
 568 477 568 477 566 486.5 c 128,-1,68
 564 496 564 496 554 502 c 0,69,70
 539 510 539 510 514 510 c 2,71,-1
 407 510 l 1,72,-1
 387 382 l 1,73,-1
 494 382 l 2,62,63
EndSplineSet
EndChar

StartChar: macron
Encoding: 175 175 112
Width: 385
GlyphClass: 2
Flags: W
LayerCount: 2
Fore
SplineSet
131 531 m 1,0,-1
 141 598 l 1,1,-1
 433 598 l 1,2,-1
 423 531 l 1,3,-1
 131 531 l 1,0,-1
EndSplineSet
Substitution2: "'smcp' Lowercase to Small Capitals lookup 1 subtable" macron.smcp
EndChar

StartChar: degree
Encoding: 176 176 113
Width: 293
GlyphClass: 2
Flags: W
LayerCount: 2
Fore
SplineSet
248 734 m 128,-1,1
 290 734 290 734 319 704.5 c 128,-1,2
 348 675 348 675 348 634 c 0,3,4
 348 590 348 590 318 560.5 c 128,-1,5
 288 531 288 531 245.5 531 c 128,-1,6
 203 531 203 531 174 560 c 128,-1,7
 145 589 145 589 145 631.5 c 128,-1,8
 145 674 145 674 175.5 704 c 128,-1,0
 206 734 206 734 248 734 c 128,-1,1
247.5 684 m 128,-1,10
 226 684 226 684 210.5 668.5 c 128,-1,11
 195 653 195 653 195 632 c 128,-1,12
 195 611 195 611 210 596 c 128,-1,13
 225 581 225 581 246.5 581 c 128,-1,14
 268 581 268 581 283 596 c 256,15,16
 298 611 298 611 298 632.5 c 128,-1,17
 298 654 298 654 283.5 669 c 128,-1,9
 269 684 269 684 247.5 684 c 128,-1,10
EndSplineSet
Substitution2: "'smcp' Lowercase to Small Capitals lookup 1 subtable" degree.smcp
EndChar

StartChar: plusminus
Encoding: 177 177 114
Width: 519
GlyphClass: 2
Flags: W
LayerCount: 2
Fore
SplineSet
65 82 m 1,0,-1
 79 168 l 1,1,-1
 495 168 l 1,2,-1
 481 82 l 1,3,-1
 65 82 l 1,0,-1
113 386 m 1,4,-1
 126 472 l 1,5,-1
 290 472 l 1,6,-1
 316 636 l 1,7,-1
 402 636 l 1,8,-1
 376 472 l 1,9,-1
 542 472 l 1,10,-1
 529 386 l 1,11,-1
 363 386 l 1,12,-1
 336 220 l 1,13,-1
 250 220 l 1,14,-1
 277 386 l 1,15,-1
 113 386 l 1,4,-1
EndSplineSet
EndChar

StartChar: twosuperior
Encoding: 178 178 115
Width: 388
GlyphClass: 2
Flags: W
LayerCount: 2
Fore
SplineSet
351.5 652 m 128,-1,1
 364 675 364 675 367 691 c 128,-1,2
 370 707 370 707 370 723 c 128,-1,3
 370 739 370 739 358 753 c 128,-1,4
 346 767 346 767 304 767 c 2,5,-1
 135 767 l 2,6,7
 132 767 132 767 143 818 c 1,8,-1
 144 824 l 1,9,10
 265 840 265 840 332 840 c 0,11,12
 376 840 376 840 405 814 c 0,13,14
 448 776 448 776 448 719 c 0,15,16
 448 663 448 663 410 607.5 c 128,-1,17
 372 552 372 552 339 523 c 128,-1,18
 306 494 306 494 266 463.5 c 128,-1,19
 226 433 226 433 222 428 c 1,20,-1
 402 428 l 1,21,-1
 391 356 l 1,22,-1
 73 356 l 1,23,-1
 84 424 l 1,24,25
 91 429 91 429 121 449 c 128,-1,26
 151 469 151 469 170 482.5 c 128,-1,27
 189 496 189 496 220.5 519.5 c 128,-1,28
 252 543 252 543 273 562.5 c 128,-1,29
 294 582 294 582 316.5 605.5 c 128,-1,0
 339 629 339 629 351.5 652 c 128,-1,1
EndSplineSet
EndChar

StartChar: threesuperior
Encoding: 179 179 116
Width: 405
GlyphClass: 2
Flags: W
LayerCount: 2
Fore
SplineSet
262 352 m 2,0,-1
 232 352 l 2,1,2
 147 352 147 352 119.5 357.5 c 128,-1,3
 92 363 92 363 74 370 c 1,4,-1
 84 423 l 1,5,-1
 256 424 l 2,6,7
 326 424 326 424 335 480 c 1,8,-1
 339 500 l 2,9,10
 340 507 340 507 340 514 c 0,11,12
 340 560 340 560 281 562 c 2,13,-1
 145 567 l 1,14,-1
 155 626 l 1,15,-1
 293 631 l 2,16,17
 362 634 362 634 370 689 c 2,18,-1
 373 709 l 2,19,20
 374 717 374 717 374 729.5 c 128,-1,21
 374 742 374 742 362.5 752.5 c 128,-1,22
 351 763 351 763 314 763 c 2,23,-1
 133 763 l 1,24,-1
 141 816 l 1,25,26
 197 835 197 835 288 835 c 0,27,28
 314 835 314 835 343 835 c 0,29,30
 399 834 399 834 424 802.5 c 128,-1,31
 449 771 449 771 449 735 c 0,32,33
 449 725 449 725 448 715 c 2,34,-1
 442 681 l 2,35,36
 436 646 436 646 419 621 c 128,-1,37
 402 596 402 596 379 589 c 1,38,39
 414 568 414 568 414 517 c 0,40,41
 414 507 414 507 413 496 c 2,42,-1
 409 470 l 2,43,44
 400 411 400 411 366.5 381.5 c 128,-1,45
 333 352 333 352 265 352 c 0,46,47
 264 352 264 352 262 352 c 2,0,-1
EndSplineSet
EndChar

StartChar: acute
Encoding: 180 180 117
Width: 242
GlyphClass: 2
Flags: W
LayerCount: 2
Fore
SplineSet
103 531 m 1,0,-1
 226 666 l 1,1,-1
 329 666 l 1,2,-1
 178 531 l 1,3,-1
 103 531 l 1,0,-1
EndSplineSet
Substitution2: "'smcp' Lowercase to Small Capitals lookup 1 subtable" acute.smcp
EndChar

StartChar: uni00B5
Encoding: 181 181 118
Width: 592
GlyphClass: 2
Flags: W
LayerCount: 2
Fore
SplineSet
202 165 m 2,0,1
 200 153 200 153 200 133.5 c 128,-1,2
 200 114 200 114 216 95 c 128,-1,3
 232 76 232 76 276 76 c 128,-1,4
 320 76 320 76 356 87.5 c 128,-1,5
 392 99 392 99 455 130 c 1,6,-1
 519 531 l 1,7,-1
 611 531 l 1,8,-1
 527 0 l 1,9,-1
 459 0 l 1,10,-1
 445 60 l 1,11,12
 439 57 439 57 425 49.5 c 128,-1,13
 411 42 411 42 404.5 39 c 128,-1,14
 398 36 398 36 385.5 29.5 c 128,-1,15
 373 23 373 23 365 19.5 c 128,-1,16
 357 16 357 16 345 11.5 c 128,-1,17
 333 7 333 7 323.5 4.5 c 128,-1,18
 314 2 314 2 303 -1 c 0,19,20
 228 -19 228 -19 178 13 c 1,21,-1
 133 -270 l 1,22,-1
 41 -270 l 1,23,-1
 168 531 l 1,24,-1
 260 531 l 1,25,-1
 202 165 l 2,0,1
EndSplineSet
EndChar

StartChar: paragraph
Encoding: 182 182 119
Width: 579
GlyphClass: 2
Flags: W
LayerCount: 2
Fore
SplineSet
309 732 m 2,0,-1
 677 732 l 1,1,-1
 664 648 l 1,2,-1
 599 648 l 1,3,-1
 497 0 l 1,4,-1
 415 0 l 1,5,-1
 518 650 l 1,6,-1
 432 650 l 1,7,-1
 286 -270 l 1,8,-1
 204 -270 l 1,9,-1
 306 372 l 2,10,11
 305 372 305 372 298 368.5 c 128,-1,12
 291 365 291 365 284 363 c 0,13,14
 264 355 264 355 235.5 355 c 128,-1,15
 207 355 207 355 178 369 c 0,16,17
 128 393 128 393 116 452 c 0,18,19
 114 466 114 466 114 478.5 c 128,-1,20
 114 491 114 491 115 502 c 2,21,-1
 129 595 l 1,22,23
 151 732 151 732 309 732 c 2,0,-1
198 504 m 2,24,25
 197 494 197 494 197 484 c 128,-1,26
 197 474 197 474 201 462.5 c 128,-1,27
 205 451 205 451 217 445 c 0,28,29
 236 436 236 436 260 436 c 2,30,-1
 316 436 l 1,31,-1
 350 653 l 1,32,-1
 298 653 l 2,33,34
 241 653 241 653 223 621 c 0,35,36
 214 607 214 607 211 585 c 2,37,-1
 198 504 l 2,24,25
EndSplineSet
EndChar

StartChar: periodcentered
Encoding: 183 183 120
Width: 268
GlyphClass: 2
Flags: W
LayerCount: 2
Fore
SplineSet
172 441 m 2,0,-1
 234 441 l 2,1,2
 256 441 256 441 256 423 c 0,3,4
 256 420 256 420 255 416 c 2,5,-1
 245 350 l 2,6,7
 241 327 241 327 217 327 c 2,8,-1
 155 327 l 2,9,10
 144 327 144 327 138 333.5 c 128,-1,11
 132 340 132 340 134 350 c 2,12,-1
 144 416 l 2,13,14
 148 441 148 441 172 441 c 2,0,-1
EndSplineSet
Substitution2: "'smcp' Lowercase to Small Capitals lookup 1 subtable" periodcentered.smcp
EndChar

StartChar: cedilla
Encoding: 184 184 121
Width: 249
GlyphClass: 2
Flags: W
LayerCount: 2
Fore
SplineSet
71 -174 m 2,0,-1
 19 -174 l 1,1,-1
 26 -131 l 1,2,-1
 78 -116 l 1,3,4
 99 -108 99 -108 108.5 -89 c 128,-1,5
 118 -70 118 -70 123 -37 c 1,6,-1
 197 -37 l 1,7,8
 185 -114 185 -114 159 -144 c 0,9,10
 132 -174 132 -174 71 -174 c 2,0,-1
EndSplineSet
EndChar

StartChar: onesuperior
Encoding: 185 185 122
Width: 277
GlyphClass: 2
Flags: W
LayerCount: 2
Fore
SplineSet
114 719 m 1,0,-1
 122 770 l 1,1,2
 152 770 152 770 186 786 c 0,3,4
 239 811 239 811 260 835 c 1,5,-1
 332 835 l 1,6,-1
 256 356 l 1,7,-1
 182 356 l 1,8,-1
 245 750 l 1,9,10
 229 738 229 738 194 728.5 c 128,-1,11
 159 719 159 719 114 719 c 1,0,-1
EndSplineSet
EndChar

StartChar: ordmasculine
Encoding: 186 186 123
Width: 387
GlyphClass: 3
Flags: W
LayerCount: 2
Fore
SplineSet
81 269 m 1,0,-1
 91 330 l 1,1,-1
 402 330 l 1,2,-1
 393 269 l 1,3,-1
 81 269 l 1,0,-1
428 695 m 0,4,5
 452 666 452 666 452 607 c 0,6,7
 452 580 452 580 445.5 538.5 c 128,-1,8
 439 497 439 497 427.5 466 c 128,-1,9
 416 435 416 435 394 413 c 0,10,11
 354 372 354 372 261 372 c 128,-1,12
 168 372 168 372 134 415 c 0,13,14
 111 445 111 445 111 500 c 0,15,16
 111 524 111 524 115 552 c 0,17,18
 132 658 132 658 171 697 c 0,19,20
 211 737 211 737 302 737 c 128,-1,21
 393 737 393 737 428 695 c 0,4,5
203.5 616.5 m 128,-1,23
 195 592 195 592 189.5 556 c 128,-1,24
 184 520 184 520 184 502.5 c 128,-1,25
 184 485 184 485 188.5 474 c 128,-1,26
 193 463 193 463 197.5 456 c 128,-1,27
 202 449 202 449 215 446 c 0,28,29
 235 441 235 441 261 441 c 128,-1,30
 287 441 287 441 295.5 441.5 c 128,-1,31
 304 442 304 442 319.5 447.5 c 128,-1,32
 335 453 335 453 343 464 c 0,33,34
 380 511 380 511 380 612 c 0,35,36
 380 658 380 658 347 665 c 1,37,38
 328 668 328 668 298.5 668 c 128,-1,39
 269 668 269 668 255.5 665.5 c 128,-1,40
 242 663 242 663 227 652 c 128,-1,22
 212 641 212 641 203.5 616.5 c 128,-1,23
EndSplineSet
Substitution2: "'smcp' Lowercase to Small Capitals lookup 1 subtable" ordmasculine.smcp
Ligature2: "'ordn' Ordinals lookup 0 subtable" o
EndChar

StartChar: guillemotright
Encoding: 187 187 124
Width: 559
GlyphClass: 2
Flags: W
LayerCount: 2
Fore
SplineSet
79 207 m 1,0,-1
 255 358 l 1,1,-1
 130 504 l 1,2,-1
 191 557 l 1,3,-1
 368 350 l 1,4,-1
 131 146 l 1,5,-1
 79 207 l 1,0,-1
279 207 m 1,6,-1
 456 358 l 1,7,-1
 330 504 l 1,8,-1
 391 557 l 1,9,-1
 569 350 l 1,10,-1
 331 146 l 1,11,-1
 279 207 l 1,6,-1
EndSplineSet
EndChar

StartChar: onequarter
Encoding: 188 188 125
Width: 920
GlyphClass: 3
Flags: W
LayerCount: 2
Fore
SplineSet
114 619 m 1,0,-1
 122 670 l 1,1,2
 152 670 152 670 186 686 c 0,3,4
 239 711 239 711 260 735 c 1,5,-1
 332 735 l 1,6,-1
 256 256 l 1,7,-1
 182 256 l 1,8,-1
 245 650 l 1,9,10
 229 638 229 638 194 628.5 c 128,-1,11
 159 619 159 619 114 619 c 1,0,-1
177 0 m 1,12,-1
 750 770 l 1,13,-1
 823 770 l 1,14,-1
 250 0 l 1,15,-1
 177 0 l 1,12,-1
530 144 m 1,16,-1
 781 477 l 1,17,-1
 867 477 l 1,18,-1
 654 189 l 1,19,-1
 801 189 l 1,20,-1
 819 305 l 1,21,-1
 854 354 l 1,22,-1
 901 354 l 1,23,-1
 875 189 l 1,24,-1
 931 189 l 1,25,-1
 921 128 l 1,26,-1
 863 114 l 1,27,-1
 845 0 l 1,28,-1
 771 0 l 1,29,-1
 789 114 l 1,30,-1
 549 114 l 1,31,-1
 530 144 l 1,16,-1
EndSplineSet
Ligature2: "'frac' Diagonal Fractions lookup 7 subtable" one slash four
Ligature2: "'frac' Diagonal Fractions lookup 7 subtable" one fraction four
EndChar

StartChar: onehalf
Encoding: 189 189 126
Width: 992
GlyphClass: 3
Flags: W
LayerCount: 2
Fore
SplineSet
114 619 m 1,0,-1
 122 670 l 1,1,2
 152 670 152 670 186 686 c 0,3,4
 239 711 239 711 260 735 c 1,5,-1
 332 735 l 1,6,-1
 256 256 l 1,7,-1
 182 256 l 1,8,-1
 245 650 l 1,9,10
 229 638 229 638 194 628.5 c 128,-1,11
 159 619 159 619 114 619 c 1,0,-1
168 0 m 1,12,-1
 741 770 l 1,13,-1
 814 770 l 1,14,-1
 241 0 l 1,15,-1
 168 0 l 1,12,-1
915 296 m 128,-1,17
 928 319 928 319 930.5 335 c 128,-1,18
 933 351 933 351 933 367 c 128,-1,19
 933 383 933 383 921.5 397 c 128,-1,20
 910 411 910 411 868 411 c 2,21,-1
 699 411 l 2,22,23
 697 411 697 411 705 454 c 1,24,-1
 708 468 l 1,25,26
 828 484 828 484 896 484 c 0,27,28
 940 484 940 484 968 458 c 1,29,30
 1012 420 1012 420 1012 363 c 0,31,32
 1012 307 1012 307 974 251.5 c 128,-1,33
 936 196 936 196 903 167 c 128,-1,34
 870 138 870 138 830 107.5 c 128,-1,35
 790 77 790 77 785 72 c 1,36,-1
 966 72 l 1,37,-1
 954 0 l 1,38,-1
 637 0 l 1,39,-1
 647 68 l 1,40,41
 654 73 654 73 684.5 93 c 128,-1,42
 715 113 715 113 734 126.5 c 128,-1,43
 753 140 753 140 784.5 163.5 c 128,-1,44
 816 187 816 187 837 206.5 c 128,-1,45
 858 226 858 226 880 249.5 c 128,-1,16
 902 273 902 273 915 296 c 128,-1,17
EndSplineSet
Ligature2: "'frac' Diagonal Fractions lookup 7 subtable" one slash two
Ligature2: "'frac' Diagonal Fractions lookup 7 subtable" one fraction two
EndChar

StartChar: threequarters
Encoding: 190 190 127
Width: 1034
GlyphClass: 3
Flags: W
LayerCount: 2
Fore
SplineSet
379 489 m 1,0,1
 414 468 414 468 414 417 c 0,2,3
 414 407 414 407 413 396 c 2,4,-1
 409 370 l 2,5,6
 400 311 400 311 366.5 281.5 c 128,-1,7
 333 252 333 252 265 252 c 0,8,9
 264 252 264 252 261 252 c 128,-1,10
 258 252 258 252 238.5 252 c 128,-1,11
 219 252 219 252 214 252 c 128,-1,12
 209 252 209 252 192.5 252 c 128,-1,13
 176 252 176 252 170 252.5 c 128,-1,14
 164 253 164 253 150.5 254 c 128,-1,15
 137 255 137 255 130 256.5 c 128,-1,16
 123 258 123 258 112 260 c 0,17,18
 94 263 94 263 74 270 c 1,19,-1
 84 323 l 1,20,-1
 256 324 l 2,21,22
 326 324 326 324 335 380 c 1,23,-1
 339 400 l 2,24,25
 340 407 340 407 340 414 c 0,26,27
 340 460 340 460 281 462 c 2,28,-1
 145 467 l 1,29,-1
 155 526 l 1,30,-1
 293 531 l 2,31,32
 362 534 362 534 370 589 c 2,33,-1
 373 609 l 2,34,35
 374 617 374 617 374 629.5 c 128,-1,36
 374 642 374 642 362.5 652.5 c 128,-1,37
 351 663 351 663 314 663 c 2,38,-1
 133 663 l 1,39,-1
 141 716 l 1,40,41
 197 735 197 735 288 735 c 0,42,43
 314 735 314 735 343 735 c 0,44,45
 399 734 399 734 424 702.5 c 128,-1,46
 449 671 449 671 449 635 c 0,47,48
 449 625 449 625 448 615 c 2,49,-1
 442 581 l 2,50,51
 436 546 436 546 419 521 c 128,-1,52
 402 496 402 496 379 489 c 1,0,1
276 0 m 1,53,-1
 849 770 l 1,54,-1
 922 770 l 1,55,-1
 349 0 l 1,56,-1
 276 0 l 1,53,-1
616 144 m 1,57,-1
 867 477 l 1,58,-1
 952 477 l 1,59,-1
 739 189 l 1,60,-1
 887 189 l 1,61,-1
 905 305 l 1,62,-1
 940 354 l 1,63,-1
 987 354 l 1,64,-1
 961 189 l 1,65,-1
 1016 189 l 1,66,-1
 1007 128 l 1,67,-1
 949 114 l 1,68,-1
 931 0 l 1,69,-1
 857 0 l 1,70,-1
 875 114 l 1,71,-1
 635 114 l 1,72,-1
 616 144 l 1,57,-1
EndSplineSet
Ligature2: "'frac' Diagonal Fractions lookup 7 subtable" three slash four
Ligature2: "'frac' Diagonal Fractions lookup 7 subtable" three fraction four
EndChar

StartChar: questiondown
Encoding: 191 191 128
Width: 538
GlyphClass: 2
Flags: W
LayerCount: 2
Fore
SplineSet
298.5 -269.5 m 128,-1,1
 287 -270 287 -270 271.5 -270.5 c 128,-1,2
 256 -271 256 -271 241 -271 c 128,-1,3
 226 -271 226 -271 197 -270 c 1,4,5
 100 -270 100 -270 55 -213 c 0,6,7
 21 -170 21 -170 21 -113 c 0,8,9
 21 -96 21 -96 24 -78 c 2,10,-1
 39 15 l 2,11,12
 56 124 56 124 128 159 c 0,13,14
 176 182 176 182 240 182 c 0,15,16
 271 182 271 182 303 176 c 1,17,-1
 319 274 l 1,18,-1
 404 274 l 1,19,-1
 377 103 l 1,20,21
 332 104 332 104 298.5 104 c 128,-1,22
 265 104 265 104 233 103 c 128,-1,23
 201 102 201 102 169 79.5 c 128,-1,24
 137 57 137 57 130 11 c 2,25,-1
 116 -77 l 2,26,27
 113 -92 113 -92 113 -105 c 0,28,29
 113 -142 113 -142 135 -162.5 c 128,-1,30
 157 -183 157 -183 228 -183 c 2,31,-1
 493 -183 l 1,32,-1
 483 -248 l 1,33,34
 479 -249 479 -249 451 -253 c 128,-1,35
 423 -257 423 -257 418 -257.5 c 128,-1,36
 413 -258 413 -258 389.5 -261 c 128,-1,37
 366 -264 366 -264 358.5 -264.5 c 128,-1,38
 351 -265 351 -265 330.5 -267 c 128,-1,0
 310 -269 310 -269 298.5 -269.5 c 128,-1,1
363 469 m 2,39,-1
 427 469 l 2,40,41
 438 469 438 469 443.5 463 c 128,-1,42
 449 457 449 457 448 446 c 2,43,-1
 438 380 l 2,44,45
 434 355 434 355 410 355 c 2,46,-1
 346 355 l 2,47,48
 326 355 326 355 326 374 c 0,49,50
 326 377 326 377 327 380 c 2,51,-1
 337 446 l 2,52,53
 340 469 340 469 363 469 c 2,39,-1
EndSplineSet
Substitution2: "'case' Case-Sensitive Forms lookup 18 subtable" questiondown.alt
Substitution2: "'smcp' Lowercase to Small Capitals lookup 1 subtable" questiondown.smcp
EndChar

StartChar: Agrave
Encoding: 192 192 129
Width: 667
GlyphClass: 2
Flags: W
LayerCount: 2
Fore
SplineSet
324 932 m 1,0,-1
 419 932 l 1,1,-1
 518 797 l 1,2,-1
 443 797 l 1,3,-1
 324 932 l 1,0,-1
42 0 m 1,4,-1
 421 732 l 1,5,-1
 518 732 l 1,6,-1
 654 0 l 1,7,-1
 560 0 l 1,8,-1
 524 193 l 1,9,-1
 243 193 l 1,10,-1
 143 0 l 1,11,-1
 42 0 l 1,4,-1
287 280 m 1,12,-1
 510 280 l 1,13,-1
 453 607 l 1,14,-1
 287 280 l 1,12,-1
EndSplineSet
Substitution2: "'c2sc' Capitals to Small Capitals in Latin lookup 2 subtable" agrave.smcp
EndChar

StartChar: Aacute
Encoding: 193 193 130
Width: 667
GlyphClass: 2
Flags: W
LayerCount: 2
Fore
SplineSet
443 797 m 1,0,-1
 566 932 l 1,1,-1
 669 932 l 1,2,-1
 518 797 l 1,3,-1
 443 797 l 1,0,-1
42 0 m 1,4,-1
 421 732 l 1,5,-1
 518 732 l 1,6,-1
 654 0 l 1,7,-1
 560 0 l 1,8,-1
 524 193 l 1,9,-1
 243 193 l 1,10,-1
 143 0 l 1,11,-1
 42 0 l 1,4,-1
287 280 m 1,12,-1
 510 280 l 1,13,-1
 453 607 l 1,14,-1
 287 280 l 1,12,-1
EndSplineSet
Substitution2: "'c2sc' Capitals to Small Capitals in Latin lookup 2 subtable" aacute.smcp
EndChar

StartChar: Acircumflex
Encoding: 194 194 131
Width: 667
GlyphClass: 2
Flags: W
LayerCount: 2
Fore
SplineSet
332 797 m 1,0,-1
 467 928 l 1,1,-1
 547 928 l 1,2,-1
 628 797 l 1,3,-1
 556 797 l 1,4,-1
 503 875 l 1,5,-1
 418 797 l 1,6,-1
 332 797 l 1,0,-1
42 0 m 1,7,-1
 421 732 l 1,8,-1
 518 732 l 1,9,-1
 654 0 l 1,10,-1
 560 0 l 1,11,-1
 524 193 l 1,12,-1
 243 193 l 1,13,-1
 143 0 l 1,14,-1
 42 0 l 1,7,-1
287 280 m 1,15,-1
 510 280 l 1,16,-1
 453 607 l 1,17,-1
 287 280 l 1,15,-1
EndSplineSet
Substitution2: "'c2sc' Capitals to Small Capitals in Latin lookup 2 subtable" acircumflex.smcp
EndChar

StartChar: Atilde
Encoding: 195 195 132
Width: 667
GlyphClass: 2
Flags: W
LayerCount: 2
Fore
SplineSet
503 890 m 128,-1,1
 533 874 533 874 540 873.5 c 128,-1,2
 547 873 547 873 556 873 c 128,-1,3
 565 873 565 873 600.5 887 c 128,-1,4
 636 901 636 901 646 908 c 1,5,-1
 661 861 l 1,6,7
 654 856 654 856 637.5 844 c 128,-1,8
 621 832 621 832 611.5 826 c 128,-1,9
 602 820 602 820 588 812 c 0,10,11
 539 785 539 785 494 807 c 0,12,13
 476 816 476 816 461.5 824 c 128,-1,14
 447 832 447 832 432 832 c 128,-1,15
 417 832 417 832 402 828 c 128,-1,16
 387 824 387 824 378.5 820.5 c 128,-1,17
 370 817 370 817 354 808.5 c 128,-1,18
 338 800 338 800 332 797 c 1,19,-1
 317 842 l 1,20,21
 369 883 369 883 397.5 895 c 128,-1,22
 426 907 426 907 449.5 906.5 c 128,-1,0
 473 906 473 906 503 890 c 128,-1,1
42 0 m 1,23,-1
 421 732 l 1,24,-1
 518 732 l 1,25,-1
 654 0 l 1,26,-1
 560 0 l 1,27,-1
 524 193 l 1,28,-1
 243 193 l 1,29,-1
 143 0 l 1,30,-1
 42 0 l 1,23,-1
287 280 m 1,31,-1
 510 280 l 1,32,-1
 453 607 l 1,33,-1
 287 280 l 1,31,-1
EndSplineSet
Substitution2: "'c2sc' Capitals to Small Capitals in Latin lookup 2 subtable" atilde.smcp
EndChar

StartChar: Adieresis
Encoding: 196 196 133
Width: 667
GlyphClass: 2
Flags: W
LayerCount: 2
Fore
SplineSet
370 902 m 128,-1,1
 392 902 392 902 403.5 888.5 c 128,-1,2
 415 875 415 875 415 865 c 0,3,4
 415 832 415 832 395 814.5 c 128,-1,5
 375 797 375 797 353 797 c 128,-1,6
 331 797 331 797 319.5 811 c 128,-1,7
 308 825 308 825 308 836 c 0,8,9
 308 869 308 869 328 885.5 c 128,-1,0
 348 902 348 902 370 902 c 128,-1,1
625 902 m 128,-1,11
 647 902 647 902 658.5 888.5 c 128,-1,12
 670 875 670 875 670 865 c 0,13,14
 670 832 670 832 650 814.5 c 128,-1,15
 630 797 630 797 608 797 c 128,-1,16
 586 797 586 797 574.5 811 c 128,-1,17
 563 825 563 825 563 836 c 0,18,19
 563 869 563 869 583 885.5 c 128,-1,10
 603 902 603 902 625 902 c 128,-1,11
42 0 m 1,20,-1
 421 732 l 1,21,-1
 518 732 l 1,22,-1
 654 0 l 1,23,-1
 560 0 l 1,24,-1
 524 193 l 1,25,-1
 243 193 l 1,26,-1
 143 0 l 1,27,-1
 42 0 l 1,20,-1
287 280 m 1,28,-1
 510 280 l 1,29,-1
 453 607 l 1,30,-1
 287 280 l 1,28,-1
EndSplineSet
Substitution2: "'c2sc' Capitals to Small Capitals in Latin lookup 2 subtable" adieresis.smcp
EndChar

StartChar: Aring
Encoding: 197 197 134
Width: 667
GlyphClass: 2
Flags: W
LayerCount: 2
Fore
SplineSet
495 934 m 128,-1,1
 453 934 453 934 418.5 902.5 c 128,-1,2
 384 871 384 871 384 822 c 0,3,4
 384 786 384 786 409.5 758 c 128,-1,5
 435 730 435 730 477.5 730 c 128,-1,6
 520 730 520 730 554 761.5 c 128,-1,7
 588 793 588 793 588 842 c 0,8,9
 588 878 588 878 562.5 906 c 128,-1,0
 537 934 537 934 495 934 c 128,-1,1
490.5 884 m 128,-1,11
 512 884 512 884 524.5 869.5 c 128,-1,12
 537 855 537 855 537 837 c 0,13,14
 537 804 537 804 508 788 c 0,15,16
 496 781 496 781 478 781 c 128,-1,17
 460 781 460 781 447 795 c 128,-1,18
 434 809 434 809 434 830 c 128,-1,19
 434 851 434 851 451.5 867.5 c 128,-1,10
 469 884 469 884 490.5 884 c 128,-1,11
42 0 m 1,20,-1
 421 732 l 1,21,-1
 518 732 l 1,22,-1
 654 0 l 1,23,-1
 560 0 l 1,24,-1
 524 193 l 1,25,-1
 243 193 l 1,26,-1
 143 0 l 1,27,-1
 42 0 l 1,20,-1
287 280 m 1,28,-1
 510 280 l 1,29,-1
 453 607 l 1,30,-1
 287 280 l 1,28,-1
EndSplineSet
Substitution2: "'c2sc' Capitals to Small Capitals in Latin lookup 2 subtable" aring.smcp
EndChar

StartChar: AE
Encoding: 198 198 135
Width: 946
GlyphClass: 2
Flags: W
LayerCount: 2
Fore
SplineSet
625 733 m 1,0,-1
 665 732 l 2,1,2
 675 732 675 732 829.5 725 c 128,-1,3
 984 718 984 718 1001 716 c 1,4,-1
 990 641 l 1,5,-1
 681 641 l 2,6,7
 646 641 646 641 635 624 c 0,8,9
 627 611 627 611 622 588 c 1,10,-1
 593 405 l 1,11,-1
 909 395 l 1,12,-1
 897 321 l 1,13,-1
 578 311 l 1,14,-1
 550 137 l 2,15,16
 544 99 544 99 564 91 c 0,17,18
 579 85 579 85 605 85 c 2,19,-1
 902 85 l 1,20,-1
 889 12 l 1,21,-1
 581 -5 l 2,22,23
 576 -5 576 -5 563 -5 c 128,-1,24
 550 -5 550 -5 529 1 c 0,25,26
 454 20 454 20 454 97 c 0,27,28
 454 109 454 109 456 121 c 2,29,-1
 470 221 l 1,30,-1
 277 221 l 1,31,-1
 133 0 l 1,32,-1
 28 0 l 1,33,-1
 417 596 l 2,34,35
 472 680 472 680 527 708 c 0,36,37
 576 733 576 733 625 733 c 1,0,-1
333 308 m 1,38,-1
 485 308 l 1,39,-1
 536 616 l 1,40,-1
 333 308 l 1,38,-1
EndSplineSet
EndChar

StartChar: Ccedilla
Encoding: 199 199 136
Width: 576
GlyphClass: 2
Flags: W
LayerCount: 2
Fore
SplineSet
309.5 723.5 m 128,-1,1
 355 740 355 740 436 740 c 128,-1,2
 517 740 517 740 656 708 c 1,3,-1
 645 636 l 1,4,5
 531 651 531 651 432 651 c 0,6,7
 422 651 422 651 416 651 c 128,-1,8
 410 651 410 651 401.5 651 c 128,-1,9
 393 651 393 651 385.5 650.5 c 128,-1,10
 378 650 378 650 363 647.5 c 128,-1,11
 348 645 348 645 338 640 c 128,-1,12
 328 635 328 635 313 625 c 128,-1,13
 298 615 298 615 287.5 601 c 128,-1,14
 277 587 277 587 264 565.5 c 128,-1,15
 251 544 251 544 241 516 c 0,16,17
 218 451 218 451 206.5 377 c 128,-1,18
 195 303 195 303 195 269.5 c 128,-1,19
 195 236 195 236 196 222 c 0,20,21
 200 161 200 161 230 124 c 128,-1,22
 260 87 260 87 316 83 c 0,23,24
 334 82 334 82 383.5 82 c 128,-1,25
 433 82 433 82 561 91 c 1,26,-1
 551 18 l 1,27,28
 466 -6 466 -6 311 -6 c 0,29,30
 191 -6 191 -6 143 75 c 0,31,32
 101 145 101 145 101 256 c 0,33,34
 101 366 101 366 138 501 c 0,35,36
 172 624 172 624 232 679 c 0,37,0
 264 707 264 707 309.5 723.5 c 128,-1,1
238 -174 m 2,38,-1
 185 -174 l 1,39,-1
 192 -131 l 1,40,-1
 245 -116 l 2,41,42
 266 -110 266 -110 275 -90.5 c 128,-1,43
 284 -71 284 -71 290 -37 c 1,44,-1
 364 -37 l 1,45,46
 356 -89 356 -89 342 -118 c 128,-1,47
 328 -147 328 -147 303.5 -160.5 c 128,-1,48
 279 -174 279 -174 238 -174 c 2,38,-1
EndSplineSet
Substitution2: "'c2sc' Capitals to Small Capitals in Latin lookup 2 subtable" ccedilla.smcp
EndChar

StartChar: Egrave
Encoding: 200 200 137
Width: 565
GlyphClass: 2
Flags: W
LayerCount: 2
Fore
SplineSet
278 926 m 1,0,-1
 374 926 l 1,1,-1
 472 792 l 1,2,-1
 397 792 l 1,3,-1
 278 926 l 1,0,-1
313 732 m 0,4,5
 318 732 318 732 468.5 725 c 128,-1,6
 619 718 619 718 636 716 c 1,7,-1
 625 642 l 1,8,-1
 318 642 l 2,9,10
 274 642 274 642 262 607 c 0,11,12
 259 598 259 598 257 586 c 2,13,-1
 229 410 l 1,14,-1
 545 400 l 1,15,-1
 533 326 l 1,16,-1
 215 316 l 1,17,-1
 186 139 l 1,18,19
 181 101 181 101 201 93 c 0,20,21
 216 87 216 87 241 87 c 2,22,-1
 538 87 l 1,23,-1
 525 14 l 1,24,-1
 217 -3 l 2,25,26
 212 -3 212 -3 199 -3 c 128,-1,27
 186 -3 186 -3 164 3 c 0,28,29
 91 23 91 23 91 102 c 0,30,31
 91 116 91 116 93 130 c 2,32,-1
 167 598 l 2,33,34
 189 732 189 732 313 732 c 0,4,5
EndSplineSet
Substitution2: "'c2sc' Capitals to Small Capitals in Latin lookup 2 subtable" egrave.smcp
EndChar

StartChar: Eacute
Encoding: 201 201 138
Width: 565
GlyphClass: 2
Flags: W
LayerCount: 2
Fore
SplineSet
394 792 m 1,0,-1
 517 926 l 1,1,-1
 620 926 l 1,2,-1
 468 792 l 1,3,-1
 394 792 l 1,0,-1
313 732 m 0,4,5
 318 732 318 732 468.5 725 c 128,-1,6
 619 718 619 718 636 716 c 1,7,-1
 625 642 l 1,8,-1
 318 642 l 2,9,10
 274 642 274 642 262 607 c 0,11,12
 259 598 259 598 257 586 c 2,13,-1
 229 410 l 1,14,-1
 545 400 l 1,15,-1
 533 326 l 1,16,-1
 215 316 l 1,17,-1
 186 139 l 1,18,19
 181 101 181 101 201 93 c 0,20,21
 216 87 216 87 241 87 c 2,22,-1
 538 87 l 1,23,-1
 525 14 l 1,24,-1
 217 -3 l 2,25,26
 212 -3 212 -3 199 -3 c 128,-1,27
 186 -3 186 -3 164 3 c 0,28,29
 91 23 91 23 91 102 c 0,30,31
 91 116 91 116 93 130 c 2,32,-1
 167 598 l 2,33,34
 189 732 189 732 313 732 c 0,4,5
EndSplineSet
Substitution2: "'c2sc' Capitals to Small Capitals in Latin lookup 2 subtable" eacute.smcp
EndChar

StartChar: Ecircumflex
Encoding: 202 202 139
Width: 565
GlyphClass: 2
Flags: W
LayerCount: 2
Fore
SplineSet
282 792 m 1,0,-1
 418 924 l 1,1,-1
 498 924 l 1,2,-1
 579 792 l 1,3,-1
 504 792 l 1,4,-1
 455 868 l 1,5,-1
 374 792 l 1,6,-1
 282 792 l 1,0,-1
313 732 m 0,7,8
 318 732 318 732 468.5 725 c 128,-1,9
 619 718 619 718 636 716 c 1,10,-1
 625 642 l 1,11,-1
 318 642 l 2,12,13
 274 642 274 642 262 607 c 0,14,15
 259 598 259 598 257 586 c 2,16,-1
 229 410 l 1,17,-1
 545 400 l 1,18,-1
 533 326 l 1,19,-1
 215 316 l 1,20,-1
 186 139 l 1,21,22
 181 101 181 101 201 93 c 0,23,24
 216 87 216 87 241 87 c 2,25,-1
 538 87 l 1,26,-1
 525 14 l 1,27,-1
 217 -3 l 2,28,29
 212 -3 212 -3 199 -3 c 128,-1,30
 186 -3 186 -3 164 3 c 0,31,32
 91 23 91 23 91 102 c 0,33,34
 91 116 91 116 93 130 c 2,35,-1
 167 598 l 2,36,37
 189 732 189 732 313 732 c 0,7,8
EndSplineSet
Substitution2: "'c2sc' Capitals to Small Capitals in Latin lookup 2 subtable" ecircumflex.smcp
EndChar

StartChar: Edieresis
Encoding: 203 203 140
Width: 565
GlyphClass: 2
Flags: W
LayerCount: 2
Fore
SplineSet
312 895 m 128,-1,1
 334 895 334 895 345.5 881.5 c 128,-1,2
 357 868 357 868 357 858 c 0,3,4
 357 824 357 824 337 807 c 128,-1,5
 317 790 317 790 295.5 790 c 128,-1,6
 274 790 274 790 262 804 c 128,-1,7
 250 818 250 818 250 828 c 0,8,9
 250 862 250 862 270 878.5 c 128,-1,0
 290 895 290 895 312 895 c 128,-1,1
567 895 m 128,-1,11
 589 895 589 895 600.5 881.5 c 128,-1,12
 612 868 612 868 612 858 c 0,13,14
 612 824 612 824 592 807 c 128,-1,15
 572 790 572 790 550.5 790 c 128,-1,16
 529 790 529 790 517 804 c 128,-1,17
 505 818 505 818 505 828 c 0,18,19
 505 862 505 862 525 878.5 c 128,-1,10
 545 895 545 895 567 895 c 128,-1,11
313 732 m 0,20,21
 318 732 318 732 468.5 725 c 128,-1,22
 619 718 619 718 636 716 c 1,23,-1
 625 642 l 1,24,-1
 318 642 l 2,25,26
 274 642 274 642 262 607 c 0,27,28
 259 598 259 598 257 586 c 2,29,-1
 229 410 l 1,30,-1
 545 400 l 1,31,-1
 533 326 l 1,32,-1
 215 316 l 1,33,-1
 186 139 l 1,34,35
 181 101 181 101 201 93 c 0,36,37
 216 87 216 87 241 87 c 2,38,-1
 538 87 l 1,39,-1
 525 14 l 1,40,-1
 217 -3 l 2,41,42
 212 -3 212 -3 199 -3 c 128,-1,43
 186 -3 186 -3 164 3 c 0,44,45
 91 23 91 23 91 102 c 0,46,47
 91 116 91 116 93 130 c 2,48,-1
 167 598 l 2,49,50
 189 732 189 732 313 732 c 0,20,21
EndSplineSet
Substitution2: "'c2sc' Capitals to Small Capitals in Latin lookup 2 subtable" edieresis.smcp
EndChar

StartChar: Igrave
Encoding: 204 204 141
Width: 233
GlyphClass: 2
Flags: W
LayerCount: 2
Fore
SplineSet
99 932 m 1,0,-1
 195 932 l 1,1,-1
 293 797 l 1,2,-1
 218 797 l 1,3,-1
 99 932 l 1,0,-1
83 0 m 1,4,-1
 199 732 l 1,5,-1
 291 732 l 1,6,-1
 175 0 l 1,7,-1
 83 0 l 1,4,-1
EndSplineSet
Substitution2: "'c2sc' Capitals to Small Capitals in Latin lookup 2 subtable" igrave.smcp
EndChar

StartChar: Iacute
Encoding: 205 205 142
Width: 233
GlyphClass: 2
Flags: W
LayerCount: 2
Fore
SplineSet
218 797 m 1,0,-1
 342 932 l 1,1,-1
 445 932 l 1,2,-1
 293 797 l 1,3,-1
 218 797 l 1,0,-1
83 0 m 1,4,-1
 199 732 l 1,5,-1
 291 732 l 1,6,-1
 175 0 l 1,7,-1
 83 0 l 1,4,-1
EndSplineSet
Substitution2: "'c2sc' Capitals to Small Capitals in Latin lookup 2 subtable" iacute.smcp
EndChar

StartChar: Icircumflex
Encoding: 206 206 143
Width: 233
GlyphClass: 2
Flags: W
LayerCount: 2
Fore
SplineSet
107 797 m 1,0,-1
 243 928 l 1,1,-1
 323 928 l 1,2,-1
 404 797 l 1,3,-1
 332 797 l 1,4,-1
 279 875 l 1,5,-1
 194 797 l 1,6,-1
 107 797 l 1,0,-1
83 0 m 1,7,-1
 199 732 l 1,8,-1
 291 732 l 1,9,-1
 175 0 l 1,10,-1
 83 0 l 1,7,-1
EndSplineSet
Substitution2: "'c2sc' Capitals to Small Capitals in Latin lookup 2 subtable" icircumflex.smcp
EndChar

StartChar: Idieresis
Encoding: 207 207 144
Width: 233
GlyphClass: 2
Flags: W
LayerCount: 2
Fore
SplineSet
145 902 m 128,-1,1
 167 902 167 902 178.5 888.5 c 128,-1,2
 190 875 190 875 190 865 c 0,3,4
 190 832 190 832 170.5 814.5 c 128,-1,5
 151 797 151 797 129 797 c 128,-1,6
 107 797 107 797 95 811 c 128,-1,7
 83 825 83 825 83 836 c 0,8,9
 83 869 83 869 103 885.5 c 128,-1,0
 123 902 123 902 145 902 c 128,-1,1
400 902 m 128,-1,11
 422 902 422 902 433.5 888.5 c 128,-1,12
 445 875 445 875 445 865 c 0,13,14
 445 832 445 832 425.5 814.5 c 128,-1,15
 406 797 406 797 384 797 c 128,-1,16
 362 797 362 797 350 811 c 128,-1,17
 338 825 338 825 338 836 c 0,18,19
 338 869 338 869 358 885.5 c 128,-1,10
 378 902 378 902 400 902 c 128,-1,11
83 0 m 1,20,-1
 199 732 l 1,21,-1
 291 732 l 1,22,-1
 175 0 l 1,23,-1
 83 0 l 1,20,-1
EndSplineSet
Substitution2: "'c2sc' Capitals to Small Capitals in Latin lookup 2 subtable" idieresis.smcp
EndChar

StartChar: Eth
Encoding: 208 208 145
Width: 663
GlyphClass: 2
Flags: W
LayerCount: 2
Fore
SplineSet
470 732 m 0,0,1
 578 732 578 732 626 665 c 0,2,3
 674 599 674 599 679 515 c 0,4,5
 681 489 681 489 681 469 c 0,6,7
 681 412 681 412 671 358 c 0,8,9
 642 185 642 185 566.5 92.5 c 128,-1,10
 491 0 491 0 357 0 c 2,11,-1
 74 0 l 1,12,-1
 129 344 l 1,13,-1
 64 344 l 1,14,-1
 73 402 l 1,15,-1
 138 402 l 1,16,-1
 190 731 l 2,17,18
 190 732 190 732 470 732 c 0,0,1
366 90 m 2,19,20
 423 90 423 90 468 129 c 0,21,22
 552 200 552 200 579 364 c 0,23,24
 589 427 589 427 589 484 c 0,25,26
 589 644 589 644 453 644 c 2,27,-1
 268 644 l 1,28,-1
 230 402 l 1,29,-1
 362 402 l 1,30,-1
 352 344 l 1,31,-1
 221 344 l 1,32,-1
 180 90 l 1,33,-1
 366 90 l 2,19,20
EndSplineSet
Substitution2: "'c2sc' Capitals to Small Capitals in Latin lookup 2 subtable" eth.smcp
EndChar

StartChar: Ntilde
Encoding: 209 209 146
Width: 662
GlyphClass: 2
Flags: W
LayerCount: 2
Fore
SplineSet
483 885.5 m 128,-1,1
 513 869 513 869 520 869 c 128,-1,2
 527 869 527 869 536 869 c 128,-1,3
 545 869 545 869 581 883 c 128,-1,4
 617 897 617 897 626 904 c 1,5,-1
 641 857 l 1,6,7
 634 852 634 852 617.5 840 c 128,-1,8
 601 828 601 828 591.5 822 c 128,-1,9
 582 816 582 816 568 808 c 0,10,11
 514 778 514 778 457 811 c 0,12,13
 429 828 429 828 413 828 c 0,14,15
 385 828 385 828 368 820.5 c 128,-1,16
 351 813 351 813 334.5 804.5 c 128,-1,17
 318 796 318 796 312 793 c 1,18,-1
 297 838 l 1,19,20
 349 878 349 878 377.5 890.5 c 128,-1,21
 406 903 406 903 429.5 902.5 c 128,-1,0
 453 902 453 902 483 885.5 c 128,-1,1
75 0 m 1,22,-1
 191 732 l 1,23,-1
 281 732 l 1,24,-1
 541 170 l 1,25,-1
 630 732 l 1,26,-1
 722 732 l 1,27,-1
 606 0 l 1,28,-1
 517 0 l 1,29,-1
 256 560 l 1,30,-1
 168 0 l 1,31,-1
 75 0 l 1,22,-1
EndSplineSet
AlternateSubs2: "'salt' Stylistic Alternatives in Latin lookup 16 subtable" Ntilde.salt
Substitution2: "'c2sc' Capitals to Small Capitals in Latin lookup 2 subtable" ntilde.smcp
EndChar

StartChar: Ograve
Encoding: 210 210 147
Width: 666
GlyphClass: 2
Flags: W
LayerCount: 2
Fore
SplineSet
302 932 m 1,0,-1
 398 932 l 1,1,-1
 496 797 l 1,2,-1
 421 797 l 1,3,-1
 302 932 l 1,0,-1
387 735 m 128,-1,5
 413 737 413 737 448.5 737 c 128,-1,6
 484 737 484 737 511.5 734.5 c 128,-1,7
 539 732 539 732 566.5 724.5 c 128,-1,8
 594 717 594 717 613.5 704.5 c 128,-1,9
 633 692 633 692 651 672 c 0,10,11
 682 637 682 637 693 557 c 0,12,13
 696 531 696 531 696 508 c 0,14,15
 696 439 696 439 684.5 364 c 128,-1,16
 673 289 673 289 658.5 235.5 c 128,-1,17
 644 182 644 182 626.5 144 c 128,-1,18
 609 106 609 106 585.5 79.5 c 128,-1,19
 562 53 562 53 538 36.5 c 128,-1,20
 514 20 514 20 482 11 c 0,21,22
 397 -13 397 -13 280 -1 c 0,23,24
 208 6 208 6 169 36 c 0,25,26
 120 75 120 75 106 146 c 0,27,28
 100 181 100 181 100 207.5 c 128,-1,29
 100 234 100 234 100.5 264.5 c 128,-1,30
 101 295 101 295 111.5 361.5 c 128,-1,31
 122 428 122 428 134.5 479 c 128,-1,32
 147 530 147 530 163 567.5 c 128,-1,33
 179 605 179 605 196 633 c 128,-1,34
 213 661 213 661 236 679.5 c 128,-1,35
 259 698 259 698 280 709.5 c 128,-1,36
 301 721 301 721 331 727 c 128,-1,4
 361 733 361 733 387 735 c 128,-1,5
217.5 437.5 m 128,-1,38
 210 403 210 403 201 345.5 c 128,-1,39
 192 288 192 288 191.5 261.5 c 128,-1,40
 191 235 191 235 191 211.5 c 128,-1,41
 191 188 191 188 199 158.5 c 128,-1,42
 207 129 207 129 229 112.5 c 128,-1,43
 251 96 251 96 279.5 90.5 c 128,-1,44
 308 85 308 85 352.5 85 c 128,-1,45
 397 85 397 85 427 91 c 128,-1,46
 457 97 457 97 484.5 114.5 c 128,-1,47
 512 132 512 132 531 162 c 0,48,49
 571 227 571 227 592 361 c 0,50,51
 605 444 605 444 605 491 c 128,-1,52
 605 538 605 538 599.5 559.5 c 128,-1,53
 594 581 594 581 588 595.5 c 128,-1,54
 582 610 582 610 569 620 c 128,-1,55
 556 630 556 630 545 635.5 c 128,-1,56
 534 641 534 641 515 644 c 0,57,58
 487 648 487 648 454 648 c 128,-1,59
 421 648 421 648 407.5 647.5 c 128,-1,60
 394 647 394 647 375 645 c 128,-1,61
 356 643 356 643 344.5 639 c 128,-1,62
 333 635 333 635 317.5 628 c 128,-1,63
 302 621 302 621 292.5 610 c 128,-1,64
 283 599 283 599 271 583.5 c 128,-1,65
 259 568 259 568 251 547 c 128,-1,66
 243 526 243 526 234 499 c 128,-1,37
 225 472 225 472 217.5 437.5 c 128,-1,38
EndSplineSet
Substitution2: "'c2sc' Capitals to Small Capitals in Latin lookup 2 subtable" ograve.smcp
EndChar

StartChar: Oacute
Encoding: 211 211 148
Width: 666
GlyphClass: 2
Flags: W
LayerCount: 2
Fore
SplineSet
421 797 m 1,0,-1
 545 932 l 1,1,-1
 648 932 l 1,2,-1
 496 797 l 1,3,-1
 421 797 l 1,0,-1
387 735 m 128,-1,5
 413 737 413 737 448.5 737 c 128,-1,6
 484 737 484 737 511.5 734.5 c 128,-1,7
 539 732 539 732 566.5 724.5 c 128,-1,8
 594 717 594 717 613.5 704.5 c 128,-1,9
 633 692 633 692 651 672 c 0,10,11
 682 637 682 637 693 557 c 0,12,13
 696 531 696 531 696 508 c 0,14,15
 696 439 696 439 684.5 364 c 128,-1,16
 673 289 673 289 658.5 235.5 c 128,-1,17
 644 182 644 182 626.5 144 c 128,-1,18
 609 106 609 106 585.5 79.5 c 128,-1,19
 562 53 562 53 538 36.5 c 128,-1,20
 514 20 514 20 482 11 c 0,21,22
 397 -13 397 -13 280 -1 c 0,23,24
 208 6 208 6 169 36 c 0,25,26
 120 75 120 75 106 146 c 0,27,28
 100 181 100 181 100 207.5 c 128,-1,29
 100 234 100 234 100.5 264.5 c 128,-1,30
 101 295 101 295 111.5 361.5 c 128,-1,31
 122 428 122 428 134.5 479 c 128,-1,32
 147 530 147 530 163 567.5 c 128,-1,33
 179 605 179 605 196 633 c 128,-1,34
 213 661 213 661 236 679.5 c 128,-1,35
 259 698 259 698 280 709.5 c 128,-1,36
 301 721 301 721 331 727 c 128,-1,4
 361 733 361 733 387 735 c 128,-1,5
217.5 437.5 m 128,-1,38
 210 403 210 403 201 345.5 c 128,-1,39
 192 288 192 288 191.5 261.5 c 128,-1,40
 191 235 191 235 191 211.5 c 128,-1,41
 191 188 191 188 199 158.5 c 128,-1,42
 207 129 207 129 229 112.5 c 128,-1,43
 251 96 251 96 279.5 90.5 c 128,-1,44
 308 85 308 85 352.5 85 c 128,-1,45
 397 85 397 85 427 91 c 128,-1,46
 457 97 457 97 484.5 114.5 c 128,-1,47
 512 132 512 132 531 162 c 0,48,49
 571 227 571 227 592 361 c 0,50,51
 605 444 605 444 605 491 c 128,-1,52
 605 538 605 538 599.5 559.5 c 128,-1,53
 594 581 594 581 588 595.5 c 128,-1,54
 582 610 582 610 569 620 c 128,-1,55
 556 630 556 630 545 635.5 c 128,-1,56
 534 641 534 641 515 644 c 0,57,58
 487 648 487 648 454 648 c 128,-1,59
 421 648 421 648 407.5 647.5 c 128,-1,60
 394 647 394 647 375 645 c 128,-1,61
 356 643 356 643 344.5 639 c 128,-1,62
 333 635 333 635 317.5 628 c 128,-1,63
 302 621 302 621 292.5 610 c 128,-1,64
 283 599 283 599 271 583.5 c 128,-1,65
 259 568 259 568 251 547 c 128,-1,66
 243 526 243 526 234 499 c 128,-1,37
 225 472 225 472 217.5 437.5 c 128,-1,38
EndSplineSet
Substitution2: "'c2sc' Capitals to Small Capitals in Latin lookup 2 subtable" oacute.smcp
EndChar

StartChar: Ocircumflex
Encoding: 212 212 149
Width: 666
GlyphClass: 2
Flags: W
LayerCount: 2
Fore
SplineSet
311 797 m 1,0,-1
 446 928 l 1,1,-1
 526 928 l 1,2,-1
 607 797 l 1,3,-1
 535 797 l 1,4,-1
 482 875 l 1,5,-1
 397 797 l 1,6,-1
 311 797 l 1,0,-1
387 735 m 128,-1,8
 413 737 413 737 448.5 737 c 128,-1,9
 484 737 484 737 511.5 734.5 c 128,-1,10
 539 732 539 732 566.5 724.5 c 128,-1,11
 594 717 594 717 613.5 704.5 c 128,-1,12
 633 692 633 692 651 672 c 0,13,14
 682 637 682 637 693 557 c 0,15,16
 696 531 696 531 696 508 c 0,17,18
 696 439 696 439 684.5 364 c 128,-1,19
 673 289 673 289 658.5 235.5 c 128,-1,20
 644 182 644 182 626.5 144 c 128,-1,21
 609 106 609 106 585.5 79.5 c 128,-1,22
 562 53 562 53 538 36.5 c 128,-1,23
 514 20 514 20 482 11 c 0,24,25
 397 -13 397 -13 280 -1 c 0,26,27
 208 6 208 6 169 36 c 0,28,29
 120 75 120 75 106 146 c 0,30,31
 100 181 100 181 100 207.5 c 128,-1,32
 100 234 100 234 100.5 264.5 c 128,-1,33
 101 295 101 295 111.5 361.5 c 128,-1,34
 122 428 122 428 134.5 479 c 128,-1,35
 147 530 147 530 163 567.5 c 128,-1,36
 179 605 179 605 196 633 c 128,-1,37
 213 661 213 661 236 679.5 c 128,-1,38
 259 698 259 698 280 709.5 c 128,-1,39
 301 721 301 721 331 727 c 128,-1,7
 361 733 361 733 387 735 c 128,-1,8
217.5 437.5 m 128,-1,41
 210 403 210 403 201 345.5 c 128,-1,42
 192 288 192 288 191.5 261.5 c 128,-1,43
 191 235 191 235 191 211.5 c 128,-1,44
 191 188 191 188 199 158.5 c 128,-1,45
 207 129 207 129 229 112.5 c 128,-1,46
 251 96 251 96 279.5 90.5 c 128,-1,47
 308 85 308 85 352.5 85 c 128,-1,48
 397 85 397 85 427 91 c 128,-1,49
 457 97 457 97 484.5 114.5 c 128,-1,50
 512 132 512 132 531 162 c 0,51,52
 571 227 571 227 592 361 c 0,53,54
 605 444 605 444 605 491 c 128,-1,55
 605 538 605 538 599.5 559.5 c 128,-1,56
 594 581 594 581 588 595.5 c 128,-1,57
 582 610 582 610 569 620 c 128,-1,58
 556 630 556 630 545 635.5 c 128,-1,59
 534 641 534 641 515 644 c 0,60,61
 487 648 487 648 454 648 c 128,-1,62
 421 648 421 648 407.5 647.5 c 128,-1,63
 394 647 394 647 375 645 c 128,-1,64
 356 643 356 643 344.5 639 c 128,-1,65
 333 635 333 635 317.5 628 c 128,-1,66
 302 621 302 621 292.5 610 c 128,-1,67
 283 599 283 599 271 583.5 c 128,-1,68
 259 568 259 568 251 547 c 128,-1,69
 243 526 243 526 234 499 c 128,-1,40
 225 472 225 472 217.5 437.5 c 128,-1,41
EndSplineSet
Substitution2: "'c2sc' Capitals to Small Capitals in Latin lookup 2 subtable" ocircumflex.smcp
EndChar

StartChar: Otilde
Encoding: 213 213 150
Width: 666
GlyphClass: 2
Flags: W
LayerCount: 2
Fore
SplineSet
481.5 890 m 128,-1,1
 512 874 512 874 518.5 873.5 c 128,-1,2
 525 873 525 873 534.5 873 c 128,-1,3
 544 873 544 873 579.5 887 c 128,-1,4
 615 901 615 901 625 908 c 1,5,-1
 639 861 l 1,6,7
 632 856 632 856 615.5 844 c 128,-1,8
 599 832 599 832 590 826 c 128,-1,9
 581 820 581 820 566 812 c 0,10,11
 512 782 512 782 456 815 c 0,12,13
 428 832 428 832 411 832 c 0,14,15
 384 832 384 832 366.5 824.5 c 128,-1,16
 349 817 349 817 333 808.5 c 128,-1,17
 317 800 317 800 311 797 c 1,18,-1
 296 842 l 1,19,20
 348 883 348 883 376 895 c 128,-1,21
 404 907 404 907 427.5 906.5 c 128,-1,0
 451 906 451 906 481.5 890 c 128,-1,1
387 735 m 128,-1,23
 413 737 413 737 448.5 737 c 128,-1,24
 484 737 484 737 511.5 734.5 c 128,-1,25
 539 732 539 732 566.5 724.5 c 128,-1,26
 594 717 594 717 613.5 704.5 c 128,-1,27
 633 692 633 692 651 672 c 0,28,29
 682 637 682 637 693 557 c 0,30,31
 696 531 696 531 696 508 c 0,32,33
 696 439 696 439 684.5 364 c 128,-1,34
 673 289 673 289 658.5 235.5 c 128,-1,35
 644 182 644 182 626.5 144 c 128,-1,36
 609 106 609 106 585.5 79.5 c 128,-1,37
 562 53 562 53 538 36.5 c 128,-1,38
 514 20 514 20 482 11 c 0,39,40
 397 -13 397 -13 280 -1 c 0,41,42
 208 6 208 6 169 36 c 0,43,44
 120 75 120 75 106 146 c 0,45,46
 100 181 100 181 100 207.5 c 128,-1,47
 100 234 100 234 100.5 264.5 c 128,-1,48
 101 295 101 295 111.5 361.5 c 128,-1,49
 122 428 122 428 134.5 479 c 128,-1,50
 147 530 147 530 163 567.5 c 128,-1,51
 179 605 179 605 196 633 c 128,-1,52
 213 661 213 661 236 679.5 c 128,-1,53
 259 698 259 698 280 709.5 c 128,-1,54
 301 721 301 721 331 727 c 128,-1,22
 361 733 361 733 387 735 c 128,-1,23
217.5 437.5 m 128,-1,56
 210 403 210 403 201 345.5 c 128,-1,57
 192 288 192 288 191.5 261.5 c 128,-1,58
 191 235 191 235 191 211.5 c 128,-1,59
 191 188 191 188 199 158.5 c 128,-1,60
 207 129 207 129 229 112.5 c 128,-1,61
 251 96 251 96 279.5 90.5 c 128,-1,62
 308 85 308 85 352.5 85 c 128,-1,63
 397 85 397 85 427 91 c 128,-1,64
 457 97 457 97 484.5 114.5 c 128,-1,65
 512 132 512 132 531 162 c 0,66,67
 571 227 571 227 592 361 c 0,68,69
 605 444 605 444 605 491 c 128,-1,70
 605 538 605 538 599.5 559.5 c 128,-1,71
 594 581 594 581 588 595.5 c 128,-1,72
 582 610 582 610 569 620 c 128,-1,73
 556 630 556 630 545 635.5 c 128,-1,74
 534 641 534 641 515 644 c 0,75,76
 487 648 487 648 454 648 c 128,-1,77
 421 648 421 648 407.5 647.5 c 128,-1,78
 394 647 394 647 375 645 c 128,-1,79
 356 643 356 643 344.5 639 c 128,-1,80
 333 635 333 635 317.5 628 c 128,-1,81
 302 621 302 621 292.5 610 c 128,-1,82
 283 599 283 599 271 583.5 c 128,-1,83
 259 568 259 568 251 547 c 128,-1,84
 243 526 243 526 234 499 c 128,-1,55
 225 472 225 472 217.5 437.5 c 128,-1,56
EndSplineSet
Substitution2: "'c2sc' Capitals to Small Capitals in Latin lookup 2 subtable" otilde.smcp
EndChar

StartChar: Odieresis
Encoding: 214 214 151
Width: 666
GlyphClass: 2
Flags: W
LayerCount: 2
Fore
SplineSet
349 902 m 128,-1,1
 371 902 371 902 382 888.5 c 128,-1,2
 393 875 393 875 393 865 c 0,3,4
 393 832 393 832 373.5 814.5 c 128,-1,5
 354 797 354 797 332 797 c 128,-1,6
 310 797 310 797 298.5 811 c 128,-1,7
 287 825 287 825 287 836 c 0,8,9
 287 869 287 869 307 885.5 c 128,-1,0
 327 902 327 902 349 902 c 128,-1,1
604 902 m 128,-1,11
 626 902 626 902 637 888.5 c 128,-1,12
 648 875 648 875 648 865 c 0,13,14
 648 832 648 832 628.5 814.5 c 128,-1,15
 609 797 609 797 587 797 c 128,-1,16
 565 797 565 797 553.5 811 c 128,-1,17
 542 825 542 825 542 836 c 0,18,19
 542 869 542 869 562 885.5 c 128,-1,10
 582 902 582 902 604 902 c 128,-1,11
387 735 m 128,-1,21
 413 737 413 737 448.5 737 c 128,-1,22
 484 737 484 737 511.5 734.5 c 128,-1,23
 539 732 539 732 566.5 724.5 c 128,-1,24
 594 717 594 717 613.5 704.5 c 128,-1,25
 633 692 633 692 651 672 c 0,26,27
 682 637 682 637 693 557 c 0,28,29
 696 531 696 531 696 508 c 0,30,31
 696 439 696 439 684.5 364 c 128,-1,32
 673 289 673 289 658.5 235.5 c 128,-1,33
 644 182 644 182 626.5 144 c 128,-1,34
 609 106 609 106 585.5 79.5 c 128,-1,35
 562 53 562 53 538 36.5 c 128,-1,36
 514 20 514 20 482 11 c 0,37,38
 397 -13 397 -13 280 -1 c 0,39,40
 208 6 208 6 169 36 c 0,41,42
 120 75 120 75 106 146 c 0,43,44
 100 181 100 181 100 207.5 c 128,-1,45
 100 234 100 234 100.5 264.5 c 128,-1,46
 101 295 101 295 111.5 361.5 c 128,-1,47
 122 428 122 428 134.5 479 c 128,-1,48
 147 530 147 530 163 567.5 c 128,-1,49
 179 605 179 605 196 633 c 128,-1,50
 213 661 213 661 236 679.5 c 128,-1,51
 259 698 259 698 280 709.5 c 128,-1,52
 301 721 301 721 331 727 c 128,-1,20
 361 733 361 733 387 735 c 128,-1,21
217.5 437.5 m 128,-1,54
 210 403 210 403 201 345.5 c 128,-1,55
 192 288 192 288 191.5 261.5 c 128,-1,56
 191 235 191 235 191 211.5 c 128,-1,57
 191 188 191 188 199 158.5 c 128,-1,58
 207 129 207 129 229 112.5 c 128,-1,59
 251 96 251 96 279.5 90.5 c 128,-1,60
 308 85 308 85 352.5 85 c 128,-1,61
 397 85 397 85 427 91 c 128,-1,62
 457 97 457 97 484.5 114.5 c 128,-1,63
 512 132 512 132 531 162 c 0,64,65
 571 227 571 227 592 361 c 0,66,67
 605 444 605 444 605 491 c 128,-1,68
 605 538 605 538 599.5 559.5 c 128,-1,69
 594 581 594 581 588 595.5 c 128,-1,70
 582 610 582 610 569 620 c 128,-1,71
 556 630 556 630 545 635.5 c 128,-1,72
 534 641 534 641 515 644 c 0,73,74
 487 648 487 648 454 648 c 128,-1,75
 421 648 421 648 407.5 647.5 c 128,-1,76
 394 647 394 647 375 645 c 128,-1,77
 356 643 356 643 344.5 639 c 128,-1,78
 333 635 333 635 317.5 628 c 128,-1,79
 302 621 302 621 292.5 610 c 128,-1,80
 283 599 283 599 271 583.5 c 128,-1,81
 259 568 259 568 251 547 c 128,-1,82
 243 526 243 526 234 499 c 128,-1,53
 225 472 225 472 217.5 437.5 c 128,-1,54
EndSplineSet
Substitution2: "'c2sc' Capitals to Small Capitals in Latin lookup 2 subtable" odieresis.smcp
EndChar

StartChar: multiply
Encoding: 215 215 152
Width: 459
GlyphClass: 2
Flags: W
LayerCount: 2
Fore
SplineSet
90 241 m 1,0,-1
 224 357 l 1,1,-1
 127 472 l 1,2,-1
 193 528 l 1,3,-1
 290 413 l 1,4,-1
 431 535 l 1,5,-1
 483 473 l 1,6,-1
 342 351 l 1,7,-1
 440 234 l 1,8,-1
 374 179 l 1,9,-1
 277 295 l 1,10,-1
 142 178 l 1,11,-1
 90 241 l 1,0,-1
EndSplineSet
EndChar

StartChar: Oslash
Encoding: 216 216 153
Width: 666
GlyphClass: 2
Flags: W
LayerCount: 2
Fore
SplineSet
132 480 m 0,0,1
 154 568 154 568 194 634 c 0,2,3
 222 680 222 680 277 710 c 0,4,5
 328 737 328 737 450.5 737 c 128,-1,6
 573 737 573 737 626 695 c 1,7,-1
 656 732 l 1,8,-1
 721 732 l 1,9,-1
 660 657 l 1,10,11
 694 603 694 603 694 501 c 0,12,13
 694 438 694 438 682.5 363 c 128,-1,14
 671 288 671 288 656 235 c 128,-1,15
 641 182 641 182 624 144 c 128,-1,16
 607 106 607 106 583 79 c 128,-1,17
 559 52 559 52 535.5 36 c 128,-1,18
 512 20 512 20 479 11 c 0,19,20
 426 -4 426 -4 354 -4 c 128,-1,21
 282 -4 282 -4 236.5 5.5 c 128,-1,22
 191 15 191 15 160 41 c 1,23,-1
 127 0 l 1,24,-1
 62 0 l 1,25,-1
 127 80 l 1,26,27
 96 133 96 133 96 235.5 c 128,-1,28
 96 338 96 338 132 480 c 0,0,1
215 437.5 m 128,-1,30
 208 403 208 403 198.5 345.5 c 128,-1,31
 189 288 189 288 189 240.5 c 128,-1,32
 189 193 189 193 198 166 c 1,33,-1
 565 621 l 1,34,35
 546 638 546 638 517 643 c 128,-1,36
 488 648 488 648 453 648 c 128,-1,37
 418 648 418 648 404.5 647.5 c 128,-1,38
 391 647 391 647 372 645 c 128,-1,39
 353 643 353 643 341.5 639 c 128,-1,40
 330 635 330 635 315 628 c 128,-1,41
 300 621 300 621 290 610 c 128,-1,42
 280 599 280 599 268.5 583.5 c 128,-1,43
 257 568 257 568 248.5 547 c 128,-1,44
 240 526 240 526 231 499 c 128,-1,29
 222 472 222 472 215 437.5 c 128,-1,30
352 85 m 0,45,46
 405 85 405 85 440.5 95 c 128,-1,47
 476 105 476 105 506 135 c 0,48,49
 562 189 562 189 589 361 c 0,50,51
 601 441 601 441 601 493 c 128,-1,52
 601 545 601 545 592 574 c 1,53,-1
 222 117 l 1,54,55
 255 85 255 85 352 85 c 0,45,46
EndSplineSet
Substitution2: "'c2sc' Capitals to Small Capitals in Latin lookup 2 subtable" oslash.smcp
EndChar

StartChar: Ugrave
Encoding: 217 217 154
Width: 655
GlyphClass: 2
Flags: W
LayerCount: 2
Fore
SplineSet
306 932 m 1,0,-1
 402 932 l 1,1,-1
 500 797 l 1,2,-1
 425 797 l 1,3,-1
 306 932 l 1,0,-1
215 305 m 1,4,5
 207 246 207 246 207 223.5 c 128,-1,6
 207 201 207 201 207 196 c 0,7,8
 209 116 209 116 273 94 c 0,9,10
 301 84 301 84 346 84 c 0,11,12
 440 84 440 84 488 133.5 c 128,-1,13
 536 183 536 183 555 305 c 2,14,-1
 622 732 l 1,15,-1
 715 732 l 1,16,-1
 649 300 l 1,17,18
 620 120 620 120 536 53 c 0,19,20
 464 -5 464 -5 337 -5 c 0,21,22
 179 -5 179 -5 136 96 c 0,23,24
 113 148 113 148 113 203.5 c 128,-1,25
 113 259 113 259 122 309 c 1,26,-1
 189 732 l 1,27,-1
 282 732 l 1,28,-1
 215 305 l 1,4,5
EndSplineSet
Substitution2: "'c2sc' Capitals to Small Capitals in Latin lookup 2 subtable" ugrave.smcp
EndChar

StartChar: Uacute
Encoding: 218 218 155
Width: 655
GlyphClass: 2
Flags: W
LayerCount: 2
Fore
SplineSet
425 797 m 1,0,-1
 549 932 l 1,1,-1
 652 932 l 1,2,-1
 500 797 l 1,3,-1
 425 797 l 1,0,-1
215 305 m 1,4,5
 207 246 207 246 207 223.5 c 128,-1,6
 207 201 207 201 207 196 c 0,7,8
 209 116 209 116 273 94 c 0,9,10
 301 84 301 84 346 84 c 0,11,12
 440 84 440 84 488 133.5 c 128,-1,13
 536 183 536 183 555 305 c 2,14,-1
 622 732 l 1,15,-1
 715 732 l 1,16,-1
 649 300 l 1,17,18
 620 120 620 120 536 53 c 0,19,20
 464 -5 464 -5 337 -5 c 0,21,22
 179 -5 179 -5 136 96 c 0,23,24
 113 148 113 148 113 203.5 c 128,-1,25
 113 259 113 259 122 309 c 1,26,-1
 189 732 l 1,27,-1
 282 732 l 1,28,-1
 215 305 l 1,4,5
EndSplineSet
Substitution2: "'c2sc' Capitals to Small Capitals in Latin lookup 2 subtable" uacute.smcp
EndChar

StartChar: Ucircumflex
Encoding: 219 219 156
Width: 655
GlyphClass: 2
Flags: W
LayerCount: 2
Fore
SplineSet
315 797 m 1,0,-1
 450 928 l 1,1,-1
 530 928 l 1,2,-1
 611 797 l 1,3,-1
 539 797 l 1,4,-1
 486 875 l 1,5,-1
 401 797 l 1,6,-1
 315 797 l 1,0,-1
215 305 m 1,7,8
 207 246 207 246 207 223.5 c 128,-1,9
 207 201 207 201 207 196 c 0,10,11
 209 116 209 116 273 94 c 0,12,13
 301 84 301 84 346 84 c 0,14,15
 440 84 440 84 488 133.5 c 128,-1,16
 536 183 536 183 555 305 c 2,17,-1
 622 732 l 1,18,-1
 715 732 l 1,19,-1
 649 300 l 1,20,21
 620 120 620 120 536 53 c 0,22,23
 464 -5 464 -5 337 -5 c 0,24,25
 179 -5 179 -5 136 96 c 0,26,27
 113 148 113 148 113 203.5 c 128,-1,28
 113 259 113 259 122 309 c 1,29,-1
 189 732 l 1,30,-1
 282 732 l 1,31,-1
 215 305 l 1,7,8
EndSplineSet
Substitution2: "'c2sc' Capitals to Small Capitals in Latin lookup 2 subtable" ucircumflex.smcp
EndChar

StartChar: Udieresis
Encoding: 220 220 157
Width: 655
GlyphClass: 2
Flags: W
LayerCount: 2
Fore
SplineSet
353 902 m 128,-1,1
 375 902 375 902 386 888.5 c 128,-1,2
 397 875 397 875 397 865 c 0,3,4
 397 832 397 832 377.5 814.5 c 128,-1,5
 358 797 358 797 336 797 c 128,-1,6
 314 797 314 797 302.5 811 c 128,-1,7
 291 825 291 825 291 836 c 0,8,9
 291 869 291 869 311 885.5 c 128,-1,0
 331 902 331 902 353 902 c 128,-1,1
608 902 m 128,-1,11
 630 902 630 902 641 888.5 c 128,-1,12
 652 875 652 875 652 865 c 128,-1,13
 652 855 652 855 651 845.5 c 128,-1,14
 650 836 650 836 641 824 c 0,15,16
 621 797 621 797 595 797 c 128,-1,17
 569 797 569 797 557.5 811 c 128,-1,18
 546 825 546 825 546 836 c 0,19,20
 546 869 546 869 566 885.5 c 128,-1,10
 586 902 586 902 608 902 c 128,-1,11
215 305 m 1,21,22
 207 246 207 246 207 223.5 c 128,-1,23
 207 201 207 201 207 196 c 0,24,25
 209 116 209 116 273 94 c 0,26,27
 301 84 301 84 346 84 c 0,28,29
 440 84 440 84 488 133.5 c 128,-1,30
 536 183 536 183 555 305 c 2,31,-1
 622 732 l 1,32,-1
 715 732 l 1,33,-1
 649 300 l 1,34,35
 620 120 620 120 536 53 c 0,36,37
 464 -5 464 -5 337 -5 c 0,38,39
 179 -5 179 -5 136 96 c 0,40,41
 113 148 113 148 113 203.5 c 128,-1,42
 113 259 113 259 122 309 c 1,43,-1
 189 732 l 1,44,-1
 282 732 l 1,45,-1
 215 305 l 1,21,22
EndSplineSet
Substitution2: "'c2sc' Capitals to Small Capitals in Latin lookup 2 subtable" udieresis.smcp
EndChar

StartChar: Yacute
Encoding: 221 221 158
Width: 637
GlyphClass: 2
Flags: W
LayerCount: 2
Fore
SplineSet
406 797 m 1,0,-1
 530 932 l 1,1,-1
 632 932 l 1,2,-1
 481 797 l 1,3,-1
 406 797 l 1,0,-1
147 732 m 1,4,-1
 245 732 l 1,5,-1
 361 360 l 1,6,-1
 611 732 l 1,7,-1
 719 732 l 1,8,-1
 393 251 l 1,9,-1
 353 0 l 1,10,-1
 261 0 l 1,11,-1
 301 251 l 1,12,-1
 147 732 l 1,4,-1
EndSplineSet
Substitution2: "'c2sc' Capitals to Small Capitals in Latin lookup 2 subtable" yacute.smcp
EndChar

StartChar: Thorn
Encoding: 222 222 159
Width: 552
GlyphClass: 2
Flags: W
LayerCount: 2
Fore
SplineSet
56 0 m 1,0,1
 56 0 56 0 171 729 c 1,2,-1
 263 729 l 1,3,-1
 241 588 l 1,4,-1
 425 588 l 2,5,6
 461 588 461 588 487.5 575.5 c 128,-1,7
 514 563 514 563 528 548 c 0,8,9
 569 503 569 503 569 426 c 0,10,11
 569 402 569 402 565 365.5 c 128,-1,12
 561 329 561 329 551 295 c 128,-1,13
 541 261 541 261 529 238 c 128,-1,14
 517 215 517 215 500 199 c 128,-1,15
 483 183 483 183 468.5 174 c 128,-1,16
 454 165 454 165 433 161 c 1,17,18
 401 153 401 153 349 153 c 0,19,20
 232 153 232 153 176 173 c 1,21,-1
 148 0 l 1,22,-1
 56 0 l 1,0,1
358 241 m 2,23,24
 382 241 382 241 398 245 c 128,-1,25
 414 249 414 249 430 263 c 0,26,27
 459 288 459 288 473 376 c 1,28,29
 477 394 477 394 477 404.5 c 128,-1,30
 477 415 477 415 475 427.5 c 128,-1,31
 473 440 473 440 471 453 c 128,-1,32
 469 466 469 466 461 475 c 128,-1,33
 453 484 453 484 446.5 489 c 128,-1,34
 440 494 440 494 430 496 c 0,35,36
 415 500 415 500 398 500 c 2,37,-1
 227 500 l 1,38,-1
 186 241 l 1,39,-1
 358 241 l 2,23,24
EndSplineSet
Substitution2: "'c2sc' Capitals to Small Capitals in Latin lookup 2 subtable" thorn.smcp
EndChar

StartChar: germandbls
Encoding: 223 223 160
Width: 570
GlyphClass: 2
Flags: W
LayerCount: 2
Fore
SplineSet
237 82 m 1,0,-1
 396 77 l 2,1,2
 427 77 427 77 449.5 94 c 128,-1,3
 472 111 472 111 478 140 c 2,4,-1
 484 172 l 2,5,6
 485 176 485 176 485 184.5 c 128,-1,7
 485 193 485 193 474 204 c 128,-1,8
 463 215 463 215 442.5 220.5 c 128,-1,9
 422 226 422 226 399 235 c 128,-1,10
 376 244 376 244 357 255 c 0,11,12
 320 276 320 276 320 327 c 0,13,14
 320 337 320 337 321 348 c 0,15,16
 329 405 329 405 353 433 c 128,-1,17
 377 461 377 461 456 505 c 1,18,19
 522 544 522 544 522 621 c 0,20,21
 522 658 522 658 495 674 c 128,-1,22
 468 690 468 690 400 690 c 128,-1,23
 332 690 332 690 290 660.5 c 128,-1,24
 248 631 248 631 236 552 c 2,25,-1
 148 0 l 1,26,-1
 56 0 l 1,27,-1
 146 566 l 2,28,29
 161 661 161 661 224 719.5 c 128,-1,30
 287 778 287 778 407 778 c 0,31,32
 555 778 555 778 601 693 c 0,33,34
 614 669 614 669 615 652.5 c 128,-1,35
 616 636 616 636 616 622.5 c 128,-1,36
 616 609 616 609 610.5 583 c 128,-1,37
 605 557 605 557 591 531 c 0,38,39
 563 477 563 477 521 448 c 0,40,41
 512 443 512 443 489 430.5 c 128,-1,42
 466 418 466 418 454.5 410 c 128,-1,43
 443 402 443 402 431 387 c 0,44,45
 414 365 414 365 414 346 c 128,-1,46
 414 327 414 327 424.5 315 c 128,-1,47
 435 303 435 303 455.5 296.5 c 128,-1,48
 476 290 476 290 499.5 281 c 128,-1,49
 523 272 523 272 543 261 c 0,50,51
 580 242 580 242 580 192 c 0,52,53
 580 182 580 182 578 171 c 2,54,-1
 572 128 l 2,55,56
 566 88 566 88 546.5 60 c 128,-1,57
 527 32 527 32 500 18 c 0,58,59
 449 -8 449 -8 390 -8 c 0,60,61
 337 -8 337 -8 284.5 1 c 128,-1,62
 232 10 232 10 227 11 c 1,63,-1
 237 82 l 1,0,-1
EndSplineSet
Substitution2: "'smcp' Lowercase to Small Capitals lookup 1 subtable" germandbls.smcp
EndChar

StartChar: agrave
Encoding: 224 224 161
Width: 540
GlyphClass: 2
Flags: W
LayerCount: 2
Fore
SplineSet
202 737 m 1,0,-1
 297 737 l 1,1,-1
 396 603 l 1,2,-1
 321 603 l 1,3,-1
 202 737 l 1,0,-1
258 532 m 128,-1,5
 281 538 281 538 304 540.5 c 128,-1,6
 327 543 327 543 359.5 543 c 128,-1,7
 392 543 392 543 461 528 c 128,-1,8
 530 513 530 513 566 479 c 1,9,-1
 496 0 l 1,10,-1
 428 0 l 1,11,-1
 414 59 l 1,12,13
 386 36 386 36 335 14.5 c 128,-1,14
 284 -7 284 -7 241.5 -7 c 128,-1,15
 199 -7 199 -7 172.5 0.5 c 128,-1,16
 146 8 146 8 122.5 27.5 c 128,-1,17
 99 47 99 47 88 80 c 0,18,19
 74 124 74 124 74 175 c 128,-1,20
 74 226 74 226 85 286 c 128,-1,21
 96 346 96 346 115.5 392.5 c 128,-1,22
 135 439 135 439 156 465.5 c 128,-1,23
 177 492 177 492 206 509 c 128,-1,4
 235 526 235 526 258 532 c 128,-1,5
188 322 m 128,-1,25
 180 293 180 293 173.5 252 c 128,-1,26
 167 211 167 211 167 176.5 c 128,-1,27
 167 142 167 142 176 120 c 0,28,29
 193 79 193 79 245.5 79 c 128,-1,30
 298 79 298 79 334 90.5 c 128,-1,31
 370 102 370 102 421 128 c 1,32,-1
 469 443 l 1,33,34
 405 461 405 461 369.5 461 c 128,-1,35
 334 461 334 461 316.5 457.5 c 128,-1,36
 299 454 299 454 289.5 451.5 c 128,-1,37
 280 449 280 449 266 443 c 128,-1,38
 252 437 252 437 243 428.5 c 128,-1,39
 234 420 234 420 223 405.5 c 128,-1,40
 212 391 212 391 204 371 c 128,-1,24
 196 351 196 351 188 322 c 128,-1,25
EndSplineSet
AlternateSubs2: "'salt' Stylistic Alternatives in Latin lookup 16 subtable" agrave.salt
Substitution2: "'smcp' Lowercase to Small Capitals lookup 1 subtable" agrave.smcp
EndChar

StartChar: aacute
Encoding: 225 225 162
Width: 540
GlyphClass: 2
Flags: W
LayerCount: 2
Fore
SplineSet
329 603 m 1,0,-1
 453 737 l 1,1,-1
 555 737 l 1,2,-1
 404 603 l 1,3,-1
 329 603 l 1,0,-1
258 532 m 128,-1,5
 281 538 281 538 304 540.5 c 128,-1,6
 327 543 327 543 359.5 543 c 128,-1,7
 392 543 392 543 461 528 c 128,-1,8
 530 513 530 513 566 479 c 1,9,-1
 496 0 l 1,10,-1
 428 0 l 1,11,-1
 414 59 l 1,12,13
 386 36 386 36 335 14.5 c 128,-1,14
 284 -7 284 -7 241.5 -7 c 128,-1,15
 199 -7 199 -7 172.5 0.5 c 128,-1,16
 146 8 146 8 122.5 27.5 c 128,-1,17
 99 47 99 47 88 80 c 0,18,19
 74 124 74 124 74 175 c 128,-1,20
 74 226 74 226 85 286 c 128,-1,21
 96 346 96 346 115.5 392.5 c 128,-1,22
 135 439 135 439 156 465.5 c 128,-1,23
 177 492 177 492 206 509 c 128,-1,4
 235 526 235 526 258 532 c 128,-1,5
188 322 m 128,-1,25
 180 293 180 293 173.5 252 c 128,-1,26
 167 211 167 211 167 176.5 c 128,-1,27
 167 142 167 142 176 120 c 0,28,29
 193 79 193 79 245.5 79 c 128,-1,30
 298 79 298 79 334 90.5 c 128,-1,31
 370 102 370 102 421 128 c 1,32,-1
 469 443 l 1,33,34
 405 461 405 461 369.5 461 c 128,-1,35
 334 461 334 461 316.5 457.5 c 128,-1,36
 299 454 299 454 289.5 451.5 c 128,-1,37
 280 449 280 449 266 443 c 128,-1,38
 252 437 252 437 243 428.5 c 128,-1,39
 234 420 234 420 223 405.5 c 128,-1,40
 212 391 212 391 204 371 c 128,-1,24
 196 351 196 351 188 322 c 128,-1,25
EndSplineSet
AlternateSubs2: "'salt' Stylistic Alternatives in Latin lookup 16 subtable" aacute.salt
Substitution2: "'smcp' Lowercase to Small Capitals lookup 1 subtable" aacute.smcp
EndChar

StartChar: acircumflex
Encoding: 226 226 163
Width: 540
GlyphClass: 2
Flags: W
LayerCount: 2
Fore
SplineSet
210 603 m 1,0,-1
 346 734 l 1,1,-1
 426 734 l 1,2,-1
 506 603 l 1,3,-1
 435 603 l 1,4,-1
 381 681 l 1,5,-1
 296 603 l 1,6,-1
 210 603 l 1,0,-1
258 532 m 128,-1,8
 281 538 281 538 304 540.5 c 128,-1,9
 327 543 327 543 359.5 543 c 128,-1,10
 392 543 392 543 461 528 c 128,-1,11
 530 513 530 513 566 479 c 1,12,-1
 496 0 l 1,13,-1
 428 0 l 1,14,-1
 414 59 l 1,15,16
 386 36 386 36 335 14.5 c 128,-1,17
 284 -7 284 -7 241.5 -7 c 128,-1,18
 199 -7 199 -7 172.5 0.5 c 128,-1,19
 146 8 146 8 122.5 27.5 c 128,-1,20
 99 47 99 47 88 80 c 0,21,22
 74 124 74 124 74 175 c 128,-1,23
 74 226 74 226 85 286 c 128,-1,24
 96 346 96 346 115.5 392.5 c 128,-1,25
 135 439 135 439 156 465.5 c 128,-1,26
 177 492 177 492 206 509 c 128,-1,7
 235 526 235 526 258 532 c 128,-1,8
188 322 m 128,-1,28
 180 293 180 293 173.5 252 c 128,-1,29
 167 211 167 211 167 176.5 c 128,-1,30
 167 142 167 142 176 120 c 0,31,32
 193 79 193 79 245.5 79 c 128,-1,33
 298 79 298 79 334 90.5 c 128,-1,34
 370 102 370 102 421 128 c 1,35,-1
 469 443 l 1,36,37
 405 461 405 461 369.5 461 c 128,-1,38
 334 461 334 461 316.5 457.5 c 128,-1,39
 299 454 299 454 289.5 451.5 c 128,-1,40
 280 449 280 449 266 443 c 128,-1,41
 252 437 252 437 243 428.5 c 128,-1,42
 234 420 234 420 223 405.5 c 128,-1,43
 212 391 212 391 204 371 c 128,-1,27
 196 351 196 351 188 322 c 128,-1,28
EndSplineSet
AlternateSubs2: "'salt' Stylistic Alternatives in Latin lookup 16 subtable" acircumflex.salt
Substitution2: "'smcp' Lowercase to Small Capitals lookup 1 subtable" acircumflex.smcp
EndChar

StartChar: atilde
Encoding: 227 227 164
Width: 540
GlyphClass: 2
Flags: W
LayerCount: 2
Fore
SplineSet
387.5 695.5 m 128,-1,1
 418 679 418 679 425 679 c 128,-1,2
 432 679 432 679 441 679 c 128,-1,3
 450 679 450 679 485.5 693 c 128,-1,4
 521 707 521 707 531 714 c 1,5,-1
 546 667 l 1,6,7
 538 662 538 662 521.5 650 c 128,-1,8
 505 638 505 638 496 632 c 128,-1,9
 487 626 487 626 473 618 c 0,10,11
 419 588 419 588 362 621 c 0,12,13
 334 638 334 638 317 638 c 0,14,15
 290 638 290 638 272.5 630 c 128,-1,16
 255 622 255 622 239 614 c 128,-1,17
 223 606 223 606 217 603 c 1,18,-1
 202 648 l 1,19,20
 266 698 266 698 290.5 705.5 c 128,-1,21
 315 713 315 713 336 712.5 c 128,-1,0
 357 712 357 712 387.5 695.5 c 128,-1,1
258 532 m 128,-1,23
 281 538 281 538 304 540.5 c 128,-1,24
 327 543 327 543 359.5 543 c 128,-1,25
 392 543 392 543 461 528 c 128,-1,26
 530 513 530 513 566 479 c 1,27,-1
 496 0 l 1,28,-1
 428 0 l 1,29,-1
 414 59 l 1,30,31
 386 36 386 36 335 14.5 c 128,-1,32
 284 -7 284 -7 241.5 -7 c 128,-1,33
 199 -7 199 -7 172.5 0.5 c 128,-1,34
 146 8 146 8 122.5 27.5 c 128,-1,35
 99 47 99 47 88 80 c 0,36,37
 74 124 74 124 74 175 c 128,-1,38
 74 226 74 226 85 286 c 128,-1,39
 96 346 96 346 115.5 392.5 c 128,-1,40
 135 439 135 439 156 465.5 c 128,-1,41
 177 492 177 492 206 509 c 128,-1,22
 235 526 235 526 258 532 c 128,-1,23
188 322 m 128,-1,43
 180 293 180 293 173.5 252 c 128,-1,44
 167 211 167 211 167 176.5 c 128,-1,45
 167 142 167 142 176 120 c 0,46,47
 193 79 193 79 245.5 79 c 128,-1,48
 298 79 298 79 334 90.5 c 128,-1,49
 370 102 370 102 421 128 c 1,50,-1
 469 443 l 1,51,52
 405 461 405 461 369.5 461 c 128,-1,53
 334 461 334 461 316.5 457.5 c 128,-1,54
 299 454 299 454 289.5 451.5 c 128,-1,55
 280 449 280 449 266 443 c 128,-1,56
 252 437 252 437 243 428.5 c 128,-1,57
 234 420 234 420 223 405.5 c 128,-1,58
 212 391 212 391 204 371 c 128,-1,42
 196 351 196 351 188 322 c 128,-1,43
EndSplineSet
AlternateSubs2: "'salt' Stylistic Alternatives in Latin lookup 16 subtable" atilde.salt
Substitution2: "'smcp' Lowercase to Small Capitals lookup 1 subtable" atilde.smcp
EndChar

StartChar: adieresis
Encoding: 228 228 165
Width: 540
GlyphClass: 2
Flags: W
LayerCount: 2
Fore
SplineSet
220 701 m 128,-1,1
 233 708 233 708 251.5 708 c 128,-1,2
 270 708 270 708 281.5 694.5 c 128,-1,3
 293 681 293 681 293 671 c 0,4,5
 293 637 293 637 273 620 c 128,-1,6
 253 603 253 603 231 603 c 128,-1,7
 209 603 209 603 197.5 617 c 128,-1,8
 186 631 186 631 186 641.5 c 128,-1,9
 186 652 186 652 187 661 c 128,-1,10
 188 670 188 670 197.5 682 c 128,-1,0
 207 694 207 694 220 701 c 128,-1,1
475 701 m 128,-1,12
 488 708 488 708 506.5 708 c 128,-1,13
 525 708 525 708 536.5 694.5 c 128,-1,14
 548 681 548 681 548 671 c 0,15,16
 548 637 548 637 528 620 c 128,-1,17
 508 603 508 603 486 603 c 128,-1,18
 464 603 464 603 452.5 617 c 128,-1,19
 441 631 441 631 441 641.5 c 128,-1,20
 441 652 441 652 442 661 c 128,-1,21
 443 670 443 670 452.5 682 c 128,-1,11
 462 694 462 694 475 701 c 128,-1,12
258 532 m 128,-1,23
 281 538 281 538 304 540.5 c 128,-1,24
 327 543 327 543 359.5 543 c 128,-1,25
 392 543 392 543 461 528 c 128,-1,26
 530 513 530 513 566 479 c 1,27,-1
 496 0 l 1,28,-1
 428 0 l 1,29,-1
 414 59 l 1,30,31
 386 36 386 36 335 14.5 c 128,-1,32
 284 -7 284 -7 241.5 -7 c 128,-1,33
 199 -7 199 -7 172.5 0.5 c 128,-1,34
 146 8 146 8 122.5 27.5 c 128,-1,35
 99 47 99 47 88 80 c 0,36,37
 74 124 74 124 74 175 c 128,-1,38
 74 226 74 226 85 286 c 128,-1,39
 96 346 96 346 115.5 392.5 c 128,-1,40
 135 439 135 439 156 465.5 c 128,-1,41
 177 492 177 492 206 509 c 128,-1,22
 235 526 235 526 258 532 c 128,-1,23
188 322 m 128,-1,43
 180 293 180 293 173.5 252 c 128,-1,44
 167 211 167 211 167 176.5 c 128,-1,45
 167 142 167 142 176 120 c 0,46,47
 193 79 193 79 245.5 79 c 128,-1,48
 298 79 298 79 334 90.5 c 128,-1,49
 370 102 370 102 421 128 c 1,50,-1
 469 443 l 1,51,52
 405 461 405 461 369.5 461 c 128,-1,53
 334 461 334 461 316.5 457.5 c 128,-1,54
 299 454 299 454 289.5 451.5 c 128,-1,55
 280 449 280 449 266 443 c 128,-1,56
 252 437 252 437 243 428.5 c 128,-1,57
 234 420 234 420 223 405.5 c 128,-1,58
 212 391 212 391 204 371 c 128,-1,42
 196 351 196 351 188 322 c 128,-1,43
EndSplineSet
AlternateSubs2: "'salt' Stylistic Alternatives in Latin lookup 16 subtable" adieresis.salt
Substitution2: "'smcp' Lowercase to Small Capitals lookup 1 subtable" adieresis.smcp
EndChar

StartChar: aring
Encoding: 229 229 166
Width: 540
GlyphClass: 2
Flags: W
LayerCount: 2
Fore
SplineSet
340 793.5 m 128,-1,1
 365 807 365 807 399.5 807 c 128,-1,2
 434 807 434 807 459.5 779 c 128,-1,3
 485 751 485 751 485 715 c 0,4,5
 485 681 485 681 468 655 c 0,6,7
 434 603 434 603 375 603 c 0,8,9
 333 603 333 603 307 630.5 c 128,-1,10
 281 658 281 658 281 694 c 0,11,12
 281 728 281 728 298 754 c 128,-1,0
 315 780 315 780 340 793.5 c 128,-1,1
379 654 m 128,-1,14
 393 654 393 654 405 660 c 0,15,16
 435 676 435 676 435 710 c 0,17,18
 435 728 435 728 422 742 c 128,-1,19
 409 756 409 756 393.5 756 c 128,-1,20
 378 756 378 756 368 752 c 128,-1,21
 358 748 358 748 350 741 c 0,22,23
 334 726 334 726 332 708 c 128,-1,24
 330 690 330 690 336 678.5 c 128,-1,25
 342 667 342 667 353.5 660.5 c 128,-1,13
 365 654 365 654 379 654 c 128,-1,14
258 532 m 128,-1,27
 281 538 281 538 304 540.5 c 128,-1,28
 327 543 327 543 359.5 543 c 128,-1,29
 392 543 392 543 461 528 c 128,-1,30
 530 513 530 513 566 479 c 1,31,-1
 496 0 l 1,32,-1
 428 0 l 1,33,-1
 414 59 l 1,34,35
 386 36 386 36 335 14.5 c 128,-1,36
 284 -7 284 -7 241.5 -7 c 128,-1,37
 199 -7 199 -7 172.5 0.5 c 128,-1,38
 146 8 146 8 122.5 27.5 c 128,-1,39
 99 47 99 47 88 80 c 0,40,41
 74 124 74 124 74 175 c 128,-1,42
 74 226 74 226 85 286 c 128,-1,43
 96 346 96 346 115.5 392.5 c 128,-1,44
 135 439 135 439 156 465.5 c 128,-1,45
 177 492 177 492 206 509 c 128,-1,26
 235 526 235 526 258 532 c 128,-1,27
188 322 m 128,-1,47
 180 293 180 293 173.5 252 c 128,-1,48
 167 211 167 211 167 176.5 c 128,-1,49
 167 142 167 142 176 120 c 0,50,51
 193 79 193 79 245.5 79 c 128,-1,52
 298 79 298 79 334 90.5 c 128,-1,53
 370 102 370 102 421 128 c 1,54,-1
 469 443 l 1,55,56
 405 461 405 461 369.5 461 c 128,-1,57
 334 461 334 461 316.5 457.5 c 128,-1,58
 299 454 299 454 289.5 451.5 c 128,-1,59
 280 449 280 449 266 443 c 128,-1,60
 252 437 252 437 243 428.5 c 128,-1,61
 234 420 234 420 223 405.5 c 128,-1,62
 212 391 212 391 204 371 c 128,-1,46
 196 351 196 351 188 322 c 128,-1,47
EndSplineSet
AlternateSubs2: "'salt' Stylistic Alternatives in Latin lookup 16 subtable" aring.salt
Substitution2: "'smcp' Lowercase to Small Capitals lookup 1 subtable" aring.smcp
EndChar

StartChar: ae
Encoding: 230 230 167
Width: 887
GlyphClass: 2
Flags: W
LayerCount: 2
Fore
SplineSet
222.5 532.5 m 128,-1,1
 244 538 244 538 267 540.5 c 128,-1,2
 290 543 290 543 317 543 c 128,-1,3
 344 543 344 543 400 533 c 128,-1,4
 456 523 456 523 498 499 c 1,5,6
 554 541 554 541 661 541 c 2,7,-1
 662 541 l 2,8,9
 860 541 860 541 860 411 c 0,10,11
 860 344 860 344 828.5 301.5 c 128,-1,12
 797 259 797 259 758 241 c 0,13,14
 682 208 682 208 604 208 c 0,15,16
 564 208 564 208 528.5 212.5 c 128,-1,17
 493 217 493 217 481 222 c 1,18,19
 474 184 474 184 474 164 c 0,20,21
 474 106 474 106 495 91 c 128,-1,22
 516 76 516 76 545.5 75 c 128,-1,23
 575 74 575 74 628 74 c 128,-1,24
 681 74 681 74 792 90 c 1,25,-1
 781 22 l 1,26,27
 677 -7 677 -7 549 -7 c 0,28,29
 537 -7 537 -7 526 -7 c 0,30,31
 433 -6 433 -6 402 63 c 1,32,33
 373 36 373 36 311.5 14.5 c 128,-1,34
 250 -7 250 -7 201 -7 c 0,35,36
 41 -7 41 -7 41 174 c 0,37,38
 41 221 41 221 52.5 284 c 128,-1,39
 64 347 64 347 83.5 394.5 c 128,-1,40
 103 442 103 442 123.5 468.5 c 128,-1,41
 144 495 144 495 172.5 511 c 128,-1,0
 201 527 201 527 222.5 532.5 c 128,-1,1
445 438 m 1,42,43
 367 460 367 460 309 460 c 0,44,45
 254 460 254 460 214 432 c 0,46,47
 196 419 196 419 184 400 c 0,48,49
 155 350 155 350 140 256 c 0,50,51
 132 207 132 207 132 173.5 c 128,-1,52
 132 140 132 140 139 120 c 0,53,54
 155 79 155 79 219 79 c 0,55,56
 265 79 265 79 315 92 c 128,-1,57
 365 105 365 105 386 125 c 1,58,59
 384 141 384 141 384 176 c 128,-1,60
 384 211 384 211 401 301 c 128,-1,61
 418 391 418 391 445 438 c 1,42,43
490 286 m 1,62,63
 518 283 518 283 537.5 283 c 128,-1,64
 557 283 557 283 565.5 283 c 128,-1,65
 574 283 574 283 598 285 c 128,-1,66
 622 287 622 287 642.5 290.5 c 128,-1,67
 663 294 663 294 685 301.5 c 128,-1,68
 707 309 707 309 723 319 c 0,69,70
 768 349 768 349 768 403 c 0,71,72
 768 432 768 432 745.5 444 c 128,-1,73
 723 456 723 456 658 456 c 0,74,75
 575 456 575 456 542 420 c 0,76,77
 518 394 518 394 511 370 c 1,78,79
 501 341 501 341 497 319.5 c 128,-1,80
 493 298 493 298 492 296 c 0,81,82
 491 290 491 290 490 286 c 1,62,63
EndSplineSet
Substitution2: "'smcp' Lowercase to Small Capitals lookup 1 subtable" ae.smcp
EndChar

StartChar: ccedilla
Encoding: 231 231 168
Width: 496
GlyphClass: 2
Flags: W
LayerCount: 2
Fore
SplineSet
266 536 m 128,-1,1
 283 538 283 538 314.5 538 c 128,-1,2
 346 538 346 538 413.5 529.5 c 128,-1,3
 481 521 481 521 533 509 c 1,4,-1
 524 446 l 1,5,6
 397 453 397 453 342 453 c 128,-1,7
 287 453 287 453 275 451 c 128,-1,8
 263 449 263 449 247 439 c 128,-1,9
 231 429 231 429 221 409 c 0,10,11
 197 362 197 362 179 262 c 1,12,13
 170 203 170 203 170 169 c 128,-1,14
 170 135 170 135 180 115 c 0,15,16
 198 78 198 78 244 78 c 0,17,18
 331 78 331 78 438 86 c 1,19,-1
 474 88 l 1,20,-1
 464 24 l 1,21,22
 405 5 405 5 355 -0.5 c 128,-1,23
 305 -6 305 -6 270 -6 c 128,-1,24
 235 -6 235 -6 227 -6 c 0,25,26
 144 -5 144 -5 104 61 c 0,27,28
 79 103 79 103 79 160 c 128,-1,29
 79 217 79 217 88 269.5 c 128,-1,30
 97 322 97 322 108.5 362.5 c 128,-1,31
 120 403 120 403 132.5 431 c 128,-1,32
 145 459 145 459 161.5 479 c 128,-1,33
 178 499 178 499 193 510 c 128,-1,34
 208 521 208 521 228.5 527.5 c 128,-1,0
 249 534 249 534 266 536 c 128,-1,1
194 -175 m 2,35,-1
 141 -175 l 1,36,-1
 148 -131 l 1,37,-1
 201 -116 l 1,38,39
 228 -106 228 -106 238 -72 c 0,40,41
 242 -59 242 -59 245 -37 c 1,42,-1
 320 -37 l 1,43,44
 312 -90 312 -90 298 -119 c 128,-1,45
 284 -148 284 -148 259.5 -161.5 c 128,-1,46
 235 -175 235 -175 194 -175 c 2,35,-1
EndSplineSet
Substitution2: "'smcp' Lowercase to Small Capitals lookup 1 subtable" ccedilla.smcp
EndChar

StartChar: egrave
Encoding: 232 232 169
Width: 525
GlyphClass: 2
Flags: W
LayerCount: 2
Fore
SplineSet
205 736 m 1,0,-1
 301 736 l 1,1,-1
 399 601 l 1,2,-1
 324 601 l 1,3,-1
 205 736 l 1,0,-1
283 208 m 0,4,5
 203 208 203 208 170 222 c 1,6,7
 164 182 164 182 164 153 c 128,-1,8
 164 124 164 124 172 107 c 0,9,10
 188 76 188 76 241 75 c 0,11,12
 264 74 264 74 317.5 74 c 128,-1,13
 371 74 371 74 482 90 c 1,14,-1
 471 22 l 1,15,16
 367 -7 367 -7 237 -7 c 0,17,18
 226 -7 226 -7 214 -7 c 0,19,20
 119 -6 119 -6 89 65 c 0,21,22
 73 103 73 103 73 158.5 c 128,-1,23
 73 214 73 214 84 271.5 c 128,-1,24
 95 329 95 329 103.5 360 c 128,-1,25
 112 391 112 391 125.5 422.5 c 128,-1,26
 139 454 139 454 157.5 474 c 128,-1,27
 176 494 176 494 203 510 c 0,28,29
 254 541 254 541 352 541 c 2,30,-1
 353 541 l 2,31,32
 549 541 549 541 549 412 c 0,33,34
 549 352 549 352 524 312.5 c 128,-1,35
 499 273 499 273 468 254 c 0,36,37
 395 208 395 208 283 208 c 0,4,5
179 286 m 1,38,39
 206 283 206 283 235 283 c 128,-1,40
 264 283 264 283 285 284.5 c 128,-1,41
 306 286 306 286 337 292 c 128,-1,42
 368 298 368 298 391 308 c 128,-1,43
 414 318 414 318 432 338 c 0,44,45
 456 364 456 364 456 398 c 128,-1,46
 456 432 456 432 434 444.5 c 128,-1,47
 412 457 412 457 347 457 c 0,48,49
 264 457 264 457 231 420 c 0,50,51
 207 394 207 394 200 370 c 1,52,53
 190 341 190 341 185 316 c 128,-1,54
 180 291 180 291 179 286 c 1,38,39
EndSplineSet
Substitution2: "'smcp' Lowercase to Small Capitals lookup 1 subtable" egrave.smcp
EndChar

StartChar: eacute
Encoding: 233 233 170
Width: 525
GlyphClass: 2
Flags: W
LayerCount: 2
Fore
SplineSet
324 601 m 1,0,-1
 448 736 l 1,1,-1
 551 736 l 1,2,-1
 399 601 l 1,3,-1
 324 601 l 1,0,-1
283 208 m 0,4,5
 203 208 203 208 170 222 c 1,6,7
 164 182 164 182 164 153 c 128,-1,8
 164 124 164 124 172 107 c 0,9,10
 188 76 188 76 241 75 c 0,11,12
 264 74 264 74 317.5 74 c 128,-1,13
 371 74 371 74 482 90 c 1,14,-1
 471 22 l 1,15,16
 367 -7 367 -7 237 -7 c 0,17,18
 226 -7 226 -7 214 -7 c 0,19,20
 119 -6 119 -6 89 65 c 0,21,22
 73 103 73 103 73 158.5 c 128,-1,23
 73 214 73 214 84 271.5 c 128,-1,24
 95 329 95 329 103.5 360 c 128,-1,25
 112 391 112 391 125.5 422.5 c 128,-1,26
 139 454 139 454 157.5 474 c 128,-1,27
 176 494 176 494 203 510 c 0,28,29
 254 541 254 541 352 541 c 2,30,-1
 353 541 l 2,31,32
 549 541 549 541 549 412 c 0,33,34
 549 352 549 352 524 312.5 c 128,-1,35
 499 273 499 273 468 254 c 0,36,37
 395 208 395 208 283 208 c 0,4,5
179 286 m 1,38,39
 206 283 206 283 235 283 c 128,-1,40
 264 283 264 283 285 284.5 c 128,-1,41
 306 286 306 286 337 292 c 128,-1,42
 368 298 368 298 391 308 c 128,-1,43
 414 318 414 318 432 338 c 0,44,45
 456 364 456 364 456 398 c 128,-1,46
 456 432 456 432 434 444.5 c 128,-1,47
 412 457 412 457 347 457 c 0,48,49
 264 457 264 457 231 420 c 0,50,51
 207 394 207 394 200 370 c 1,52,53
 190 341 190 341 185 316 c 128,-1,54
 180 291 180 291 179 286 c 1,38,39
EndSplineSet
Substitution2: "'smcp' Lowercase to Small Capitals lookup 1 subtable" eacute.smcp
EndChar

StartChar: ecircumflex
Encoding: 234 234 171
Width: 525
GlyphClass: 2
Flags: W
LayerCount: 2
Fore
SplineSet
214 601 m 1,0,-1
 349 732 l 1,1,-1
 429 732 l 1,2,-1
 510 601 l 1,3,-1
 438 601 l 1,4,-1
 385 679 l 1,5,-1
 300 601 l 1,6,-1
 214 601 l 1,0,-1
283 208 m 0,7,8
 203 208 203 208 170 222 c 1,9,10
 164 182 164 182 164 153 c 128,-1,11
 164 124 164 124 172 107 c 0,12,13
 188 76 188 76 241 75 c 0,14,15
 264 74 264 74 317.5 74 c 128,-1,16
 371 74 371 74 482 90 c 1,17,-1
 471 22 l 1,18,19
 367 -7 367 -7 237 -7 c 0,20,21
 226 -7 226 -7 214 -7 c 0,22,23
 119 -6 119 -6 89 65 c 0,24,25
 73 103 73 103 73 158.5 c 128,-1,26
 73 214 73 214 84 271.5 c 128,-1,27
 95 329 95 329 103.5 360 c 128,-1,28
 112 391 112 391 125.5 422.5 c 128,-1,29
 139 454 139 454 157.5 474 c 128,-1,30
 176 494 176 494 203 510 c 0,31,32
 254 541 254 541 352 541 c 2,33,-1
 353 541 l 2,34,35
 549 541 549 541 549 412 c 0,36,37
 549 352 549 352 524 312.5 c 128,-1,38
 499 273 499 273 468 254 c 0,39,40
 395 208 395 208 283 208 c 0,7,8
179 286 m 1,41,42
 206 283 206 283 235 283 c 128,-1,43
 264 283 264 283 285 284.5 c 128,-1,44
 306 286 306 286 337 292 c 128,-1,45
 368 298 368 298 391 308 c 128,-1,46
 414 318 414 318 432 338 c 0,47,48
 456 364 456 364 456 398 c 128,-1,49
 456 432 456 432 434 444.5 c 128,-1,50
 412 457 412 457 347 457 c 0,51,52
 264 457 264 457 231 420 c 0,53,54
 207 394 207 394 200 370 c 1,55,56
 190 341 190 341 185 316 c 128,-1,57
 180 291 180 291 179 286 c 1,41,42
EndSplineSet
Substitution2: "'smcp' Lowercase to Small Capitals lookup 1 subtable" ecircumflex.smcp
EndChar

StartChar: edieresis
Encoding: 235 235 172
Width: 525
GlyphClass: 2
Flags: W
LayerCount: 2
Fore
SplineSet
251.5 706 m 128,-1,1
 273 706 273 706 284.5 692.5 c 128,-1,2
 296 679 296 679 296 669 c 0,3,4
 296 636 296 636 276.5 618.5 c 128,-1,5
 257 601 257 601 235 601 c 128,-1,6
 213 601 213 601 201 615 c 128,-1,7
 189 629 189 629 189 640 c 0,8,9
 189 673 189 673 209.5 689.5 c 128,-1,0
 230 706 230 706 251.5 706 c 128,-1,1
506.5 706 m 128,-1,11
 528 706 528 706 539.5 692.5 c 128,-1,12
 551 679 551 679 551 669 c 0,13,14
 551 636 551 636 531.5 618.5 c 128,-1,15
 512 601 512 601 490 601 c 128,-1,16
 468 601 468 601 456 615 c 128,-1,17
 444 629 444 629 444 640 c 0,18,19
 444 673 444 673 464.5 689.5 c 128,-1,10
 485 706 485 706 506.5 706 c 128,-1,11
283 208 m 0,20,21
 203 208 203 208 170 222 c 1,22,23
 164 182 164 182 164 153 c 128,-1,24
 164 124 164 124 172 107 c 0,25,26
 188 76 188 76 241 75 c 0,27,28
 264 74 264 74 317.5 74 c 128,-1,29
 371 74 371 74 482 90 c 1,30,-1
 471 22 l 1,31,32
 367 -7 367 -7 237 -7 c 0,33,34
 226 -7 226 -7 214 -7 c 0,35,36
 119 -6 119 -6 89 65 c 0,37,38
 73 103 73 103 73 158.5 c 128,-1,39
 73 214 73 214 84 271.5 c 128,-1,40
 95 329 95 329 103.5 360 c 128,-1,41
 112 391 112 391 125.5 422.5 c 128,-1,42
 139 454 139 454 157.5 474 c 128,-1,43
 176 494 176 494 203 510 c 0,44,45
 254 541 254 541 352 541 c 2,46,-1
 353 541 l 2,47,48
 549 541 549 541 549 412 c 0,49,50
 549 352 549 352 524 312.5 c 128,-1,51
 499 273 499 273 468 254 c 0,52,53
 395 208 395 208 283 208 c 0,20,21
179 286 m 1,54,55
 206 283 206 283 235 283 c 128,-1,56
 264 283 264 283 285 284.5 c 128,-1,57
 306 286 306 286 337 292 c 128,-1,58
 368 298 368 298 391 308 c 128,-1,59
 414 318 414 318 432 338 c 0,60,61
 456 364 456 364 456 398 c 128,-1,62
 456 432 456 432 434 444.5 c 128,-1,63
 412 457 412 457 347 457 c 0,64,65
 264 457 264 457 231 420 c 0,66,67
 207 394 207 394 200 370 c 1,68,69
 190 341 190 341 185 316 c 128,-1,70
 180 291 180 291 179 286 c 1,54,55
EndSplineSet
Substitution2: "'smcp' Lowercase to Small Capitals lookup 1 subtable" edieresis.smcp
EndChar

StartChar: igrave
Encoding: 236 236 173
Width: 203
GlyphClass: 2
Flags: W
LayerCount: 2
Fore
SplineSet
38 731 m 1,0,-1
 133 731 l 1,1,-1
 232 596 l 1,2,-1
 157 596 l 1,3,-1
 38 731 l 1,0,-1
54 0 m 1,4,-1
 138 531 l 1,5,-1
 230 531 l 1,6,-1
 146 0 l 1,7,-1
 54 0 l 1,4,-1
EndSplineSet
Substitution2: "'smcp' Lowercase to Small Capitals lookup 1 subtable" igrave.smcp
EndChar

StartChar: iacute
Encoding: 237 237 174
Width: 203
GlyphClass: 2
Flags: W
LayerCount: 2
Fore
SplineSet
155 596 m 1,0,-1
 279 731 l 1,1,-1
 381 731 l 1,2,-1
 230 596 l 1,3,-1
 155 596 l 1,0,-1
54 0 m 1,4,-1
 138 531 l 1,5,-1
 230 531 l 1,6,-1
 146 0 l 1,7,-1
 54 0 l 1,4,-1
EndSplineSet
Substitution2: "'smcp' Lowercase to Small Capitals lookup 1 subtable" iacute.smcp
EndChar

StartChar: icircumflex
Encoding: 238 238 175
Width: 203
GlyphClass: 2
Flags: W
LayerCount: 2
Fore
SplineSet
43 596 m 1,0,-1
 178 728 l 1,1,-1
 258 728 l 1,2,-1
 339 596 l 1,3,-1
 267 596 l 1,4,-1
 214 675 l 1,5,-1
 129 596 l 1,6,-1
 43 596 l 1,0,-1
54 0 m 1,7,-1
 138 531 l 1,8,-1
 230 531 l 1,9,-1
 146 0 l 1,10,-1
 54 0 l 1,7,-1
EndSplineSet
Substitution2: "'smcp' Lowercase to Small Capitals lookup 1 subtable" icircumflex.smcp
EndChar

StartChar: idieresis
Encoding: 239 239 176
Width: 203
GlyphClass: 2
Flags: W
LayerCount: 2
Fore
SplineSet
77 702 m 128,-1,1
 99 702 99 702 110.5 688.5 c 128,-1,2
 122 675 122 675 122 664 c 0,3,4
 122 631 122 631 102 613.5 c 128,-1,5
 82 596 82 596 60.5 596 c 128,-1,6
 39 596 39 596 27 610.5 c 128,-1,7
 15 625 15 625 15 635 c 0,8,9
 15 668 15 668 35 685 c 128,-1,0
 55 702 55 702 77 702 c 128,-1,1
332 702 m 128,-1,11
 354 702 354 702 365.5 688.5 c 128,-1,12
 377 675 377 675 377 664 c 0,13,14
 377 631 377 631 357 613.5 c 128,-1,15
 337 596 337 596 315.5 596 c 128,-1,16
 294 596 294 596 282 610.5 c 128,-1,17
 270 625 270 625 270 635 c 0,18,19
 270 668 270 668 290 685 c 128,-1,10
 310 702 310 702 332 702 c 128,-1,11
54 0 m 1,20,-1
 138 531 l 1,21,-1
 230 531 l 1,22,-1
 146 0 l 1,23,-1
 54 0 l 1,20,-1
EndSplineSet
Substitution2: "'smcp' Lowercase to Small Capitals lookup 1 subtable" idieresis.smcp
EndChar

StartChar: eth
Encoding: 240 240 177
Width: 537
GlyphClass: 2
Flags: W
LayerCount: 2
Fore
SplineSet
297 531 m 2,0,-1
 388 531 l 2,1,2
 444 531 444 531 458 517 c 1,3,4
 446 595 446 595 408 640 c 1,5,-1
 262 583 l 1,6,-1
 246 642 l 1,7,-1
 351 683 l 1,8,9
 311 705 311 705 246 705 c 0,10,11
 237 705 237 705 226 704 c 1,12,-1
 238 783 l 1,13,14
 380 783 380 783 451 724 c 1,15,-1
 569 770 l 1,16,-1
 586 710 l 1,17,-1
 496 676 l 1,18,19
 556 587 556 587 556 429 c 0,20,21
 556 350 556 350 541 254 c 0,22,23
 519 118 519 118 469.5 59 c 128,-1,24
 420 0 420 0 322 0 c 2,25,-1
 213 0 l 2,26,27
 164 0 164 0 131 21.5 c 128,-1,28
 98 43 98 43 85 79 c 0,29,30
 68 124 68 124 68 172.5 c 128,-1,31
 68 221 68 221 77 262 c 1,32,33
 101 406 101 406 150 468.5 c 128,-1,34
 199 531 199 531 297 531 c 2,0,-1
169 259 m 1,35,36
 161 197 161 197 161 166 c 128,-1,37
 161 135 161 135 172 117.5 c 128,-1,38
 183 100 183 100 196 94.5 c 128,-1,39
 209 89 209 89 219.5 89 c 128,-1,40
 230 89 230 89 232 89 c 2,41,-1
 328 89 l 2,42,43
 329 89 329 89 340 89 c 128,-1,44
 351 89 351 89 366.5 94.5 c 128,-1,45
 382 100 382 100 398 117 c 0,46,47
 431 151 431 151 449 259 c 0,48,49
 459 319 459 319 459 352.5 c 128,-1,50
 459 386 459 386 453 403 c 0,51,52
 439 442 439 442 382 442 c 2,53,-1
 293 442 l 2,54,55
 260 442 260 442 238 429 c 1,56,57
 192 399 192 399 169 259 c 1,35,36
EndSplineSet
Substitution2: "'smcp' Lowercase to Small Capitals lookup 1 subtable" eth.smcp
EndChar

StartChar: ntilde
Encoding: 241 241 178
Width: 545
GlyphClass: 2
Flags: W
LayerCount: 2
Fore
SplineSet
395.5 693 m 128,-1,1
 426 677 426 677 432.5 676.5 c 128,-1,2
 439 676 439 676 448.5 676 c 128,-1,3
 458 676 458 676 493.5 690 c 128,-1,4
 529 704 529 704 538 711 c 1,5,-1
 553 664 l 1,6,7
 546 659 546 659 529.5 647 c 128,-1,8
 513 635 513 635 503.5 629 c 128,-1,9
 494 623 494 623 480 615 c 0,10,11
 426 585 426 585 370 618 c 0,12,13
 341 635 341 635 325 635 c 0,14,15
 297 635 297 635 280 627.5 c 128,-1,16
 263 620 263 620 247 611.5 c 128,-1,17
 231 603 231 603 224 600 c 1,18,-1
 209 645 l 1,19,20
 261 686 261 686 289.5 698 c 128,-1,21
 318 710 318 710 341.5 709.5 c 128,-1,0
 365 709 365 709 395.5 693 c 128,-1,1
423 540 m 0,22,23
 501 540 501 540 535 490 c 0,24,25
 560 452 560 452 560 402 c 0,26,27
 560 385 560 385 557 366 c 2,28,-1
 499 0 l 1,29,-1
 407 0 l 1,30,-1
 465 366 l 2,31,32
 467 378 467 378 467 397.5 c 128,-1,33
 467 417 467 417 451 436.5 c 128,-1,34
 435 456 435 456 391 456 c 128,-1,35
 347 456 347 456 311 444 c 128,-1,36
 275 432 275 432 212 402 c 1,37,-1
 148 0 l 1,38,-1
 56 0 l 1,39,-1
 140 531 l 1,40,-1
 209 531 l 1,41,-1
 222 470 l 1,42,43
 226 473 226 473 240.5 481 c 128,-1,44
 255 489 255 489 259.5 491 c 128,-1,45
 264 493 264 493 277.5 500.5 c 128,-1,46
 291 508 291 508 297 510 c 128,-1,47
 303 512 303 512 315.5 517.5 c 128,-1,48
 328 523 328 523 335.5 525.5 c 128,-1,49
 343 528 343 528 355 531.5 c 128,-1,50
 367 535 367 535 377 536 c 0,51,52
 404 540 404 540 423 540 c 0,22,23
EndSplineSet
AlternateSubs2: "'salt' Stylistic Alternatives in Latin lookup 16 subtable" ntilde.salt
Substitution2: "'smcp' Lowercase to Small Capitals lookup 1 subtable" ntilde.smcp
EndChar

StartChar: ograve
Encoding: 242 242 179
Width: 562
GlyphClass: 2
Flags: W
LayerCount: 2
Fore
SplineSet
215 731 m 1,0,-1
 311 731 l 1,1,-1
 409 596 l 1,2,-1
 334 596 l 1,3,-1
 215 731 l 1,0,-1
250.5 524 m 128,-1,5
 295 536 295 536 372 536 c 0,6,7
 531 536 531 536 560 412 c 0,8,9
 567 382 567 382 567 343 c 128,-1,10
 567 304 567 304 558 254 c 0,11,12
 534 105 534 105 477.5 50 c 128,-1,13
 421 -5 421 -5 290 -5 c 128,-1,14
 159 -5 159 -5 111 57 c 0,15,16
 79 99 79 99 79 179 c 0,17,18
 79 216 79 216 89 280 c 128,-1,19
 99 344 99 344 118.5 396.5 c 128,-1,20
 138 449 138 449 172 480.5 c 128,-1,4
 206 512 206 512 250.5 524 c 128,-1,5
202.5 361.5 m 128,-1,22
 189 323 189 323 179.5 268.5 c 128,-1,23
 170 214 170 214 170 189 c 128,-1,24
 170 164 170 164 172 148.5 c 128,-1,25
 174 133 174 133 182 120 c 128,-1,26
 190 107 190 107 199.5 99 c 128,-1,27
 209 91 209 91 225 87 c 1,28,29
 250 79 250 79 288.5 79.5 c 128,-1,30
 327 80 327 80 347 82.5 c 128,-1,31
 367 85 367 85 388 94.5 c 128,-1,32
 409 104 409 104 422 123.5 c 128,-1,33
 435 143 435 143 446.5 176 c 128,-1,34
 458 209 458 209 466 258 c 0,35,36
 475 311 475 311 475 343.5 c 128,-1,37
 475 376 475 376 469.5 397.5 c 128,-1,38
 464 419 464 419 447 431 c 0,39,40
 419 452 419 452 364.5 452 c 128,-1,41
 310 452 310 452 285 446 c 128,-1,42
 260 440 260 440 238 420 c 128,-1,21
 216 400 216 400 202.5 361.5 c 128,-1,22
EndSplineSet
Substitution2: "'smcp' Lowercase to Small Capitals lookup 1 subtable" ograve.smcp
EndChar

StartChar: oacute
Encoding: 243 243 180
Width: 562
GlyphClass: 2
Flags: W
LayerCount: 2
Fore
SplineSet
335 596 m 1,0,-1
 459 731 l 1,1,-1
 561 731 l 1,2,-1
 410 596 l 1,3,-1
 335 596 l 1,0,-1
250.5 524 m 128,-1,5
 295 536 295 536 372 536 c 0,6,7
 531 536 531 536 560 412 c 0,8,9
 567 382 567 382 567 343 c 128,-1,10
 567 304 567 304 558 254 c 0,11,12
 534 105 534 105 477.5 50 c 128,-1,13
 421 -5 421 -5 290 -5 c 128,-1,14
 159 -5 159 -5 111 57 c 0,15,16
 79 99 79 99 79 179 c 0,17,18
 79 216 79 216 89 280 c 128,-1,19
 99 344 99 344 118.5 396.5 c 128,-1,20
 138 449 138 449 172 480.5 c 128,-1,4
 206 512 206 512 250.5 524 c 128,-1,5
202.5 361.5 m 128,-1,22
 189 323 189 323 179.5 268.5 c 128,-1,23
 170 214 170 214 170 189 c 128,-1,24
 170 164 170 164 172 148.5 c 128,-1,25
 174 133 174 133 182 120 c 128,-1,26
 190 107 190 107 199.5 99 c 128,-1,27
 209 91 209 91 225 87 c 1,28,29
 250 79 250 79 288.5 79.5 c 128,-1,30
 327 80 327 80 347 82.5 c 128,-1,31
 367 85 367 85 388 94.5 c 128,-1,32
 409 104 409 104 422 123.5 c 128,-1,33
 435 143 435 143 446.5 176 c 128,-1,34
 458 209 458 209 466 258 c 0,35,36
 475 311 475 311 475 343.5 c 128,-1,37
 475 376 475 376 469.5 397.5 c 128,-1,38
 464 419 464 419 447 431 c 0,39,40
 419 452 419 452 364.5 452 c 128,-1,41
 310 452 310 452 285 446 c 128,-1,42
 260 440 260 440 238 420 c 128,-1,21
 216 400 216 400 202.5 361.5 c 128,-1,22
EndSplineSet
Substitution2: "'smcp' Lowercase to Small Capitals lookup 1 subtable" oacute.smcp
EndChar

StartChar: ocircumflex
Encoding: 244 244 181
Width: 562
GlyphClass: 2
Flags: W
LayerCount: 2
Fore
SplineSet
223 596 m 1,0,-1
 358 728 l 1,1,-1
 438 728 l 1,2,-1
 519 596 l 1,3,-1
 447 596 l 1,4,-1
 394 675 l 1,5,-1
 309 596 l 1,6,-1
 223 596 l 1,0,-1
250.5 524 m 128,-1,8
 295 536 295 536 372 536 c 0,9,10
 531 536 531 536 560 412 c 0,11,12
 567 382 567 382 567 343 c 128,-1,13
 567 304 567 304 558 254 c 0,14,15
 534 105 534 105 477.5 50 c 128,-1,16
 421 -5 421 -5 290 -5 c 128,-1,17
 159 -5 159 -5 111 57 c 0,18,19
 79 99 79 99 79 179 c 0,20,21
 79 216 79 216 89 280 c 128,-1,22
 99 344 99 344 118.5 396.5 c 128,-1,23
 138 449 138 449 172 480.5 c 128,-1,7
 206 512 206 512 250.5 524 c 128,-1,8
202.5 361.5 m 128,-1,25
 189 323 189 323 179.5 268.5 c 128,-1,26
 170 214 170 214 170 189 c 128,-1,27
 170 164 170 164 172 148.5 c 128,-1,28
 174 133 174 133 182 120 c 128,-1,29
 190 107 190 107 199.5 99 c 128,-1,30
 209 91 209 91 225 87 c 1,31,32
 250 79 250 79 288.5 79.5 c 128,-1,33
 327 80 327 80 347 82.5 c 128,-1,34
 367 85 367 85 388 94.5 c 128,-1,35
 409 104 409 104 422 123.5 c 128,-1,36
 435 143 435 143 446.5 176 c 128,-1,37
 458 209 458 209 466 258 c 0,38,39
 475 311 475 311 475 343.5 c 128,-1,40
 475 376 475 376 469.5 397.5 c 128,-1,41
 464 419 464 419 447 431 c 0,42,43
 419 452 419 452 364.5 452 c 128,-1,44
 310 452 310 452 285 446 c 128,-1,45
 260 440 260 440 238 420 c 128,-1,24
 216 400 216 400 202.5 361.5 c 128,-1,25
EndSplineSet
Substitution2: "'smcp' Lowercase to Small Capitals lookup 1 subtable" ocircumflex.smcp
EndChar

StartChar: otilde
Encoding: 245 245 182
Width: 562
GlyphClass: 2
Flags: W
LayerCount: 2
Fore
SplineSet
394.5 689 m 128,-1,1
 425 673 425 673 431.5 673 c 128,-1,2
 438 673 438 673 447.5 673 c 128,-1,3
 457 673 457 673 492.5 686.5 c 128,-1,4
 528 700 528 700 537 708 c 1,5,-1
 552 661 l 1,6,7
 545 656 545 656 532 646.5 c 128,-1,8
 519 637 519 637 511 631.5 c 128,-1,9
 503 626 503 626 491 618.5 c 128,-1,10
 479 611 479 611 470 607 c 0,11,12
 420 585 420 585 369 615 c 0,13,14
 340 631 340 631 324 631 c 0,15,16
 296 631 296 631 279 623.5 c 128,-1,17
 262 616 262 616 246 607.5 c 128,-1,18
 230 599 230 599 224 596 c 1,19,-1
 208 641 l 1,20,21
 261 682 261 682 289 694.5 c 128,-1,22
 317 707 317 707 340.5 706 c 128,-1,0
 364 705 364 705 394.5 689 c 128,-1,1
250.5 524 m 128,-1,24
 295 536 295 536 372 536 c 0,25,26
 531 536 531 536 560 412 c 0,27,28
 567 382 567 382 567 343 c 128,-1,29
 567 304 567 304 558 254 c 0,30,31
 534 105 534 105 477.5 50 c 128,-1,32
 421 -5 421 -5 290 -5 c 128,-1,33
 159 -5 159 -5 111 57 c 0,34,35
 79 99 79 99 79 179 c 0,36,37
 79 216 79 216 89 280 c 128,-1,38
 99 344 99 344 118.5 396.5 c 128,-1,39
 138 449 138 449 172 480.5 c 128,-1,23
 206 512 206 512 250.5 524 c 128,-1,24
202.5 361.5 m 128,-1,41
 189 323 189 323 179.5 268.5 c 128,-1,42
 170 214 170 214 170 189 c 128,-1,43
 170 164 170 164 172 148.5 c 128,-1,44
 174 133 174 133 182 120 c 128,-1,45
 190 107 190 107 199.5 99 c 128,-1,46
 209 91 209 91 225 87 c 1,47,48
 250 79 250 79 288.5 79.5 c 128,-1,49
 327 80 327 80 347 82.5 c 128,-1,50
 367 85 367 85 388 94.5 c 128,-1,51
 409 104 409 104 422 123.5 c 128,-1,52
 435 143 435 143 446.5 176 c 128,-1,53
 458 209 458 209 466 258 c 0,54,55
 475 311 475 311 475 343.5 c 128,-1,56
 475 376 475 376 469.5 397.5 c 128,-1,57
 464 419 464 419 447 431 c 0,58,59
 419 452 419 452 364.5 452 c 128,-1,60
 310 452 310 452 285 446 c 128,-1,61
 260 440 260 440 238 420 c 128,-1,40
 216 400 216 400 202.5 361.5 c 128,-1,41
EndSplineSet
Substitution2: "'smcp' Lowercase to Small Capitals lookup 1 subtable" otilde.smcp
EndChar

StartChar: odieresis
Encoding: 246 246 183
Width: 562
GlyphClass: 2
Flags: W
LayerCount: 2
Fore
SplineSet
258 702 m 128,-1,1
 276 702 276 702 287 695 c 0,2,3
 310 680 310 680 306.5 654 c 128,-1,4
 303 628 303 628 285 612 c 128,-1,5
 267 596 267 596 245 596 c 128,-1,6
 223 596 223 596 211.5 610.5 c 128,-1,7
 200 625 200 625 200 635 c 0,8,9
 200 668 200 668 220 685 c 128,-1,0
 240 702 240 702 258 702 c 128,-1,1
513 702 m 0,10,11
 547 702 547 702 558 676 c 0,12,13
 561 668 561 668 561 661 c 0,14,15
 561 631 561 631 541.5 613.5 c 128,-1,16
 522 596 522 596 500 596 c 128,-1,17
 478 596 478 596 466.5 610.5 c 128,-1,18
 455 625 455 625 455 635 c 0,19,20
 455 668 455 668 475 685 c 128,-1,21
 495 702 495 702 513 702 c 0,10,11
250.5 524 m 128,-1,23
 295 536 295 536 372 536 c 0,24,25
 531 536 531 536 560 412 c 0,26,27
 567 382 567 382 567 343 c 128,-1,28
 567 304 567 304 558 254 c 0,29,30
 534 105 534 105 477.5 50 c 128,-1,31
 421 -5 421 -5 290 -5 c 128,-1,32
 159 -5 159 -5 111 57 c 0,33,34
 79 99 79 99 79 179 c 0,35,36
 79 216 79 216 89 280 c 128,-1,37
 99 344 99 344 118.5 396.5 c 128,-1,38
 138 449 138 449 172 480.5 c 128,-1,22
 206 512 206 512 250.5 524 c 128,-1,23
202.5 361.5 m 128,-1,40
 189 323 189 323 179.5 268.5 c 128,-1,41
 170 214 170 214 170 189 c 128,-1,42
 170 164 170 164 172 148.5 c 128,-1,43
 174 133 174 133 182 120 c 128,-1,44
 190 107 190 107 199.5 99 c 128,-1,45
 209 91 209 91 225 87 c 1,46,47
 250 79 250 79 288.5 79.5 c 128,-1,48
 327 80 327 80 347 82.5 c 128,-1,49
 367 85 367 85 388 94.5 c 128,-1,50
 409 104 409 104 422 123.5 c 128,-1,51
 435 143 435 143 446.5 176 c 128,-1,52
 458 209 458 209 466 258 c 0,53,54
 475 311 475 311 475 343.5 c 128,-1,55
 475 376 475 376 469.5 397.5 c 128,-1,56
 464 419 464 419 447 431 c 0,57,58
 419 452 419 452 364.5 452 c 128,-1,59
 310 452 310 452 285 446 c 128,-1,60
 260 440 260 440 238 420 c 128,-1,39
 216 400 216 400 202.5 361.5 c 128,-1,40
EndSplineSet
Substitution2: "'smcp' Lowercase to Small Capitals lookup 1 subtable" odieresis.smcp
EndChar

StartChar: divide
Encoding: 247 247 184
Width: 511
GlyphClass: 2
Flags: W
LayerCount: 2
Fore
SplineSet
96 310 m 1,0,-1
 109 396 l 1,1,-1
 527 396 l 1,2,-1
 513 310 l 1,3,-1
 96 310 l 1,0,-1
269 250 m 2,4,-1
 325 250 l 2,5,6
 345 250 345 250 345 232 c 0,7,8
 345 229 345 229 344 226 c 2,9,-1
 335 168 l 2,10,11
 332 145 332 145 308 145 c 2,12,-1
 252 145 l 2,13,14
 241 145 241 145 235.5 151.5 c 128,-1,15
 230 158 230 158 231 168 c 2,16,-1
 241 226 l 1,17,18
 244 250 244 250 269 250 c 2,4,-1
317 556 m 2,20,-1
 373 556 l 2,21,22
 393 556 393 556 393 538 c 0,23,24
 393 535 393 535 392 531 c 2,25,-1
 384 474 l 2,26,27
 381 451 381 451 357 451 c 2,28,-1
 300 451 l 2,29,30
 290 451 290 451 284.5 457 c 128,-1,31
 279 463 279 463 280 474 c 2,32,-1
 289 531 l 2,33,19
 292 556 292 556 317 556 c 2,20,-1
EndSplineSet
EndChar

StartChar: oslash
Encoding: 248 248 185
Width: 565
GlyphClass: 2
Flags: W
LayerCount: 2
Fore
SplineSet
173 480 m 0,0,1
 231 536 231 536 365 536 c 0,2,3
 454 536 454 536 502 504 c 1,4,-1
 527 531 l 1,5,-1
 596 531 l 1,6,-1
 538 469 l 1,7,8
 569 424 569 424 569 346 c 0,9,10
 569 305 569 305 560 254 c 0,11,12
 535 105 535 105 478.5 50 c 128,-1,13
 422 -5 422 -5 290 -5 c 0,14,15
 188 -5 188 -5 138 31 c 1,16,-1
 109 0 l 1,17,-1
 45 0 l 1,18,-1
 105 66 l 1,19,20
 80 105 80 105 80 182 c 128,-1,21
 80 259 80 259 105.5 349 c 128,-1,22
 131 439 131 439 173 480 c 0,0,1
439 436 m 1,23,24
 413 452 413 452 362 452 c 128,-1,25
 311 452 311 452 286.5 446 c 128,-1,26
 262 440 262 440 239.5 420 c 128,-1,27
 217 400 217 400 204 361.5 c 128,-1,28
 191 323 191 323 182 270.5 c 128,-1,29
 173 218 173 218 173 190.5 c 128,-1,30
 173 163 173 163 179 146 c 1,31,-1
 439 436 l 1,23,24
384 92 m 128,-1,33
 411 104 411 104 424 124 c 0,34,35
 453 167 453 167 468 258 c 0,36,37
 476 304 476 304 476 338 c 128,-1,38
 476 372 476 372 467 392 c 1,39,-1
 201 100 l 1,40,41
 226 80 226 80 291.5 80 c 128,-1,32
 357 80 357 80 384 92 c 128,-1,33
EndSplineSet
Substitution2: "'smcp' Lowercase to Small Capitals lookup 1 subtable" oslash.smcp
EndChar

StartChar: ugrave
Encoding: 249 249 186
Width: 544
GlyphClass: 2
Flags: W
LayerCount: 2
Fore
SplineSet
206 731 m 1,0,-1
 302 731 l 1,1,-1
 400 596 l 1,2,-1
 325 596 l 1,3,-1
 206 731 l 1,0,-1
165 165 m 2,4,5
 163 150 163 150 163 129.5 c 128,-1,6
 163 109 163 109 178.5 92.5 c 128,-1,7
 194 76 194 76 238.5 76 c 128,-1,8
 283 76 283 76 319 87.5 c 128,-1,9
 355 99 355 99 419 130 c 1,10,-1
 482 531 l 1,11,-1
 574 531 l 1,12,-1
 490 0 l 1,13,-1
 421 0 l 1,14,-1
 407 60 l 1,15,16
 404 58 404 58 381 45.5 c 128,-1,17
 358 33 358 33 337 22 c 0,18,19
 274 -9 274 -9 201 -9 c 128,-1,20
 128 -9 128 -9 95 40 c 1,21,22
 70 75 70 75 70 126 c 0,23,24
 70 145 70 145 73 166 c 2,25,-1
 131 531 l 1,26,-1
 223 531 l 1,27,-1
 165 165 l 2,4,5
EndSplineSet
AlternateSubs2: "'salt' Stylistic Alternatives in Latin lookup 16 subtable" ugrave.salt
Substitution2: "'smcp' Lowercase to Small Capitals lookup 1 subtable" ugrave.smcp
EndChar

StartChar: uacute
Encoding: 250 250 187
Width: 544
GlyphClass: 2
Flags: W
LayerCount: 2
Fore
SplineSet
325 596 m 1,0,-1
 449 731 l 1,1,-1
 551 731 l 1,2,-1
 400 596 l 1,3,-1
 325 596 l 1,0,-1
165 165 m 2,4,5
 163 150 163 150 163 129.5 c 128,-1,6
 163 109 163 109 178.5 92.5 c 128,-1,7
 194 76 194 76 238.5 76 c 128,-1,8
 283 76 283 76 319 87.5 c 128,-1,9
 355 99 355 99 419 130 c 1,10,-1
 482 531 l 1,11,-1
 574 531 l 1,12,-1
 490 0 l 1,13,-1
 421 0 l 1,14,-1
 407 60 l 1,15,16
 404 58 404 58 381 45.5 c 128,-1,17
 358 33 358 33 337 22 c 0,18,19
 274 -9 274 -9 201 -9 c 128,-1,20
 128 -9 128 -9 95 40 c 1,21,22
 70 75 70 75 70 126 c 0,23,24
 70 145 70 145 73 166 c 2,25,-1
 131 531 l 1,26,-1
 223 531 l 1,27,-1
 165 165 l 2,4,5
EndSplineSet
AlternateSubs2: "'salt' Stylistic Alternatives in Latin lookup 16 subtable" uacute.salt
Substitution2: "'smcp' Lowercase to Small Capitals lookup 1 subtable" uacute.smcp
EndChar

StartChar: ucircumflex
Encoding: 251 251 188
Width: 544
GlyphClass: 2
Flags: W
LayerCount: 2
Fore
SplineSet
214 596 m 1,0,-1
 350 728 l 1,1,-1
 430 728 l 1,2,-1
 511 596 l 1,3,-1
 439 596 l 1,4,-1
 386 675 l 1,5,-1
 301 596 l 1,6,-1
 214 596 l 1,0,-1
165 165 m 2,7,8
 163 150 163 150 163 129.5 c 128,-1,9
 163 109 163 109 178.5 92.5 c 128,-1,10
 194 76 194 76 238.5 76 c 128,-1,11
 283 76 283 76 319 87.5 c 128,-1,12
 355 99 355 99 419 130 c 1,13,-1
 482 531 l 1,14,-1
 574 531 l 1,15,-1
 490 0 l 1,16,-1
 421 0 l 1,17,-1
 407 60 l 1,18,19
 404 58 404 58 381 45.5 c 128,-1,20
 358 33 358 33 337 22 c 0,21,22
 274 -9 274 -9 201 -9 c 128,-1,23
 128 -9 128 -9 95 40 c 1,24,25
 70 75 70 75 70 126 c 0,26,27
 70 145 70 145 73 166 c 2,28,-1
 131 531 l 1,29,-1
 223 531 l 1,30,-1
 165 165 l 2,7,8
EndSplineSet
AlternateSubs2: "'salt' Stylistic Alternatives in Latin lookup 16 subtable" ucircumflex.salt
Substitution2: "'smcp' Lowercase to Small Capitals lookup 1 subtable" ucircumflex.smcp
EndChar

StartChar: udieresis
Encoding: 252 252 189
Width: 544
GlyphClass: 2
Flags: W
LayerCount: 2
Fore
SplineSet
252 702 m 128,-1,1
 274 702 274 702 285.5 688.5 c 128,-1,2
 297 675 297 675 297 664 c 0,3,4
 297 631 297 631 277.5 613.5 c 128,-1,5
 258 596 258 596 236 596 c 128,-1,6
 214 596 214 596 202 610.5 c 128,-1,7
 190 625 190 625 190 635 c 0,8,9
 190 668 190 668 210 685 c 128,-1,0
 230 702 230 702 252 702 c 128,-1,1
507 702 m 128,-1,11
 529 702 529 702 540.5 688.5 c 128,-1,12
 552 675 552 675 552 664 c 0,13,14
 552 631 552 631 532.5 613.5 c 128,-1,15
 513 596 513 596 491 596 c 128,-1,16
 469 596 469 596 457 610.5 c 128,-1,17
 445 625 445 625 445 635 c 0,18,19
 445 668 445 668 465 685 c 128,-1,10
 485 702 485 702 507 702 c 128,-1,11
165 165 m 2,20,21
 163 150 163 150 163 129.5 c 128,-1,22
 163 109 163 109 178.5 92.5 c 128,-1,23
 194 76 194 76 238.5 76 c 128,-1,24
 283 76 283 76 319 87.5 c 128,-1,25
 355 99 355 99 419 130 c 1,26,-1
 482 531 l 1,27,-1
 574 531 l 1,28,-1
 490 0 l 1,29,-1
 421 0 l 1,30,-1
 407 60 l 1,31,32
 404 58 404 58 381 45.5 c 128,-1,33
 358 33 358 33 337 22 c 0,34,35
 274 -9 274 -9 201 -9 c 128,-1,36
 128 -9 128 -9 95 40 c 1,37,38
 70 75 70 75 70 126 c 0,39,40
 70 145 70 145 73 166 c 2,41,-1
 131 531 l 1,42,-1
 223 531 l 1,43,-1
 165 165 l 2,20,21
EndSplineSet
AlternateSubs2: "'salt' Stylistic Alternatives in Latin lookup 16 subtable" udieresis.salt
Substitution2: "'smcp' Lowercase to Small Capitals lookup 1 subtable" udieresis.smcp
EndChar

StartChar: yacute
Encoding: 253 253 190
Width: 552
GlyphClass: 2
Flags: W
LayerCount: 2
Fore
SplineSet
314 592 m 1,0,-1
 438 726 l 1,1,-1
 540 726 l 1,2,-1
 389 592 l 1,3,-1
 314 592 l 1,0,-1
588 533 m 1,4,5
 593 514 593 514 593 486 c 128,-1,6
 593 458 593 458 575 420 c 2,7,-1
 367 1 l 2,8,9
 303 -130 303 -130 238.5 -194.5 c 128,-1,10
 174 -259 174 -259 96 -274 c 1,11,-1
 96 -209 l 1,12,13
 152 -174 152 -174 190 -122.5 c 128,-1,14
 228 -71 228 -71 265 0 c 1,15,16
 230 0 230 0 198 21 c 0,17,18
 158 47 158 47 148 117 c 2,19,-1
 91 531 l 1,20,-1
 187 531 l 1,21,-1
 242 128 l 2,22,23
 247 97 247 97 281 90 c 0,24,25
 291 88 291 88 298.5 88.5 c 128,-1,26
 306 89 306 89 306 89 c 1,27,-1
 483 444 l 2,28,29
 500 480 500 480 508 533 c 1,30,-1
 588 533 l 1,4,5
EndSplineSet
Substitution2: "'smcp' Lowercase to Small Capitals lookup 1 subtable" yacute.smcp
EndChar

StartChar: thorn
Encoding: 254 254 191
Width: 551
GlyphClass: 2
Flags: W
LayerCount: 2
Fore
SplineSet
433.5 538 m 128,-1,1
 470 538 470 538 501 513.5 c 128,-1,2
 532 489 532 489 545 450 c 0,3,4
 565 392 565 392 565 343.5 c 128,-1,5
 565 295 565 295 560 263.5 c 128,-1,6
 555 232 555 232 551 212 c 128,-1,7
 547 192 547 192 538.5 160.5 c 128,-1,8
 530 129 530 129 520.5 108 c 128,-1,9
 511 87 511 87 494 62.5 c 128,-1,10
 477 38 477 38 457 24 c 0,11,12
 408 -11 408 -11 341 -11 c 0,13,14
 303 -11 303 -11 251.5 -0.5 c 128,-1,15
 200 10 200 10 161 28 c 1,16,-1
 114 -270 l 1,17,-1
 22 -270 l 1,18,-1
 189 782 l 1,19,-1
 281 782 l 1,20,-1
 232 472 l 1,21,22
 278 503 278 503 337.5 520.5 c 128,-1,0
 397 538 397 538 433.5 538 c 128,-1,1
466 266 m 0,23,24
 471 304 471 304 471 329 c 128,-1,25
 471 354 471 354 467.5 383 c 128,-1,26
 464 412 464 412 447.5 432.5 c 128,-1,27
 431 453 431 453 407 453 c 0,28,29
 340 453 340 453 222 406 c 1,30,-1
 173 97 l 1,31,32
 224 80 224 80 256.5 78 c 128,-1,33
 289 76 289 76 296.5 75.5 c 128,-1,34
 304 75 304 75 319 74 c 128,-1,35
 334 73 334 73 339 73 c 0,36,37
 385 73 385 73 418.5 115 c 128,-1,38
 452 157 452 157 466 266 c 0,23,24
EndSplineSet
Substitution2: "'smcp' Lowercase to Small Capitals lookup 1 subtable" thorn.smcp
EndChar

StartChar: ydieresis
Encoding: 255 255 192
Width: 552
GlyphClass: 2
Flags: W
LayerCount: 2
Fore
SplineSet
242 694 m 128,-1,1
 264 694 264 694 275.5 680.5 c 128,-1,2
 287 667 287 667 287 657 c 0,3,4
 287 623 287 623 267 606 c 128,-1,5
 247 589 247 589 225 589 c 128,-1,6
 203 589 203 589 191.5 603 c 128,-1,7
 180 617 180 617 180 627 c 0,8,9
 180 661 180 661 200 677.5 c 128,-1,0
 220 694 220 694 242 694 c 128,-1,1
497 694 m 128,-1,11
 519 694 519 694 530.5 680.5 c 128,-1,12
 542 667 542 667 542 657 c 0,13,14
 542 623 542 623 522 606 c 128,-1,15
 502 589 502 589 480 589 c 128,-1,16
 458 589 458 589 446.5 603 c 128,-1,17
 435 617 435 617 435 627 c 0,18,19
 435 661 435 661 455 677.5 c 128,-1,10
 475 694 475 694 497 694 c 128,-1,11
588 533 m 1,20,21
 593 514 593 514 593 486 c 128,-1,22
 593 458 593 458 575 420 c 2,23,-1
 367 1 l 2,24,25
 303 -130 303 -130 238.5 -194.5 c 128,-1,26
 174 -259 174 -259 96 -274 c 1,27,-1
 96 -209 l 1,28,29
 152 -174 152 -174 190 -122.5 c 128,-1,30
 228 -71 228 -71 265 0 c 1,31,32
 230 0 230 0 198 21 c 0,33,34
 158 47 158 47 148 117 c 2,35,-1
 91 531 l 1,36,-1
 187 531 l 1,37,-1
 242 128 l 2,38,39
 247 97 247 97 281 90 c 0,40,41
 291 88 291 88 298.5 88.5 c 128,-1,42
 306 89 306 89 306 89 c 1,43,-1
 483 444 l 2,44,45
 500 480 500 480 508 533 c 1,46,-1
 588 533 l 1,20,21
EndSplineSet
Substitution2: "'smcp' Lowercase to Small Capitals lookup 1 subtable" ydieresis.smcp
EndChar

StartChar: Amacron
Encoding: 256 256 193
Width: 667
GlyphClass: 2
Flags: W
LayerCount: 2
Fore
SplineSet
334 797 m 1,0,-1
 345 864 l 1,1,-1
 637 864 l 1,2,-1
 626 797 l 1,3,-1
 334 797 l 1,0,-1
42 0 m 1,4,-1
 421 732 l 1,5,-1
 518 732 l 1,6,-1
 654 0 l 1,7,-1
 560 0 l 1,8,-1
 524 193 l 1,9,-1
 243 193 l 1,10,-1
 143 0 l 1,11,-1
 42 0 l 1,4,-1
287 280 m 1,12,-1
 510 280 l 1,13,-1
 453 607 l 1,14,-1
 287 280 l 1,12,-1
EndSplineSet
Substitution2: "'c2sc' Capitals to Small Capitals in Latin lookup 2 subtable" amacron.smcp
EndChar

StartChar: amacron
Encoding: 257 257 194
Width: 540
GlyphClass: 2
Flags: W
LayerCount: 2
Fore
SplineSet
212 603 m 1,0,-1
 223 670 l 1,1,-1
 515 670 l 1,2,-1
 504 603 l 1,3,-1
 212 603 l 1,0,-1
258 532 m 128,-1,5
 281 538 281 538 304 540.5 c 128,-1,6
 327 543 327 543 359.5 543 c 128,-1,7
 392 543 392 543 461 528 c 128,-1,8
 530 513 530 513 566 479 c 1,9,-1
 496 0 l 1,10,-1
 428 0 l 1,11,-1
 414 59 l 1,12,13
 386 36 386 36 335 14.5 c 128,-1,14
 284 -7 284 -7 241.5 -7 c 128,-1,15
 199 -7 199 -7 172.5 0.5 c 128,-1,16
 146 8 146 8 122.5 27.5 c 128,-1,17
 99 47 99 47 88 80 c 0,18,19
 74 124 74 124 74 175 c 128,-1,20
 74 226 74 226 85 286 c 128,-1,21
 96 346 96 346 115.5 392.5 c 128,-1,22
 135 439 135 439 156 465.5 c 128,-1,23
 177 492 177 492 206 509 c 128,-1,4
 235 526 235 526 258 532 c 128,-1,5
188 322 m 128,-1,25
 180 293 180 293 173.5 252 c 128,-1,26
 167 211 167 211 167 176.5 c 128,-1,27
 167 142 167 142 176 120 c 0,28,29
 193 79 193 79 245.5 79 c 128,-1,30
 298 79 298 79 334 90.5 c 128,-1,31
 370 102 370 102 421 128 c 1,32,-1
 469 443 l 1,33,34
 405 461 405 461 369.5 461 c 128,-1,35
 334 461 334 461 316.5 457.5 c 128,-1,36
 299 454 299 454 289.5 451.5 c 128,-1,37
 280 449 280 449 266 443 c 128,-1,38
 252 437 252 437 243 428.5 c 128,-1,39
 234 420 234 420 223 405.5 c 128,-1,40
 212 391 212 391 204 371 c 128,-1,24
 196 351 196 351 188 322 c 128,-1,25
EndSplineSet
AlternateSubs2: "'salt' Stylistic Alternatives in Latin lookup 16 subtable" amacron.salt
Substitution2: "'smcp' Lowercase to Small Capitals lookup 1 subtable" amacron.smcp
EndChar

StartChar: Abreve
Encoding: 258 258 195
Width: 667
GlyphClass: 2
Flags: W
LayerCount: 2
Fore
SplineSet
434 911 m 1,0,1
 433 905 433 905 433 896 c 128,-1,2
 433 887 433 887 438 874 c 0,3,4
 451 846 451 846 489 846 c 0,5,6
 553 846 553 846 563 911 c 1,7,-1
 612 911 l 1,8,9
 597 797 597 797 486 797 c 0,10,11
 442 797 442 797 413 826 c 128,-1,12
 384 855 384 855 384 898 c 0,13,14
 384 904 384 904 384 911 c 1,15,-1
 434 911 l 1,0,1
42 0 m 1,16,-1
 421 732 l 1,17,-1
 518 732 l 1,18,-1
 654 0 l 1,19,-1
 560 0 l 1,20,-1
 524 193 l 1,21,-1
 243 193 l 1,22,-1
 143 0 l 1,23,-1
 42 0 l 1,16,-1
287 280 m 1,24,-1
 510 280 l 1,25,-1
 453 607 l 1,26,-1
 287 280 l 1,24,-1
EndSplineSet
Substitution2: "'c2sc' Capitals to Small Capitals in Latin lookup 2 subtable" abreve.smcp
EndChar

StartChar: abreve
Encoding: 259 259 196
Width: 540
GlyphClass: 2
Flags: W
LayerCount: 2
Fore
SplineSet
327 717 m 1,0,1
 326 711 326 711 326 697 c 128,-1,2
 326 683 326 683 340 667.5 c 128,-1,3
 354 652 354 652 380 652 c 0,4,5
 382 652 382 652 383 652 c 0,6,7
 447 652 447 652 456 717 c 1,8,-1
 506 717 l 1,9,10
 491 603 491 603 380 603 c 0,11,12
 336 603 336 603 307 632 c 128,-1,13
 278 661 278 661 278 704 c 0,14,15
 278 710 278 710 278 717 c 1,16,-1
 327 717 l 1,0,1
258 532 m 128,-1,18
 281 538 281 538 304 540.5 c 128,-1,19
 327 543 327 543 359.5 543 c 128,-1,20
 392 543 392 543 461 528 c 128,-1,21
 530 513 530 513 566 479 c 1,22,-1
 496 0 l 1,23,-1
 428 0 l 1,24,-1
 414 59 l 1,25,26
 386 36 386 36 335 14.5 c 128,-1,27
 284 -7 284 -7 241.5 -7 c 128,-1,28
 199 -7 199 -7 172.5 0.5 c 128,-1,29
 146 8 146 8 122.5 27.5 c 128,-1,30
 99 47 99 47 88 80 c 0,31,32
 74 124 74 124 74 175 c 128,-1,33
 74 226 74 226 85 286 c 128,-1,34
 96 346 96 346 115.5 392.5 c 128,-1,35
 135 439 135 439 156 465.5 c 128,-1,36
 177 492 177 492 206 509 c 128,-1,17
 235 526 235 526 258 532 c 128,-1,18
188 322 m 128,-1,38
 180 293 180 293 173.5 252 c 128,-1,39
 167 211 167 211 167 176.5 c 128,-1,40
 167 142 167 142 176 120 c 0,41,42
 193 79 193 79 245.5 79 c 128,-1,43
 298 79 298 79 334 90.5 c 128,-1,44
 370 102 370 102 421 128 c 1,45,-1
 469 443 l 1,46,47
 405 461 405 461 369.5 461 c 128,-1,48
 334 461 334 461 316.5 457.5 c 128,-1,49
 299 454 299 454 289.5 451.5 c 128,-1,50
 280 449 280 449 266 443 c 128,-1,51
 252 437 252 437 243 428.5 c 128,-1,52
 234 420 234 420 223 405.5 c 128,-1,53
 212 391 212 391 204 371 c 128,-1,37
 196 351 196 351 188 322 c 128,-1,38
EndSplineSet
Substitution2: "'smcp' Lowercase to Small Capitals lookup 1 subtable" abreve.smcp
EndChar

